<?xml version="1.0" standalone="no"?>
<!DOCTYPE svg PUBLIC "-//W3C//DTD SVG 20010904//EN"
 "http://www.w3.org/TR/2001/REC-SVG-20010904/DTD/svg10.dtd">
<svg version="1.0" xmlns="http://www.w3.org/2000/svg"
 width="260.000000pt" height="260.000000pt" viewBox="0 0 260.000000 260.000000"
 preserveAspectRatio="xMidYMid meet">
<metadata>
Created by potrace 1.11, written by Peter Selinger 2001-2013
</metadata>
<g transform="translate(0.000000,260.000000) scale(0.100000,-0.100000)"
fill="#000000" stroke="none">
<path d="M1183 1884 c-81 -17 -175 -64 -241 -119 -30 -25 -52 -46 -50 -46 1
-1 56 -2 120 -3 64 0 121 -5 126 -11 5 -5 27 -50 50 -100 22 -49 60 -134 85
-188 l44 -97 28 62 c16 35 43 95 60 133 18 39 46 99 62 135 l30 65 121 0 c67
0 121 3 120 6 -2 4 -25 26 -53 48 -133 111 -323 155 -502 115z"/>
<path d="M2125 1716 c-145 -31 -226 -122 -233 -261 -3 -58 1 -78 20 -114 34
-65 81 -97 209 -142 148 -51 159 -57 159 -86 0 -56 -132 -47 -261 18 -34 17
-65 27 -70 22 -5 -5 -28 -49 -53 -99 l-44 -91 41 -21 c127 -61 309 -90 419
-67 85 18 160 71 195 139 23 42 27 167 7 215 -32 76 -93 117 -252 170 -119 39
-132 47 -132 77 0 56 97 54 220 -4 l63 -29 48 91 48 91 -21 16 c-12 9 -56 28
-97 43 -115 39 -190 48 -266 32z"/>
<path d="M60 1615 l0 -100 118 0 117 0 5 -320 5 -320 105 2 c58 1 108 2 112 2
4 1 9 144 10 318 l3 318 110 1 c61 1 113 2 117 3 5 0 7 45 5 99 l-2 97 -352 0
-353 0 0 -100z"/>
<path d="M1115 1095 c1 -210 0 -215 -20 -216 -11 0 -60 -1 -110 -1 l-90 0 45
-40 c57 -51 162 -104 242 -123 94 -22 235 -14 326 18 75 26 144 66 199 115
l32 29 -105 0 c-65 0 -108 4 -112 10 -4 6 -7 104 -6 217 0 113 -3 203 -8 200
-4 -3 -8 -9 -8 -14 0 -5 -15 -42 -34 -82 -18 -40 -46 -101 -61 -135 l-28 -63
-63 0 c-56 0 -63 2 -70 23 -4 12 -22 54 -39 92 -18 39 -44 96 -59 128 -14 31
-27 57 -28 57 -2 0 -3 -97 -3 -215z"/>
</g>
</svg>
