<?xml version="1.0" standalone="no"?>
<!DOCTYPE svg PUBLIC "-//W3C//DTD SVG 20010904//EN"
 "http://www.w3.org/TR/2001/REC-SVG-20010904/DTD/svg10.dtd">
<svg version="1.0" xmlns="http://www.w3.org/2000/svg"
 width="700.000000pt" height="700.000000pt" viewBox="0 0 700.000000 700.000000"
 preserveAspectRatio="xMidYMid meet">
<metadata>
Created by potrace 1.11, written by Peter Selinger 2001-2013
</metadata>
<g transform="translate(0.000000,700.000000) scale(0.100000,-0.100000)"
fill="#000000" stroke="none">
<path d="M3669 6637 c-14 -12 -68 -61 -120 -108 -52 -48 -125 -112 -164 -143
-38 -31 -78 -64 -88 -72 -127 -105 -430 -264 -632 -332 -97 -33 -150 -48 -205
-57 -19 -3 -42 -8 -50 -10 -8 -2 -35 -6 -60 -10 -25 -3 -72 -9 -105 -14 -33
-5 -231 -7 -440 -6 -346 3 -375 2 -330 -11 59 -17 279 -62 345 -69 25 -3 56
-8 70 -10 14 -3 45 -7 70 -10 25 -3 56 -7 69 -10 93 -18 403 -25 526 -12 348
37 690 162 1032 377 l96 60 41 -35 c347 -297 734 -477 1201 -560 105 -18 464
-24 683 -11 79 5 102 3 103 -6 0 -7 2 -20 3 -28 11 -55 17 -143 22 -345 l6
-230 -2083 0 -2084 1 -68 32 c-123 60 -252 38 -346 -58 -141 -145 -87 -401 98
-471 92 -34 183 -26 276 26 l40 22 780 -1 780 -1 25 23 c14 12 49 34 78 49 46
22 62 25 125 21 114 -8 199 -65 249 -168 32 -66 31 -178 -2 -243 -74 -148
-245 -211 -383 -142 l-52 27 -391 -1 c-388 0 -392 1 -425 23 -54 36 -111 49
-181 44 -244 -20 -359 -307 -194 -486 95 -103 237 -124 370 -54 l51 27 705 -1
705 -1 45 33 c116 83 225 86 336 11 85 -57 127 -139 126 -248 -1 -204 -230
-346 -411 -255 l-53 26 -1337 0 -1338 0 -63 32 c-55 29 -73 33 -139 33 -87 0
-146 -24 -208 -84 -141 -140 -97 -394 82 -471 90 -39 204 -31 287 20 32 20 46
20 905 20 l873 0 46 35 c54 42 139 68 199 63 56 -6 142 -48 183 -91 82 -85
102 -229 46 -335 -73 -140 -246 -197 -384 -128 l-52 26 -426 -1 -425 0 -62 31
c-208 105 -441 -41 -431 -270 6 -113 66 -206 164 -252 85 -39 224 -28 291 24
23 17 80 18 1472 18 797 0 1449 -3 1449 -6 0 -11 -152 -191 -265 -313 -83 -91
-569 -577 -640 -641 -27 -25 -97 -88 -155 -140 -58 -51 -107 -96 -110 -99 -3
-4 -36 -33 -75 -66 -38 -33 -71 -63 -73 -67 -2 -5 -9 -8 -15 -8 -23 0 -307
185 -775 503 -62 42 -115 77 -118 77 -18 0 288 -313 421 -431 33 -29 97 -87
143 -130 46 -42 127 -112 180 -156 53 -43 108 -88 121 -99 l23 -22 132 81
c322 197 519 336 799 563 280 229 459 396 682 639 55 60 107 116 115 124 15
16 153 182 198 238 77 97 212 310 270 428 85 174 196 483 237 665 2 8 15 65
30 125 24 106 30 136 41 200 2 17 9 56 15 87 5 32 12 76 14 99 4 42 10 87 21
164 10 69 14 98 25 160 14 74 14 76 28 205 7 58 14 121 16 140 12 99 20 363
20 685 0 370 -5 513 -30 800 -3 28 -7 86 -11 130 -3 44 -7 91 -10 105 -2 14
-7 56 -10 95 -13 143 -18 160 -39 159 -20 -2 -68 -10 -117 -20 -15 -3 -39 -7
-55 -9 -15 -2 -68 -11 -118 -20 -49 -9 -101 -18 -115 -20 -44 -8 -103 -14
-190 -20 -47 -4 -101 -8 -120 -10 -260 -26 -498 -26 -620 -1 -365 76 -718 240
-1036 482 -68 52 -125 94 -127 94 -1 0 -14 -10 -28 -23z m-2236 -1756 c60 -39
76 -92 46 -155 -10 -23 -32 -50 -48 -59 -115 -68 -241 81 -154 183 44 53 105
65 156 31z m803 -872 c37 -11 68 -43 81 -84 14 -45 5 -72 -36 -115 -33 -34
-44 -40 -80 -40 -133 0 -175 176 -57 233 37 17 52 18 92 6z m-1202 -874 c68
-33 91 -131 43 -186 -45 -52 -109 -64 -160 -30 -60 39 -77 97 -45 160 31 63
98 86 162 56z m946 -871 c57 -34 80 -117 45 -170 -22 -34 -73 -64 -109 -64
-69 0 -134 78 -121 146 3 20 21 48 42 69 29 28 44 35 75 35 22 0 52 -7 68 -16z"/>
</g>
</svg>
