<?xml version="1.0" encoding="utf-8"?>
<!-- Generator: Adobe Illustrator 22.0.0, SVG Export Plug-In . SVG Version: 6.00 Build 0)  -->
<svg version="1.1" id="Layer_1" xmlns="http://www.w3.org/2000/svg" xmlns:xlink="http://www.w3.org/1999/xlink" x="0px" y="0px"
	 viewBox="0 0 258.1 71.8" style="enable-background:new 0 0 258.1 71.8;" xml:space="preserve">
<path d="M250.6,36.9c-0.5-1.1-2.8-8.9-7.9-12.7c-5.8-4.4-14.2,4.7-15.2,5.7c-1.7,1.7-3.4,0.8-3.9,0.4c-3.6-3.3-7.6-4.7-7.6-4.7
	s-1.8-4-6.5-8.4c-4.9-4.5-10.7-5.1-13.8-5.6l-0.2,0.3c3.2,2.1,8.4,11.1,6.1,11.1c-2.4,0-6-1-11-3.3c-5.5-2.5-17-10.4-20.4-12.8
	L170,6.9c2,2.7,7.6,9.7,6.2,12c-1.6,2.7-9.9,5.9-13,7.1l0.1,0.4c5.5-0.2,27.3-1,32.7,0.8c6.2,2.1-9.1,5.3-7.1,12.8
	c1.9,7.5,11.3,9.9,13.1,11.9c1.8,2-1.8,5.2-1.8,5.2l2.1,1.9c0,0,1.9,0.2,5.1-2.2c3.3-2.5,26.4,12.1,29,5.3
	c2.5-6.5-0.5-12.2-0.5-12.2l-0.3,0.2c1.8,4.1,0.7,12.5-2.4,11.1c-0.3-0.1-0.6-0.2-0.8-0.4c1.7-6-1-10.9-1-10.9l-0.3,0.2
	c1.3,2.9,1.1,7.9-0.2,10.1c-0.9-0.4-1.8-0.7-2.7-1c0.8-5.2-1.3-9.2-1.3-9.2l-0.3,0.2c1,2.3,1.1,6.1,0.4,8.6
	c-10.3-3.6-17.4-3.8-17.4-3.8s14.2-17,16.2-17c3.1,0.1,4.6,9.3,4.6,9.3l0.6-0.1c0,0-0.6-5.6-2.9-10c-0.5-0.9-0.6-1.2-0.7-1.4
	c-0.1-0.5,1.3-2.7,2.1-3.8c0.7-0.9,8.5-11.6,13.5-7.1c5,4.5,6.7,10.6,6.8,11.9c0.1,1.3-1.5,5.6,1.3,4.9
	C254,41.2,251.1,37.8,250.6,36.9z"/>
<radialGradient id="SVGID_1_" cx="355.3524" cy="93.6621" r="21.7386" gradientTransform="matrix(-0.9677 -0.252 -0.252 0.9677 564.9033 29.7199)" gradientUnits="userSpaceOnUse">
	<stop  offset="0" style="stop-color:#FFFFFF"/>
	<stop  offset="1" style="stop-color:#000000"/>
</radialGradient>
<path style="fill:url(#SVGID_1_);" d="M193.6,43.3c1.9,3.5,9.5,6.3,10.4,7.5c0.9,1.3-0.4,5.1-0.4,5.1l0.5,0.5
	c0,0,16.5-17.7,17.5-18.4c0.9-0.8,3.3-3.3,1.6-5.2c-4.7-5-9.5-6.1-9.5-6.1s-1.3-4.3-5-8c-2.9-2.9-7.7-4-7.7-4s6.9,10.5,2.7,10
	c-3.4-0.4-7.4-1.2-12.9-3.4c-5.6-2.3-13.7-7.7-13.7-7.7s2.4,4.3,1.5,6.2c-1.3,2.9-6.8,4.3-6.8,4.3s21.6-1.5,28.3,3.2
	C205,30.7,188.1,33.1,193.6,43.3z"/>
<path d="M214.7,32.1c-0.7,0-1.3,0.4-1.8,1c-1.4,1.7-1.3,4.2,0.4,5.6c0.8,0.7,1.8,1,2.9,1c1.1-0.1,2-0.6,2.7-1.4
	c0.3-0.4,0.5-0.8,0.7-1.2c0.1-0.2,0.1-0.5,0.1-0.8c-0.1-1.1-1-2.1-1.8-2.8C216.9,32.8,215.8,32,214.7,32.1z"/>
<path style="fill:#CAD400;" d="M215.2,37.7c-1-0.8-1.1-2.3-0.2-3.3c0.3-0.4,0.6-0.4,0.6-0.4c0.5,0,1.3,0.6,1.9,1.1l0,0
	c0.6,0.5,1.3,1.2,1.3,1.7c0,0.1,0,0.3-0.3,0.7c-0.4,0.5-1,0.8-1.6,0.8C216.3,38.3,215.7,38.1,215.2,37.7z"/>
<path d="M218.2,33.6L218.2,33.6L218.2,33.6z"/>
<path d="M21,54.7c-2.6,0-10.1-0.1-10.1-0.1c-0.9,0-2.1,0.1-3.8,0.2l-0.7,0l0-0.6c0.2,0,0.3,0,0.5,0c2.4-0.2,3.2-0.9,3.2-2.9v-24
	c0-2-0.8-2.7-3.2-2.9c-0.2,0-0.3,0-0.5,0l0-0.6l0.7,0c1.7,0.1,2.9,0.2,3.8,0.2c0,0,8-0.2,10.1-0.2c9.8,0,17.7,6,17.7,14.9
	C38.7,47.3,31.3,54.7,21,54.7z M20.9,25.1c-1.2,0-7.4,0.2-7.4,0.2v23.8c0,3.4,1.2,4.4,7.4,4.4c8,0,13.8-6.8,13.8-14.6
	C34.8,30.6,28.5,25.1,20.9,25.1z"/>
<path d="M55.4,54.6c0,0-3.5-0.1-5.6-0.1h-5.9c-0.9,0-1.6,0.1-3.4,0.2l-0.7,0l0-0.7c0.2,0,0.3,0,0.5,0c2.4-0.2,2.7-0.9,2.7-2.1v-15
	c0-2.7-0.3-3.4-2.7-3.7c-0.2,0-0.3,0-0.5,0l0-0.7l0.7,0c1.7,0.1,2.4,0.2,3.4,0.2h11.4l0.8,4l-0.8,0c-0.6-2.3-0.9-2.4-3-2.5l-6.2-0.1
	v8.4h8v1h-8v7.6c0,1.8,0.1,1.9,1.7,1.9h3.8c2.6,0,3.1-0.6,4.4-2.8l1.1-0.1C55.8,52.5,55.8,53.3,55.4,54.6z"/>
<path d="M74.2,54.6c0,0-3.5-0.1-5.6-0.1h-5.9c-0.9,0-1.6,0.1-3.4,0.2l-0.7,0l0-0.7c0.2,0,0.3,0,0.5,0c2.4-0.2,2.7-0.9,2.7-2.1v-15
	c0-2.7-0.3-3.4-2.7-3.7c-0.2,0-0.3,0-0.5,0l0-0.7l0.7,0c1.7,0.1,2.4,0.2,3.4,0.2h11.4l0.8,4l-0.8,0c-0.6-2.3-0.9-2.4-3-2.5l-6.2-0.1
	v8.4h8v1h-8v7.6c0,1.8,0.1,1.9,1.7,1.9h3.8c2.6,0,3.1-0.6,4.4-2.8l1.1-0.1C74.6,52.5,74.6,53.3,74.2,54.6z"/>
<path d="M85.4,45.3c-0.3,0-0.5,0-1,0v-0.6c0,0,0.3,0,0.6,0c3.4,0,6.4-2.1,6.4-5.7c0-2.7-2-5.2-5.9-5.2c-2,0-2.4,0-2.4,1.5v15.9
	c0,2,0.3,2.7,2.7,2.9c0.2,0,0.3,0,0.5,0l0,0.7l-0.7,0c-1.7-0.1-2.4-0.2-3.4-0.2h-1.6c-0.9,0-1.6,0.1-3.4,0.2l-0.7,0l0-0.7
	c0.2,0,0.3,0,0.5,0c2.4-0.2,2.7-0.9,2.7-2.9v-15c0-2-0.3-2.7-2.7-2.9c-0.2,0-0.3,0-0.5,0l0-0.7l0.7,0c1.7,0.1,2.4,0.2,3.4,0.2h0.3
	c0.6,0,1.9-0.1,5.5-0.1c5,0,7.9,2.5,7.9,5.5C94.6,42.4,90.3,45.3,85.4,45.3z"/>
<path d="M103.6,64c-3.8,0-6.3-1.4-7.4-1.8L95.5,56h0.7c0.8,4.9,3,6.9,7.4,6.9c4,0,7.3-2.1,7.4-5.8c0.2-3.8-2.3-6.1-7.7-9.2
	c-3.6-2.1-6.8-4.7-6.6-8.2c0.2-4.8,3.9-7.6,9.2-7.6c3.6,0,4.3,1.4,7.4,1.4l0.5,4.7h-0.4c-1.5-4.5-4.9-4.9-7.8-4.9
	c-3.2,0-5.5,2.2-5.7,5.1c-0.2,3.3,2.7,4.9,5.9,6.8c4.8,2.8,9.1,5.5,8.9,10.7C114.5,59.9,109.8,64,103.6,64z"/>
<path d="M125.3,45.3c-0.3,0-0.5,0-1,0v-0.6c0,0,0.3,0,0.6,0c3.4,0,6.4-2.1,6.4-5.7c0-2.7-2-5.2-5.9-5.2c-2,0-2.4,0-2.4,1.5v15.9
	c0,2,0.3,2.7,2.7,2.9c0.2,0,0.3,0,0.5,0l0,0.7l-0.7,0c-1.7-0.1-2.4-0.2-3.4-0.2h-1.6c-0.9,0-1.6,0.1-3.4,0.2l-0.7,0l0-0.7
	c0.2,0,0.3,0,0.5,0c2.4-0.2,2.7-0.9,2.7-2.9v-15c0-2-0.3-2.7-2.7-2.9c-0.2,0-0.3,0-0.5,0l0-0.7l0.7,0c1.7,0.1,2.4,0.2,3.4,0.2h0.3
	c0.6,0,1.9-0.1,5.5-0.1c5,0,7.9,2.5,7.9,5.5C134.5,42.4,130.2,45.3,125.3,45.3z"/>
<path d="M157,53.8c-2.4-0.2-2.7-0.8-2.7-2.8v-0.3c-0.2-10.1-2.8-16.5-9.2-20.2c-6.2,3.7-9,10.1-9.1,20.3v0.2c0,2-0.3,2.7-2.7,2.9
	c-0.2,0-0.3,0-0.5,0l0,0.7l0.7,0c1.7-0.1,2.4-0.2,3.4-0.2h1.8c0.9,0,1.6,0.1,3.4,0.2l0.7,0l0-0.7c-0.2,0-0.3,0-0.5,0
	c-2.4-0.2-2.7-0.9-2.7-2.9v-0.2c0-1,0-2.7,0.1-4.1H151c0.1,1.3,0.1,3,0.1,4v0.3c0,2-0.3,2.7-2.7,2.9c-0.2,0-0.3,0-0.5,0l0,0.7l0.7,0
	c1.7-0.1,2.4-0.2,3.4-0.2h1.8c0.9,0,2.3,0,3.4,0.1c0.2,0,0.4,0,0.6,0c1.3-0.1,2.4-0.1,3.4-0.1h1.6c0.9,0,1.6,0.1,3.4,0.2l0.7,0
	l0-0.7c-0.2,0-0.3,0-0.5,0c-2.4-0.2-2.7-0.9-2.7-2.9v-5.1h3.1c0.5,0.3,0.9,0.5,1.1,0.7c1.9,1.5,16.6,17.2,25.9,17.2
	c2.9,0,5-0.8,5.4-1.8c-2,0.8-4.8,0.8-7,0.1c-7-2.4-18.9-14.9-21.8-17c2.1-0.8,4.7-2.5,4.7-6.6c0-3-3-5.9-7.9-5.9
	c-3.6,0-4.9,0.1-5.5,0.1h-0.3c-0.9,0-1.6-0.1-3.4-0.2l-0.7,0l0.1,0.7c0.2,0,0.3,0,0.5,0c2.4,0.2,2.7,0.9,2.7,3.7v15
	c0,1.2-0.3,1.8-2.7,2C157.3,53.9,157.1,53.9,157,53.8z M139.5,45.7c0.7-7.8,2.9-12.4,5.7-13.9c2.8,1.6,5,6.2,5.7,13.9H139.5z
	 M163.2,44.9v-9.7c0-1.5,0.4-1.5,2.4-1.5c3.9,0,5.9,2.9,5.9,5.6c0,3.7-1.7,4.9-3.9,5.7H163.2z"/>
</svg>
