<svg xmlns="http://www.w3.org/2000/svg" viewBox="0 0 200 50"><path d="M34 26.1c-.5 0-.9-.4-.9-.9s.4-.9.9-.9.9.4.9.9-.4.9-.9.9zm-4.3-7.5c0-.5-.4-.9-.9-.9s-.9.4-.9.9.4.9.9.9.9-.4.9-.9zm-1.6 13.1c0-.5-.4-.9-.9-.9s-.9.4-.9.9.4.9.9.9.9-.4.9-.9zM51 13.5c.1 3.1 0 6.2-.4 9.4-.4 3.1-.9 6.3-2.1 9.2-1.2 3-3.3 5.6-5.5 7.9-1.4 1.5-2.9 2.8-4.5 4.1-2.3 1.8-4.8 3.5-7.3 5-1.1-.9-2.1-1.7-3.1-2.6-1.3-1.3-2.6-2.5-3.8-3.9 2.3 1.5 4.5 3.1 6.9 4.5 2.4-2 4.6-4.1 6.8-6.3 1.2-1.2 2.3-2.5 3.3-3.9H19.5c-.4.3-.9.5-1.4.5-1.2 0-2.2-1-2.2-2.2s1-2.2 2.2-2.2c.5 0 1 .2 1.4.5H26c.4.3.8.4 1.3.4 1.2 0 2.2-1 2.2-2.2 0-1.2-1-2.2-2.2-2.2-.6 0-1.2.3-1.6.7H12.4c-.4.3-.9.5-1.4.5-1.2 0-2.2-1-2.2-2.2s1-2.2 2.2-2.2c.5 0 1 .2 1.4.5h20.3c.4.3.8.4 1.3.4 1.2 0 2.2-1 2.2-2.2 0-1.2-1-2.2-2.2-2.2-.6 0-1.2.3-1.6.7H21.6c-.4.3-.9.5-1.4.5-1.2 0-2.2-1-2.2-2.2s1-2.2 2.2-2.2c.5 0 1 .2 1.4.5h5.9c.4.3.8.4 1.3.4 1.2 0 2.2-1 2.2-2.2 0-1.2-1-2.2-2.2-2.2-.6 0-1.2.3-1.6.7H15.3c-.4.3-.9.5-1.4.5-1.2 0-2.2-1-2.2-2.2s1-2.2 2.2-2.2c.5 0 1 .2 1.4.5h31.6c0-1.5-.1-3.1-.1-4.6-1.1 0-2.3.1-3.4.1-.8 0-1.6 0-2.4-.1-3.6-.5-7-2.1-9.7-4.5-2.4 1.7-5.2 3-8.2 3.3-1.2.1-2.4.1-3.7 0-1.7-.2-3.5-.4-5.2-.9 1.6.1 3.2 0 4.8-.1 1-.1 2-.2 3-.4 1.7-.3 3.4-1.1 4.9-2 1.7-1 3-2.3 4.4-3.6.7.5 1.4 1.1 2.2 1.6 1.5 1 3.1 1.9 4.9 2.4 1.4.4 2.8.7 4.3.6l4.2-.3c1.2-.1 2.5-.4 3.7-.6.3 2.7.5 5.4.6 8v.2c-.2 1.1-.2 1.1-.2 1zm-36.2 1.9c0-.5-.4-.9-.9-.9s-.9.4-.9.9.4.9.9.9c.5.1.9-.3.9-.9zm6.3 6.6c0-.5-.4-.9-.9-.9s-.9.4-.9.9.4.9.9.9c.5.1.9-.4.9-.9zm-9.2 6.6c0-.5-.4-.9-.9-.9s-.9.4-.9.9.4.9.9.9.9-.4.9-.9zm7.1 6.5c0-.5-.4-.9-.9-.9s-.9.4-.9.9.4.9.9.9c.4 0 .9-.4.9-.9zm96.9-7.2c.1.1.3.3.4.5.1.2.3.5.4.8l1.8 3.9h-4.6l-1.6-3.6c-.1-.3-.2-.5-.4-.6-.2-.1-.4-.2-.8-.2h-1.3v4.4h-4.4v-15h7.9c1.8 0 3.1.5 4 1.5.9 1 1.4 2.2 1.4 3.9 0 1-.2 1.9-.7 2.7-.6.7-1.2 1.3-2.1 1.7zm-1.7-4.4c0-1.3-.6-2-1.9-2h-2.5v3.9h2.3c.7 0 1.2-.1 1.5-.5.4-.3.6-.8.6-1.4zm18.3-3.6c1.2 1.2 1.8 3.1 1.8 5.8 0 2.6-.6 4.4-1.8 5.6-1.2 1.2-3.1 1.8-5.5 1.8h-6.8v-15h6.8c2.5 0 4.3.6 5.5 1.8zm-2.7 5.8c0-1.1-.1-1.9-.3-2.6-.2-.6-.6-1.1-1.1-1.3s-1.1-.4-1.9-.4h-1.8v8.3h1.8c.8 0 1.4-.1 1.9-.3s.9-.6 1.1-1.2.3-1.4.3-2.5zm32.3.4l-5.7-8h-3.7v15.1h4.4v-8l5.6 8h3.8V18.1h-4.4v8zm6.5 7.1h4.4V18.1h-4.4v15.1zm17-7.6l5.4-7.4h-5.3l-2.8 3.9-2.8-3.9h-5.3l5.4 7.4-5.6 7.6h5.3l2.9-4.1 3 4.1h5.3l-5.5-7.6zm-36.5-5.8c1.3 1.2 1.9 3.2 1.9 5.9 0 2.6-.6 4.6-1.9 5.8-1.3 1.2-3.3 1.8-5.8 1.8s-4.5-.6-5.8-1.8c-1.3-1.2-1.9-3.2-1.9-5.8 0-2.8.6-4.8 1.9-6 1.3-1.2 3.2-1.8 5.8-1.8s4.5.6 5.8 1.9zm-2.6 5.8c0-1.5-.2-2.5-.7-3.1-.5-.6-1.4-.9-2.5-.9-1.2 0-2 .3-2.5.9-.5.6-.8 1.7-.7 3.1 0 1.4.3 2.4.8 3 .5.6 1.3.9 2.4.9s1.9-.3 2.4-.9c.6-.6.8-1.5.8-3zm-59-7.4h-4.4V27c0 1.8-.9 2.8-2.7 2.8-1.8 0-2.7-.9-2.7-2.8v-8.9h-4.4v9.2c0 1.9.6 3.4 1.9 4.5 1.3 1.1 3 1.6 5.2 1.6 1.4 0 2.7-.2 3.7-.7 1.1-.5 1.9-1.2 2.5-2 .6-.9.9-2 .9-3.3v-9.2zm-22.5 9h3v2.2c-.7.2-1.4.3-2.1.3-1.3 0-2.2-.3-2.8-.9-.6-.6-.9-1.6-.9-3 0-1.5.3-2.5 1.1-3.2.7-.7 1.8-1 3.3-1 1.7 0 3.2.2 4.4.7v-3.7c-1.3-.4-2.9-.6-4.7-.6-2.8 0-4.9.7-6.4 2-1.5 1.4-2.2 3.3-2.2 5.8-.1 2.4.6 4.3 2 5.6s3.5 1.9 6.1 1.9c1.3 0 2.4-.1 3.4-.4 1-.2 1.8-.6 2.4-1v-7.6H65v2.9zm33-9.1l5.8 15.1h-4.6L97.9 30h-4.6l-1.2 3.2h-4.6l5.8-15.1H98zm-.7 8.7l-1.7-4.4-1.7 4.4h3.4z" fill="#0074bb"/></svg>