<?xml version="1.0" encoding="utf-8"?>
<!-- Generator: Adobe Illustrator 22.0.0, SVG Export Plug-In . SVG Version: 6.00 Build 0)  -->
<svg version="1.1" id="Layer_1" xmlns="http://www.w3.org/2000/svg" xmlns:xlink="http://www.w3.org/1999/xlink" x="0px" y="0px"
	 viewBox="0 0 430 200" style="enable-background:new 0 0 430 200;" xml:space="preserve">
<style type="text/css">
	.st0{fill:#383838;}
	.st1{fill:#4D4D4D;}
	.st2{fill:#FFFFFF;}
	.st3{fill:#0E72C4;}
	.st4{fill:#08406E;}
	.st5{fill:#60C2F3;}
	.st6{fill:url(#SVGID_1_);}
	.st7{fill:url(#SVGID_2_);}
	.st8{fill:#27E800;}
	.st9{fill:#1FB800;}
	.st10{fill:#224869;}
	.st11{fill:#0A1B2F;}
</style>
<rect x="0" y="0" class="st0" width="430" height="200"/>
<path class="st1" d="M170.4,200h-6L0,105.1v-3.5L170.4,200z M0,25.6v3.5L296.2,200h6L0,25.6z M0,63.6v3.5L230.3,200h6L0,63.6z
	 M32.7,200h6L0,177.7v3.5L32.7,200z M0,139.7v3.5L98.5,200h6L0,139.7z M87.4,0h-6l346.5,200h2.1v-2.3L87.4,0z M416.8,0h-6L430,11.1
	V7.6L416.8,0z M350.9,0h-6L430,49.1v-3.5L350.9,0z M285.1,0h-6L430,87.1v-3.5L285.1,0z M219.2,0h-6L430,125.1v-3.5L219.2,0z
	 M153.3,0h-6L430,163.2v-3.5L153.3,0z M21.5,0h-6l346.5,200h6L21.5,0z"/>
<g>
	<polygon class="st2" points="99.2,92.4 57.2,68.1 18.7,90.5 60.4,115 	"/>
	<polygon class="st3" points="18.7,90.5 18.7,102.2 55.8,123.6 60.4,115 	"/>
	<path class="st4" d="M55.8,134v-23.3l92.2,7c0,6.2,0,18.1,0,24.5c0,6.4-3.1,12.8-9.4,16.5l-0.5,0.3c-12.2,7.1-27.3,7.2-39.6,0.1
		L55.8,134z"/>
	<path class="st5" d="M55.8,110.7l48.4-28.3l34.3,20.2c12.6,7.3,12.6,25.4,0.1,32.8l-0.5,0.3c-12.2,7.1-27.3,7.2-39.6,0.1
		L55.8,110.7z"/>
	<polygon class="st4" points="42.8,94.6 50.5,90.1 58,94.5 50.3,99 	"/>
	<polygon class="st4" points="57.6,86.1 65.3,81.6 72.9,86 65.2,90.5 	"/>
	<path class="st4" d="M106.9,113.7c-0.3-0.2-0.4-0.5,0-0.7c0.3-0.2,0.9-0.2,1.3,0c0.3,0.2,0.4,0.5,0,0.7
		C107.8,113.9,107.2,113.9,106.9,113.7z M109,109.2c0.3-0.2,0.3-0.5,0-0.7c-0.3-0.2-0.9-0.2-1.3,0c-0.3,0.2-0.3,0.5,0,0.7
		C108.1,109.4,108.7,109.4,109,109.2z M99.2,113.6c0.3-0.2,0.3-0.5,0-0.7s-0.9-0.2-1.3,0c-0.3,0.2-0.3,0.5,0,0.7
		S98.8,113.8,99.2,113.6z M127.3,115.2c0,0,0,0-0.1,0.1c-0.5,0.3-0.5,0.3-0.4,0.2c-2,1.2-4.2,2.4-6.5,3.5c-2.3,1.1-4.8,2.1-7.6,2.7
		c-2.8,0.7-5.9,0.9-9,0.9c-1.9,0-3.8,0-5.7-0.2c-2.8-0.2-5.6-0.5-8.3-0.9c-0.2-0.7-0.3-1.5-0.3-2.2c-0.1-1,0-2,0-2.9
		c0.5,1.5,0.9,2.9,1.6,4.4c2.9,0.2,5.8,0.2,8.8,0.2c1.6,0,3.2-0.1,4.8-0.2l-14.7-8.5c-0.5,0-1-0.1-1.3-0.3c-0.8-0.5-0.8-1.2,0-1.7
		c0.8-0.5,2.1-0.5,2.9,0c0.4,0.2,0.6,0.5,0.6,0.8l4.4,2.5c0.1,0.2,0.3,0.5,0.6,0.6c0.8,0.5,2.1,0.5,2.9,0c0.8-0.5,0.8-1.2,0-1.7
		c-0.4-0.2-1-0.4-1.6-0.3l-8.9-5.1c-0.5,0-1-0.1-1.3-0.3c-0.8-0.5-0.8-1.2,0-1.7c0.8-0.5,2.1-0.5,2.9,0c0.4,0.2,0.6,0.5,0.6,0.8
		l13.6,7.9c0.1,0.2,0.3,0.5,0.6,0.6c0.8,0.5,2.1,0.5,2.9,0c0.8-0.5,0.8-1.2,0-1.7c-0.4-0.2-1-0.4-1.6-0.3l-7.2-4.2
		c-0.5,0-1-0.1-1.3-0.3c-0.8-0.5-0.8-1.2,0-1.7c0.8-0.5,2.1-0.5,2.9,0c0.4,0.2,0.6,0.5,0.6,0.8l4,2.3c0.1,0.2,0.3,0.5,0.6,0.6
		c0.8,0.5,2.1,0.5,2.9,0c0.8-0.5,0.8-1.2,0-1.7c-0.4-0.2-1-0.4-1.6-0.3l-8-4.6c-0.5,0-1-0.1-1.3-0.3c-0.8-0.5-0.8-1.2,0-1.7
		c0.8-0.5,2.1-0.5,2.9,0c0.4,0.2,0.6,0.5,0.6,0.8l21.2,12.2c1-0.6,2-1.2,3-1.8c-0.8-0.4-1.6-0.9-2.3-1.3c-0.5-0.3-1.1-0.6-1.5-1
		c-2.1-1.6-3.3-3.5-3.5-5.5c-2.8-0.3-5.5-0.9-7.7-1.9c-0.9-0.4-1.7-0.9-2.4-1.4c-1-0.8-2.1-1.5-2.9-2.4c1,0.6,2.1,1.2,3.3,1.8
		c0.8,0.4,1.5,0.7,2.3,1c1.4,0.6,3,0.9,4.6,1.2c1.8,0.3,3.5,0.3,5.3,0.3c0.1,0.5,0.2,1,0.4,1.5c0.3,1,0.9,1.9,1.7,2.8
		c0.7,0.7,1.4,1.4,2.5,1.9c1,0.5,2,1,3,1.5c0.9,0.4,1.9,0.8,2.9,1.2C130.6,113,129,114.1,127.3,115.2z M101.1,101.4
		c-0.4-0.2-0.9-0.2-1.3,0c-0.4,0.2-0.4,0.5,0,0.7c0.4,0.2,0.9,0.2,1.3,0C101.4,102,101.4,101.7,101.1,101.4z M100.9,106.4
		c-0.4-0.2-0.9-0.2-1.3,0c-0.4,0.2-0.4,0.5,0,0.7c0.4,0.2,0.9,0.2,1.3,0C101.3,107,101.3,106.6,100.9,106.4z M90.4,105.4
		c-0.4-0.2-0.9-0.2-1.3,0c-0.4,0.2-0.4,0.5,0,0.7c0.4,0.2,0.9,0.2,1.3,0C90.7,105.9,90.7,105.6,90.4,105.4z M90.7,110.7
		c-0.4-0.2-0.9-0.2-1.3,0c-0.4,0.2-0.4,0.5,0,0.7c0.3,0.2,0.9,0.2,1.3,0C91.1,111.2,91.1,110.9,90.7,110.7z"/>
	<path class="st2" d="M106.9,112.5c-0.3-0.2-0.4-0.5,0-0.7c0.3-0.2,0.9-0.2,1.3,0c0.3,0.2,0.4,0.5,0,0.7
		C107.8,112.7,107.2,112.7,106.9,112.5z M109,108c0.3-0.2,0.3-0.5,0-0.7c-0.3-0.2-0.9-0.2-1.3,0c-0.3,0.2-0.3,0.5,0,0.7
		C108.1,108.2,108.7,108.2,109,108z M99.2,112.4c0.3-0.2,0.3-0.5,0-0.7c-0.3-0.2-0.9-0.2-1.3,0c-0.3,0.2-0.3,0.5,0,0.7
		C98.3,112.6,98.8,112.6,99.2,112.4z M127.3,113.9c0,0,0,0-0.1,0.1c-0.5,0.3-0.5,0.3-0.4,0.2c-2,1.2-4.2,2.4-6.5,3.5
		c-2.3,1.1-4.8,2.1-7.6,2.7c-2.8,0.7-5.9,0.9-9,0.9c-1.9,0-3.8,0-5.7-0.2c-2.8-0.2-5.6-0.5-8.3-0.9c-0.2-0.7-0.3-1.5-0.3-2.2
		c-0.1-1,0-2,0-2.9c0.5,1.5,0.9,2.9,1.6,4.4c2.9,0.2,5.8,0.2,8.8,0.2c1.6,0,3.2-0.1,4.8-0.2L89.9,111c-0.5,0-1-0.1-1.3-0.3
		c-0.8-0.5-0.8-1.2,0-1.7s2.1-0.5,2.9,0c0.4,0.2,0.6,0.5,0.6,0.8l4.4,2.5c0.1,0.2,0.3,0.5,0.6,0.6c0.8,0.5,2.1,0.5,2.9,0
		c0.8-0.5,0.8-1.2,0-1.7c-0.4-0.2-1-0.4-1.6-0.3l-8.9-5.1c-0.5,0-1-0.1-1.3-0.3c-0.8-0.5-0.8-1.2,0-1.7c0.8-0.5,2.1-0.5,2.9,0
		c0.4,0.2,0.6,0.5,0.6,0.8l13.6,7.9c0.1,0.2,0.3,0.5,0.6,0.6c0.8,0.5,2.1,0.5,2.9,0c0.8-0.5,0.8-1.2,0-1.7c-0.4-0.2-1-0.4-1.6-0.3
		l-7.2-4.2c-0.5,0-1-0.1-1.3-0.3c-0.8-0.5-0.8-1.2,0-1.7c0.8-0.5,2.1-0.5,2.9,0c0.4,0.2,0.6,0.5,0.6,0.8l4,2.3
		c0.1,0.2,0.3,0.5,0.6,0.6c0.8,0.5,2.1,0.5,2.9,0s0.8-1.2,0-1.7c-0.4-0.2-1-0.4-1.6-0.3l-8-4.6c-0.5,0-1-0.1-1.3-0.3
		c-0.8-0.5-0.8-1.2,0-1.7c0.8-0.5,2.1-0.5,2.9,0c0.4,0.2,0.6,0.5,0.6,0.8l21.2,12.2c1-0.6,2-1.2,3-1.8c-0.8-0.4-1.6-0.9-2.3-1.3
		c-0.5-0.3-1.1-0.6-1.5-1c-2.1-1.6-3.3-3.5-3.5-5.5c-2.8-0.3-5.5-0.9-7.7-1.9c-0.9-0.4-1.7-0.9-2.4-1.4c-1-0.8-2.1-1.5-2.9-2.4
		c1,0.6,2.1,1.2,3.3,1.8c0.8,0.4,1.5,0.7,2.3,1c1.4,0.6,3,0.9,4.6,1.2c1.8,0.3,3.5,0.3,5.3,0.3c0.1,0.5,0.2,1,0.4,1.5
		c0.3,1,0.9,1.9,1.7,2.8c0.7,0.7,1.4,1.4,2.5,1.9c1,0.5,2,1,3,1.5c0.9,0.4,1.9,0.8,2.9,1.2C130.6,111.7,129,112.9,127.3,113.9z
		 M101.1,100.2c-0.4-0.2-0.9-0.2-1.3,0c-0.4,0.2-0.4,0.5,0,0.7c0.4,0.2,0.9,0.2,1.3,0C101.4,100.7,101.4,100.4,101.1,100.2z
		 M100.9,105.2c-0.4-0.2-0.9-0.2-1.3,0c-0.4,0.2-0.4,0.5,0,0.7c0.4,0.2,0.9,0.2,1.3,0C101.3,105.7,101.3,105.4,100.9,105.2z
		 M90.4,104.2c-0.4-0.2-0.9-0.2-1.3,0c-0.4,0.2-0.4,0.5,0,0.7c0.4,0.2,0.9,0.2,1.3,0C90.7,104.7,90.7,104.4,90.4,104.2z M90.7,109.4
		c-0.4-0.2-0.9-0.2-1.3,0c-0.4,0.2-0.4,0.5,0,0.7c0.3,0.2,0.9,0.2,1.3,0C91.1,109.9,91.1,109.6,90.7,109.4z"/>
</g>
<g>
	<path class="st5" d="M177.8,74.3L211,55c6.6-3.9,14.9-3.9,21.6,0l197.5,114l0-15L239,43.7c-10.7-6.2-23.9-6.1-34.6,0.1L171.3,63
		c-5.9,3.4-9.4,9.5-9.4,16.4c0,6.8,3.5,12.9,9.4,16.3l72.1,41.6c2.7,1.5,2.9,4.1,2.9,5.1c0,1-0.3,3.6-2.9,5.1L209.9,167
		c-6.7,3.9-15,3.9-21.7-0.1l-45-26.5l0,0c-0.8-0.5-2-0.4-3.3,0.3c-2.5,1.5-4.6,5-4.6,7.9c0,1.4,0.5,2.4,1.3,2.9l0,0l45,26.5
		c10.7,6.3,24.1,6.4,34.9,0.1l33.6-19.5c5.9-3.4,9.4-9.5,9.4-16.4s-3.5-12.9-9.4-16.3l-72.1-41.6c-2.7-1.5-2.9-4.1-2.9-5.1
		C174.9,78.3,175.2,75.8,177.8,74.3z"/>
	<linearGradient id="SVGID_1_" gradientUnits="userSpaceOnUse" x1="297.1994" y1="84.2826" x2="322.2774" y2="100.0134">
		<stop  offset="0" style="stop-color:#60C2F3"/>
		<stop  offset="1" style="stop-color:#3E7E9E"/>
	</linearGradient>
	<polygon class="st6" points="300.1,79.1 293.3,89.9 311.6,100.7 319.3,90.1 	"/>
	<linearGradient id="SVGID_2_" gradientUnits="userSpaceOnUse" x1="388.953" y1="137.7356" x2="364.1912" y2="123.4671">
		<stop  offset="0" style="stop-color:#60C2F3"/>
		<stop  offset="1" style="stop-color:#3E7E9E"/>
	</linearGradient>
	<polygon class="st7" points="377.6,123.7 369.6,134.1 385.9,143.5 392.6,132.4 	"/>
</g>
<g>
	<path class="st8" d="M384.5,49.1l0.9-0.3l-5.9-4l0,0c-8-4.9-19.2-4.4-31.6,2.8c-24.2,14-43.9,47.9-43.9,75.7
		c0,13.1,4.4,22.5,11.5,27.3l0,0l6.3,4.3l0-1.4c7.3,2,16.3,0.4,26-5.2c24.2-14,43.9-47.9,43.9-75.7
		C391.8,62.4,389.1,54.4,384.5,49.1z M347.9,139.6c-20,11.6-32.6,2.6-32.6-20.3S331,73.1,351,61.6C371,50,384.2,54,384.2,77
		S367.9,128,347.9,139.6z"/>
	<path class="st9" d="M353.5,152c-24.2,14-43.9,2.7-43.9-25s19.7-61.7,43.9-75.7c24.2-14,43.9-2.7,43.9,25S377.6,138.1,353.5,152z
		 M353.5,60c-20,11.6-36.3,39.6-36.3,62.6s16.3,32.2,36.3,20.7c20-11.6,36.3-39.6,36.3-62.6S373.5,48.5,353.5,60z"/>
	
		<ellipse transform="matrix(0.5047 -0.8633 0.8633 0.5047 87.4312 354.6811)" class="st10" cx="352.8" cy="101.1" rx="51.2" ry="29.5"/>
	
		<ellipse transform="matrix(0.5047 -0.8633 0.8633 0.5047 87.1161 356.3113)" class="st11" cx="354.1" cy="102.2" rx="51.2" ry="29.5"/>
	<path class="st8" d="M373.3,80.6l-20.8,35.9l-3.9,6.7c-0.5,0.9-1.2,1.6-2,2.1c-0.7,0.4-1.4,0.5-2,0.2l-3.9-2.2l-10.4-5.9
		c-0.5-0.3-0.8-1-0.8-1.8s0.3-1.8,0.8-2.7l3.9-6.7c0.5-0.9,1.2-1.6,2-2.1c0.7-0.4,1.4-0.5,2-0.2l8.5,4.9l18.9-32.6
		c0.5-0.9,1.2-1.6,2-2.1c0.7-0.4,1.4-0.5,2-0.2l3.9,2.2c0.5,0.3,0.8,1,0.8,1.8C374.2,78.7,373.9,79.7,373.3,80.6z"/>
	<path class="st9" d="M374.9,81.6l-20.8,35.9l-3.9,6.7c-0.5,0.9-1.2,1.6-2,2.1c-0.7,0.4-1.4,0.5-2,0.2l-3.9-2.2l-10.4-5.9
		c-0.5-0.3-0.8-1-0.8-1.8s0.3-1.8,0.8-2.7l3.9-6.7c0.5-0.9,1.2-1.6,2-2.1c0.7-0.4,1.4-0.5,2-0.2l8.5,4.9l18.9-32.6
		c0.5-0.9,1.2-1.6,2-2.1c0.7-0.4,1.4-0.5,2-0.2l3.9,2.2c0.5,0.3,0.8,1,0.8,1.8C375.7,79.7,375.5,80.7,374.9,81.6z"/>
</g>
</svg>
