<?xml version="1.0" encoding="utf-8"?>
<!-- Generator: Adobe Illustrator 22.0.0, SVG Export Plug-In . SVG Version: 6.00 Build 0)  -->
<svg version="1.1" id="Layer_1" xmlns="http://www.w3.org/2000/svg" xmlns:xlink="http://www.w3.org/1999/xlink" x="0px" y="0px"
	 viewBox="0 0 430 200" style="enable-background:new 0 0 430 200;" xml:space="preserve">
<style type="text/css">
	.st0{clip-path:url(#SVGID_2_);fill:#1A1A1A;}
	.st1{clip-path:url(#SVGID_2_);}
	.st2{fill:#4F4F4F;}
	.st3{fill:#424242;}
	.st4{fill:#303030;}
	.st5{clip-path:url(#SVGID_2_);fill:#0F5900;}
	.st6{clip-path:url(#SVGID_2_);fill:#1FB800;}
	.st7{clip-path:url(#SVGID_2_);fill:#FFFFFF;}
	.st8{opacity:0.2;clip-path:url(#SVGID_2_);}
	.st9{fill:#FFFFFF;}
</style>
<g>
	<defs>
		<rect id="SVGID_1_" x="0" y="0" width="430" height="200"/>
	</defs>
	<clipPath id="SVGID_2_">
		<use xlink:href="#SVGID_1_"  style="overflow:visible;"/>
	</clipPath>
	<rect x="0" y="0" class="st0" width="430" height="200"/>
	<g class="st1">
		<polygon class="st2" points="58.3,-10.4 54,-12.7 25.4,4.1 42.9,14.1 		"/>
		<polygon class="st3" points="25.4,4.1 25.3,4.1 25.3,44 29.5,46.3 42.9,14.1 		"/>
		<polygon class="st4" points="58.3,-10.4 29.5,6.5 29.5,46.3 58.3,29.5 		"/>
		<polygon class="st2" points="19.3,12.4 15.1,10 -13.6,26.8 3.9,36.9 		"/>
		<polygon class="st3" points="-13.6,26.8 -13.7,26.9 -13.7,66.8 -9.5,69.1 3.9,36.9 		"/>
		<polygon class="st4" points="19.3,12.4 -9.5,29.2 -9.5,69.1 19.3,52.2 		"/>
		<polygon class="st2" points="19.3,-38.9 15.1,-41.2 -13.6,-24.5 3.9,-14.4 		"/>
		<polygon class="st3" points="-13.6,-24.5 -13.7,-24.4 -13.7,15.5 -9.5,17.8 3.9,-14.4 		"/>
		<polygon class="st4" points="19.3,-38.9 -9.5,-22.1 -9.5,17.8 19.3,1 		"/>
		<g>
			<polygon class="st2" points="97.2,-33.2 93,-35.5 64.4,-18.7 81.9,-8.6 			"/>
			<polygon class="st3" points="64.4,-18.7 64.3,-18.6 64.3,21.3 68.5,23.6 81.9,-8.6 			"/>
			<polygon class="st4" points="97.2,-33.2 68.5,-16.3 68.5,23.6 97.2,6.7 			"/>
		</g>
		<g>
			<polygon class="st2" points="136.2,-56 132,-58.3 103.4,-41.5 120.8,-31.4 			"/>
			<polygon class="st3" points="103.4,-41.5 103.2,-41.4 103.2,-1.5 107.5,0.8 120.8,-31.4 			"/>
			<polygon class="st4" points="136.2,-56 107.5,-39.1 107.5,0.8 136.2,-16.1 			"/>
		</g>
		<g>
			<polygon class="st2" points="97.2,18.1 93,15.8 64.4,32.6 81.9,42.6 			"/>
			<polygon class="st3" points="64.4,32.6 64.3,32.6 64.3,72.5 68.5,74.8 81.9,42.6 			"/>
			<polygon class="st4" points="97.2,18.1 68.5,35 68.5,74.8 97.2,58 			"/>
		</g>
		<g>
			<polygon class="st2" points="136.2,-4.7 132,-7 103.4,9.8 120.8,19.9 			"/>
			<polygon class="st3" points="103.4,9.8 103.2,9.9 103.2,49.8 107.5,52.1 120.8,19.9 			"/>
			<polygon class="st4" points="136.2,-4.7 107.5,12.2 107.5,52.1 136.2,35.2 			"/>
		</g>
		<g>
			<polygon class="st2" points="175.2,-27.5 171,-29.8 142.3,-13 159.8,-2.9 			"/>
			<polygon class="st3" points="142.3,-13 142.2,-12.9 142.2,27 146.5,29.3 159.8,-2.9 			"/>
			<polygon class="st4" points="175.2,-27.5 146.5,-10.6 146.5,29.3 175.2,12.4 			"/>
		</g>
		<g>
			<polygon class="st2" points="214.2,-50.2 209.9,-52.5 181.3,-35.7 198.8,-25.7 			"/>
			<polygon class="st3" points="181.3,-35.7 181.2,-35.7 181.2,4.2 185.4,6.5 198.8,-25.7 			"/>
			<polygon class="st4" points="214.2,-50.2 185.4,-33.4 185.4,6.5 214.2,-10.3 			"/>
		</g>
		<g>
			<polygon class="st2" points="97.2,69.4 93,67 64.4,83.8 81.9,93.9 			"/>
			<polygon class="st3" points="64.4,83.8 64.3,83.9 64.3,123.8 68.5,126.1 81.9,93.9 			"/>
			<polygon class="st4" points="97.2,69.4 68.5,86.2 68.5,126.1 97.2,109.3 			"/>
		</g>
		<g>
			<polygon class="st2" points="58.3,40.9 54,38.6 25.4,55.3 42.9,65.4 			"/>
			<polygon class="st3" points="25.4,55.3 25.3,55.4 25.3,95.3 29.5,97.6 42.9,65.4 			"/>
			<polygon class="st4" points="58.3,40.9 29.5,57.7 29.5,97.6 58.3,80.8 			"/>
		</g>
		<g>
			<polygon class="st2" points="58.3,92.1 54,89.8 25.4,106.6 42.9,116.7 			"/>
			<polygon class="st3" points="25.4,106.6 25.3,106.7 25.3,146.6 29.5,148.9 42.9,116.7 			"/>
			<polygon class="st4" points="58.3,92.1 29.5,109 29.5,148.9 58.3,132 			"/>
		</g>
		<g>
			<polygon class="st2" points="19.3,63.7 15.1,61.3 -13.6,78.1 3.9,88.2 			"/>
			<polygon class="st3" points="-13.6,78.1 -13.7,78.2 -13.7,118.1 -9.5,120.4 3.9,88.2 			"/>
			<polygon class="st4" points="19.3,63.7 -9.5,80.5 -9.5,120.4 19.3,103.6 			"/>
		</g>
		<g>
			<polygon class="st2" points="19.3,114.9 15.1,112.6 -13.6,129.4 3.9,139.5 			"/>
			<polygon class="st3" points="-13.6,129.4 -13.7,129.5 -13.7,169.4 -9.5,171.7 3.9,139.5 			"/>
			<polygon class="st4" points="19.3,114.9 -9.5,131.8 -9.5,171.7 19.3,154.8 			"/>
		</g>
		<g>
			<polygon class="st2" points="136.2,46.6 132,44.3 103.4,61.1 120.8,71.1 			"/>
			<polygon class="st3" points="103.4,61.1 103.2,61.1 103.2,101 107.5,103.3 120.8,71.1 			"/>
			<polygon class="st4" points="136.2,46.6 107.5,63.5 107.5,103.3 136.2,86.5 			"/>
		</g>
		<g>
			<polygon class="st2" points="175.2,23.8 171,21.5 142.3,38.3 159.8,48.4 			"/>
			<polygon class="st3" points="142.3,38.3 142.2,38.4 142.2,78.3 146.5,80.6 159.8,48.4 			"/>
			<polygon class="st4" points="175.2,23.8 146.5,40.7 146.5,80.6 175.2,63.7 			"/>
		</g>
		<g>
			<polygon class="st2" points="214.2,1 209.9,-1.3 181.3,15.5 198.8,25.6 			"/>
			<polygon class="st3" points="181.3,15.5 181.2,15.6 181.2,55.5 185.4,57.8 198.8,25.6 			"/>
			<polygon class="st4" points="214.2,1 185.4,17.9 185.4,57.8 214.2,40.9 			"/>
		</g>
		<g>
			<polygon class="st2" points="253.1,-21.7 248.9,-24 220.3,-7.2 237.8,2.8 			"/>
			<polygon class="st3" points="220.3,-7.2 220.2,-7.2 220.2,32.7 224.4,35 237.8,2.8 			"/>
			<polygon class="st4" points="253.1,-21.7 224.4,-4.9 224.4,35 253.1,18.2 			"/>
		</g>
		<g>
			<polygon class="st2" points="97.2,120.6 93,118.3 64.4,135.1 81.9,145.2 			"/>
			<polygon class="st3" points="64.4,135.1 64.3,135.2 64.3,175.1 68.5,177.4 81.9,145.2 			"/>
			<polygon class="st4" points="97.2,120.6 68.5,137.5 68.5,177.4 97.2,160.5 			"/>
		</g>
		<g>
			<polygon class="st2" points="136.2,97.9 132,95.5 103.4,112.3 120.8,122.4 			"/>
			<polygon class="st3" points="103.4,112.3 103.2,112.4 103.2,152.3 107.5,154.6 120.8,122.4 			"/>
			<polygon class="st4" points="136.2,97.9 107.5,114.7 107.5,154.6 136.2,137.8 			"/>
		</g>
		<g>
			<polygon class="st2" points="175.2,75.1 171,72.8 142.3,89.6 159.8,99.6 			"/>
			<polygon class="st3" points="142.3,89.6 142.2,89.6 142.2,129.5 146.5,131.8 159.8,99.6 			"/>
			<polygon class="st4" points="175.2,75.1 146.5,92 146.5,131.8 175.2,115 			"/>
		</g>
		<g>
			<polygon class="st2" points="214.2,52.3 209.9,50 181.3,66.8 198.8,76.9 			"/>
			<polygon class="st3" points="181.3,66.8 181.2,66.9 181.2,106.8 185.4,109.1 198.8,76.9 			"/>
			<polygon class="st4" points="214.2,52.3 185.4,69.2 185.4,109.1 214.2,92.2 			"/>
		</g>
		<g>
			<polygon class="st2" points="253.1,29.5 248.9,27.2 220.3,44 237.8,54.1 			"/>
			<polygon class="st3" points="220.3,44 220.2,44.1 220.2,84 224.4,86.3 237.8,54.1 			"/>
			<polygon class="st4" points="253.1,29.5 224.4,46.4 224.4,86.3 253.1,69.4 			"/>
		</g>
		<g>
			<polygon class="st2" points="292.3,-44.6 288,-46.9 259.4,-30.1 276.9,-20 			"/>
			<polygon class="st3" points="259.4,-30.1 259.3,-30 259.3,9.9 263.5,12.2 276.9,-20 			"/>
			<polygon class="st4" points="292.3,-44.6 263.5,-27.7 263.5,12.2 292.3,-4.7 			"/>
		</g>
		<g>
			<polygon class="st2" points="292.3,6.7 288,4.4 259.4,21.2 276.9,31.3 			"/>
			<polygon class="st3" points="259.4,21.2 259.3,21.3 259.3,61.2 263.5,63.5 276.9,31.3 			"/>
			<polygon class="st4" points="292.3,6.7 263.5,23.6 263.5,63.5 292.3,46.6 			"/>
		</g>
		<g>
			<polygon class="st2" points="331.4,-16.1 327.1,-18.4 298.5,-1.6 316,8.4 			"/>
			<polygon class="st3" points="298.5,-1.6 298.4,-1.6 298.4,38.3 302.6,40.6 316,8.4 			"/>
			<polygon class="st4" points="331.4,-16.1 302.6,0.8 302.6,40.6 331.4,23.8 			"/>
		</g>
		<g>
			<polygon class="st2" points="370.5,-38.9 366.2,-41.3 337.6,-24.5 355.1,-14.4 			"/>
			<polygon class="st3" points="337.6,-24.5 337.5,-24.4 337.5,15.5 341.7,17.8 355.1,-14.4 			"/>
			<polygon class="st4" points="370.5,-38.9 341.7,-22.1 341.7,17.8 370.5,1 			"/>
		</g>
		<g>
			<polygon class="st2" points="409.6,-61.8 405.3,-64.1 376.7,-47.3 394.2,-37.2 			"/>
			<polygon class="st3" points="376.7,-47.3 376.6,-47.2 376.6,-7.3 380.8,-5 394.2,-37.2 			"/>
			<polygon class="st4" points="409.6,-61.8 380.8,-44.9 380.8,-5 409.6,-21.9 			"/>
		</g>
		<g>
			<polygon class="st2" points="19.3,166.1 15.1,163.7 -13.6,180.5 3.9,190.6 			"/>
			<polygon class="st3" points="-13.6,180.5 -13.7,180.6 -13.7,220.5 -9.5,222.8 3.9,190.6 			"/>
			<polygon class="st4" points="19.3,166.1 -9.5,182.9 -9.5,222.8 19.3,205.9 			"/>
		</g>
		<g>
			<polygon class="st2" points="58.3,143.3 54,141 25.4,157.8 42.9,167.8 			"/>
			<polygon class="st3" points="25.4,157.8 25.3,157.8 25.3,197.7 29.5,200 42.9,167.8 			"/>
			<polygon class="st4" points="58.3,143.3 29.5,160.1 29.5,200 58.3,183.2 			"/>
		</g>
	</g>
	<g class="st1">
		<polygon class="st2" points="158.8,153.8 154.6,151.4 126,168.2 143.5,178.3 		"/>
		<polygon class="st3" points="126,168.2 125.9,168.3 125.9,208.2 130.1,210.5 143.5,178.3 		"/>
		<polygon class="st4" points="158.8,153.8 130.1,170.6 130.1,210.5 158.8,193.6 		"/>
		<polygon class="st2" points="119.9,176.5 115.6,174.2 87,191 104.5,201.1 		"/>
		<polygon class="st3" points="87,191 86.9,191.1 86.9,231 91.1,233.3 104.5,201.1 		"/>
		<polygon class="st4" points="119.9,176.5 91.1,193.4 91.1,233.3 119.9,216.4 		"/>
		<g>
			<polygon class="st2" points="197.8,182.3 193.6,180 165,196.7 182.4,206.8 			"/>
			<polygon class="st3" points="165,196.7 164.8,196.8 164.8,236.7 169.1,239 182.4,206.8 			"/>
			<polygon class="st4" points="197.8,182.3 169.1,199.1 169.1,239 197.8,222.2 			"/>
		</g>
		<g>
			<polygon class="st2" points="236.8,159.5 232.6,157.2 203.9,174 221.4,184.1 			"/>
			<polygon class="st3" points="203.9,174 203.8,174 203.8,213.9 208.1,216.3 221.4,184.1 			"/>
			<polygon class="st4" points="236.8,159.5 208.1,176.4 208.1,216.3 236.8,199.4 			"/>
		</g>
		<g>
			<polygon class="st2" points="275.8,188 271.5,185.7 242.9,202.5 260.4,212.6 			"/>
			<polygon class="st3" points="242.9,202.5 242.8,202.5 242.8,242.4 247,244.8 260.4,212.6 			"/>
			<polygon class="st4" points="275.8,188 247,204.9 247,244.8 275.8,227.9 			"/>
		</g>
		<g>
			<polygon class="st2" points="314.7,165.2 310.5,162.9 281.9,179.7 299.4,189.8 			"/>
			<polygon class="st3" points="281.9,179.7 281.8,179.8 281.8,219.7 286,222 299.4,189.8 			"/>
			<polygon class="st4" points="314.7,165.2 286,182.1 286,222 314.7,205.1 			"/>
		</g>
		<g>
			<polygon class="st2" points="353.7,142.5 349.5,140.1 320.9,156.9 338.3,167 			"/>
			<polygon class="st3" points="320.9,156.9 320.8,157 320.8,196.9 325,199.2 338.3,167 			"/>
			<polygon class="st4" points="353.7,142.5 325,159.3 325,199.2 353.7,182.4 			"/>
		</g>
		<g>
			<polygon class="st2" points="353.7,193.7 349.5,191.4 320.9,208.2 338.3,218.3 			"/>
			<polygon class="st3" points="320.9,208.2 320.8,208.3 320.8,248.2 325,250.5 338.3,218.3 			"/>
			<polygon class="st4" points="353.7,193.7 325,210.6 325,250.5 353.7,233.6 			"/>
		</g>
		<g>
			<polygon class="st2" points="392.8,119.6 388.6,117.3 360,134.1 377.4,144.2 			"/>
			<polygon class="st3" points="360,134.1 359.9,134.2 359.9,174.1 364.1,176.4 377.4,144.2 			"/>
			<polygon class="st4" points="392.8,119.6 364.1,136.5 364.1,176.4 392.8,159.5 			"/>
		</g>
		<g>
			<polygon class="st2" points="392.8,170.9 388.6,168.6 360,185.4 377.4,195.5 			"/>
			<polygon class="st3" points="360,185.4 359.9,185.5 359.9,225.3 364.1,227.7 377.4,195.5 			"/>
			<polygon class="st4" points="392.8,170.9 364.1,187.8 364.1,227.7 392.8,210.8 			"/>
		</g>
		<g>
			<polygon class="st2" points="431.9,96.8 427.7,94.5 399.1,111.3 416.5,121.4 			"/>
			<polygon class="st3" points="399.1,111.3 399,111.4 399,151.2 403.2,153.6 416.5,121.4 			"/>
			<polygon class="st4" points="431.9,96.8 403.2,113.7 403.2,153.6 431.9,136.7 			"/>
		</g>
		<g>
			<polygon class="st2" points="431.9,148.1 427.7,145.8 399.1,162.6 416.5,172.6 			"/>
			<polygon class="st3" points="399.1,162.6 399,162.6 399,202.5 403.2,204.8 416.5,172.6 			"/>
			<polygon class="st4" points="431.9,148.1 403.2,164.9 403.2,204.8 431.9,188 			"/>
		</g>
	</g>
	<path class="st5" d="M430,0H315.6c-0.1,0.5-0.2,1-0.3,1.5c-0.5,2.2-0.9,4.6-1.5,6.9c-0.4,1.6-1.5,3.6-2.6,4.9
		c-0.1,0.1-0.2,0.2-0.3,0.3c-0.8,0.5-2.2-0.2-2.7-0.8c-0.7-0.8-1.2-1-1.7-0.7c-0.4,0.2-0.8,0.7-1.4,1.4c-0.5,0.6-1,1.1-1.5,1.4
		c-1,0.6-1.8,0.4-2.4-0.4c-0.4-0.7-0.9-1.3-1.3-2c-0.8-1.2-1.7-2.5-2.5-3.8c-0.5-0.9-1-0.7-1.4-0.5c-0.4,0.2-0.8,0.7-1.4,1.5
		c-1.5,1.9-2.4,3.1-3.3,3.5c-1.3,0.8-2.1-0.2-3.1-1.9c-1.2-1.9-1.8-2.3-2.6-1.8c-0.6,0.4-1.5,1.3-2.8,2.7l0,0l-0.1,0.1l-0.2,0.5
		l-0.1,0c-0.9,1.7-1.7,2.8-2.5,3.4l-0.6,0.8l0.4-0.7c-0.8,0.4-1.6,0.4-2.8,0.4c-1.4,0-2.9,0.3-4.4,0.7c-0.8,0.2-1.7,0.4-2.5,0.5
		l-0.3,0.1c-0.8,0.1-1.8,0.3-2.4,0c-0.8-0.5-1.6-1-2.3-1.6c-0.6-0.3-1.1-0.7-1.6-1.2c-0.4-0.3-0.9-0.7-1.3-1l-0.3-0.3
		c-2.6-1.4-5.8-1.6-8.9-1.7c-1.4-0.1-2.8-0.1-4.2-0.3c-1.4-0.2-3,0.6-4.8,2.4c-2.1,2-3.6,3.3-5,3.9c-0.3,0.1-0.6,0.3-0.8,0.4
		c-1.9,1.1-3.6,2.8-5.4,4.7l-0.5,0.5c-1.2,1.2-2.4,2.1-3.7,3c-0.7,0.5-1.5,1.1-2.2,1.7c-0.4,0.4-0.9,0.7-1.3,1.1
		c-1.4,1.2-2.9,2.4-4.1,3.8c-2.1,2.8-4.5,4.9-7.3,6.8c-0.1,0.1-0.3,0.2-0.4,0.2c-0.1,0-0.2,0.1-0.2,0.1c-0.1,0.1-0.1,0.1-0.1,0.1
		c-1.2,1.4-2.3,2.4-3.4,3c-2.8,1.6-4.9,0.6-6.5-0.4c-1.5-1-3-0.9-4.8,0.4c-0.5,0.4-1.2,0.7-1.7,0.7c-2.7,0-5.1,1.8-7.5,5.5
		c0,0,0,0,0,0v0.2l-0.1,0.1l-0.2,0.7l-0.1,0c-1,2.9-2.8,5.2-5,6.4c-2.4,1.3-3.9,3.7-5.1,5.8c-0.9,1.7-2.4,4.2-4.4,5.3
		c-0.7,0.4-1.5,0.7-2.3,0.7c-1.3,0.1-2.4,1-3.7,3.3c-1.8,3.1-3.2,5.1-5,6.1c-1.1,0.6-2.2,0.9-4,1l-0.1,0c-0.5,0-1,0-1.4,0.4
		c-0.5,0.4-0.9,0.7-1.4,0.9c-3.8,2.2-5.6,0.1-7.4-2l-0.3-0.4c0,0-0.1,0-0.1-0.1l0,0l-0.1-0.1l-0.3-0.2l0-0.1c-0.7-0.7-1.4-1.4-2-2.1
		l0,0l-0.1-0.1l-0.2-0.2l0-0.1c-0.3-0.5-0.7-0.9-1-1.4l-0.1-0.1l-1.6-1.2l0,0l-0.3-0.3l-0.3-0.2l0,0c-0.7-0.6-1.3-1.2-2-1.8
		l-0.2-0.2l0,0c-0.8-0.7-1.6-1.4-2.4-2.2l0,0l-0.3-0.4c0,0,0,0-0.1,0c-0.3,0.1-0.6,0.1-0.9,0c-1.9-1.2-3.5-0.4-5.5,2.6
		c-1.5,2.4-3.6,3.5-5.6,3.3c-1.5-0.2-2.9,0.6-4.5,2.6c-1.2,1.5-2.6,3.1-4,3.9c-1.1,0.6-2.1,0.8-3.1,0.4c0,0-0.1,0-0.4,0.1
		c-0.5,0.3-1.3,1-1.8,1.5c-0.6,0.7-1.1,1.5-1.7,2.4c-0.1,0.2-0.3,0.5-0.4,0.7l-0.1,0.3l0,0.1l-0.1,0.1l-0.2,0.5l-0.1,0
		c-1.4,2.7-3,5.3-5.4,6.6c-0.3,0.2-0.7,0.4-1.1,0.5c-0.5,0.2-1,0.9-1.6,1.5c-0.2,0.2-0.4,0.4-0.5,0.6c-0.1,0.1-0.1,0.2-0.2,0.3
		c-0.5,0.9-1.1,1.8-1.6,2.7l-0.4,0.8l-0.2,0.4l0,0c-0.5,0.8-1,1.4-1.5,1.7c-0.8,0.5-1.5,0.2-2.1,0c-0.1,0-0.2-0.1-0.3-0.1
		c-0.6-0.2-1.1-0.5-1.6-0.9c-0.3-0.2-0.7-0.5-1.1-0.6c-1.5-0.7-2.8-0.4-4.3,0.9c-0.4,0.4-0.8,0.7-1.2,0.9c-1.4,0.8-2.4,0.3-3.1-0.4
		c-1.1-1-2.3-1.8-3.5-2.5c-0.4-0.2-0.7-0.2-1.1,0c-0.6,0.3-1.1,1.2-1.5,1.9c-0.8,1.5-1.6,3-2.3,4.5l-0.6,1.1
		c-0.1,0.2-0.2,0.5-0.3,0.7l0,0.2l-0.1,0.1l-0.4,0.4c-1.4,1.4-2.8,2.8-4.1,4.2c0,0.1-0.1,0.1-0.1,0.2c-0.4,1.2-0.8,2.4-1.3,3.6
		c-1.1,3.1-2.2,6.3-3.3,9.4c-0.9,2.3-1.7,4.1-3,4.8c-0.8,0.4-1.6,0.5-3,0.2c-0.4-0.1-0.9,0.2-1.6,0.5c-0.2,0.1-0.4,0.2-0.5,0.3
		l-0.2,0.4l-4.2,13.6c-0.8,2.8-2.5,4.6-4.4,4.8c-1.2,0.1-1.9,0.9-2.5,2.9c-0.5,1.6-1,3.3-1.5,4.9c-0.7,2.4-1.5,5-2.3,7.5
		c-0.6,1.6-1.7,3.5-2.8,4.6c-0.1,0.1-0.2,0.1-0.3,0.2c-0.6,0.3-1.3-0.1-2.2-0.8l-0.3-0.2c-0.3-0.2-0.5-0.5-0.7-0.8l-0.5-0.7
		l-0.1-0.1l0-0.1c-0.3-0.4-0.6-0.7-0.9-1.1c-0.3-0.3-0.5-0.6-0.8-1c-1.1-0.9-2.4-1.3-3.9-1.2c-1,0.1-1.7-0.2-2.1-0.7
		c-1-1.5-2.2-1.6-4-0.6c-0.8,0.5-1.7,1.1-2.7,2.1c-2.1,2-3.9,2.4-5.3,1.1l-0.1,0.1l-0.2-0.1l-0.3-0.1c-2.1,0.1-4.3,0.3-7,1.8
		c-0.8,0.5-1.6,0.5-2.4,0.5l0.6,0.5l-2.5-0.6L2,168l-0.2-0.2L1.1,168l0.2-0.3L0,167.6V200h240.8L430,90.8V0z"/>
	<path class="st6" d="M430,0h-77.6c-0.2,0.8-0.4,1.7-0.6,2.5c-0.2,0.9-0.7,1.7-1.2,2.5c-0.2,0.3-0.4,0.7-0.5,1l-0.3,0.6l-0.4-0.1
		c-0.4-0.1-0.8-0.3-1.2-0.4l0.1,0.7l-0.9-0.9l-0.2,0.1l0-0.2l-0.2,0l0.1-0.3c-0.7-0.7-1.3-1.3-2-2l0,0c-0.1,0.2-0.2,0.3-0.3,0.5
		l-0.1,0.3l-0.4,1.5c-0.5,2-1,4-1.5,6c-0.3,1.4-0.6,2.8-0.9,4.2c-0.5,2.2-0.9,4.6-1.5,6.9c-0.4,1.6-1.5,3.6-2.6,4.9
		c-0.1,0.1-0.2,0.2-0.3,0.3c-0.8,0.5-2.2-0.2-2.7-0.8c-0.7-0.8-1.2-1-1.7-0.7c-0.4,0.2-0.8,0.7-1.4,1.4c-0.5,0.6-1,1.1-1.5,1.4
		c-1,0.6-1.8,0.4-2.4-0.4c-0.4-0.7-0.9-1.3-1.3-2c-0.8-1.2-1.7-2.5-2.5-3.8c-0.5-0.9-1-0.7-1.4-0.5c-0.4,0.2-0.8,0.7-1.4,1.5
		c-1.5,1.9-2.4,3.1-3.3,3.5c-1.3,0.8-2.1-0.2-3.1-1.9c-1.2-1.9-1.8-2.3-2.6-1.8c-0.6,0.4-1.5,1.3-2.8,2.7l0,0l-0.1,0.1l-0.2,0.5
		l-0.1,0c-0.9,1.7-1.7,2.8-2.5,3.4l-0.6,0.8l0.4-0.7c-0.8,0.4-1.6,0.4-2.8,0.4c-1.4,0-2.9,0.3-4.4,0.7c-0.8,0.2-1.7,0.4-2.5,0.5
		l-0.3,0.1c-0.8,0.1-1.8,0.3-2.4,0c-0.8-0.5-1.6-1-2.3-1.6c-0.6-0.3-1.1-0.7-1.6-1.2c-0.4-0.3-0.9-0.7-1.3-1l-0.3-0.3
		c-2.6-1.4-5.8-1.6-8.9-1.7c-1.4-0.1-2.8-0.1-4.2-0.3c-1.4-0.2-3,0.6-4.8,2.4c-2.1,2-3.6,3.3-5,3.9c-0.3,0.1-0.6,0.3-0.8,0.4
		c-1.9,1.1-3.6,2.8-5.4,4.7l-0.5,0.5c-1.2,1.2-2.4,2.1-3.7,3c-0.7,0.5-1.5,1.1-2.2,1.7c-0.4,0.4-0.9,0.7-1.3,1.1
		c-1.4,1.2-2.9,2.4-4.1,3.8c-2.1,2.8-4.5,4.9-7.3,6.8c-0.1,0.1-0.3,0.2-0.4,0.2c-0.1,0-0.2,0.1-0.2,0.1c-0.1,0.1-0.1,0.1-0.1,0.1
		c-1.2,1.4-2.3,2.4-3.4,3c-2.8,1.6-4.9,0.6-6.5-0.4c-1.5-1-3-0.9-4.8,0.4c-0.5,0.4-1.2,0.7-1.7,0.7c-2.7,0-5.1,1.8-7.5,5.5
		c0,0,0,0,0,0v0.2l-0.1,0.1l-0.2,0.7l-0.1,0c-1,2.9-2.8,5.2-5,6.4c-2.4,1.3-3.9,3.7-5.1,5.8c-0.9,1.7-2.4,4.2-4.4,5.3
		c-0.7,0.4-1.5,0.7-2.3,0.7c-1.3,0.1-2.4,1-3.7,3.3c-1.8,3.1-3.2,5.1-5,6.1c-1.1,0.6-2.2,0.9-4,1l-0.1,0c-0.5,0-1,0-1.4,0.4
		c-0.5,0.4-0.9,0.7-1.4,0.9c-3.8,2.2-5.6,0.1-7.4-2l-0.3-0.4c0,0-0.1,0-0.1-0.1l0,0l-0.1-0.1l-0.3-0.2l0-0.1c-0.7-0.7-1.4-1.4-2-2.1
		l0,0l-0.1-0.1l-0.2-0.2l0-0.1c-0.3-0.5-0.7-0.9-1-1.4l-0.1-0.1l-1.6-1.2l0,0l-0.3-0.3l-0.3-0.2l0,0c-0.7-0.6-1.3-1.2-2-1.8
		l-0.2-0.2l0,0c-0.8-0.7-1.6-1.4-2.4-2.2l0,0l-0.3-0.4c0,0,0,0-0.1,0c-0.3,0.1-0.6,0.1-0.9,0c-1.9-1.2-3.5-0.4-5.5,2.6
		c-1.5,2.4-3.6,3.5-5.6,3.3c-1.5-0.2-2.9,0.6-4.5,2.6c-1.2,1.5-2.6,3.1-4,3.9c-1.1,0.6-2.1,0.8-3.1,0.4c0,0-0.1,0-0.4,0.1
		c-0.5,0.3-1.3,1-1.8,1.5c-0.6,0.7-1.1,1.5-1.7,2.4c-0.1,0.2-0.3,0.5-0.4,0.7l-0.1,0.3l0,0.1l-0.1,0.1l-0.2,0.5l-0.1,0
		c-1.4,2.7-3,5.3-5.4,6.6c-0.3,0.2-0.7,0.4-1.1,0.5c-0.5,0.2-1,0.9-1.6,1.5c-0.2,0.2-0.4,0.4-0.5,0.6c-0.1,0.1-0.1,0.2-0.2,0.3
		c-0.5,0.9-1.1,1.8-1.6,2.7l-0.4,0.8l-0.2,0.4l0,0c-0.5,0.8-1,1.4-1.5,1.7c-0.8,0.5-1.5,0.2-2.1,0c-0.1,0-0.2-0.1-0.3-0.1
		c-0.6-0.2-1.1-0.5-1.6-0.9c-0.3-0.2-0.7-0.5-1.1-0.6c-1.5-0.7-2.8-0.4-4.3,0.9c-0.4,0.4-0.8,0.7-1.2,0.9c-1.4,0.8-2.4,0.3-3.1-0.4
		c-1.1-1-2.3-1.8-3.5-2.5c-0.4-0.2-0.7-0.2-1.1,0c-0.6,0.3-1.1,1.2-1.5,1.9c-0.8,1.5-1.6,3-2.3,4.5l-0.6,1.1
		c-0.1,0.2-0.2,0.5-0.3,0.7l0,0.2l-0.1,0.1l-0.4,0.4c-1.4,1.4-2.8,2.8-4.1,4.2c0,0.1-0.1,0.1-0.1,0.2c-0.4,1.2-0.8,2.4-1.3,3.6
		c-1.1,3.1-2.2,6.3-3.3,9.4c-0.9,2.3-1.7,4.1-3,4.8c-0.8,0.4-1.6,0.5-3,0.2c-0.4-0.1-0.9,0.2-1.6,0.5c-0.2,0.1-0.4,0.2-0.5,0.3
		l-0.2,0.4L78,159.1c-0.8,2.8-2.5,4.6-4.4,4.8c-1.2,0.1-1.9,0.9-2.5,2.9c-0.5,1.6-1,3.3-1.5,4.9c-0.7,2.4-1.5,5-2.3,7.5
		c-0.6,1.6-1.7,3.5-2.8,4.6c-0.1,0.1-0.2,0.1-0.3,0.2c-0.6,0.3-1.3-0.1-2.2-0.8l-0.3-0.2c-0.3-0.2-0.5-0.5-0.7-0.8l-0.5-0.7
		l-0.1-0.1l0-0.1c-0.3-0.4-0.6-0.7-0.9-1.1c-0.3-0.3-0.5-0.6-0.8-1c-1.1-0.9-2.4-1.3-3.9-1.2c-1,0.1-1.7-0.2-2.1-0.7
		c-1-1.5-2.2-1.6-4-0.6c-0.8,0.5-1.7,1.1-2.7,2.1c-2.1,2-3.9,2.4-5.3,1.1l-0.1,0.1l-0.2-0.1l-0.3-0.1c-2.1,0.1-4.3,0.3-7,1.8
		c-0.8,0.5-1.6,0.5-2.4,0.5l0.6,0.5l-2.5-0.6l-0.2,0.2l-0.2-0.2l-0.7,0.2L28,182l-1.4-0.1c-1.6,0.3-3.4,1.7-5.3,4.1
		c-1,1.2-1.9,2.1-3,2.7c-1,0.6-2,0.9-3.3,1c-5.3,0.6-9-0.4-11.5-3.4c-0.9-1.1-2-1.3-3.5-0.7V200h292.2L430,120.4V0z"/>
	<polygon class="st7" points="95,200 430,6.6 430,5.4 93,200 	"/>
	<polygon class="st7" points="108.8,200 430,14.6 430,12.2 104.8,200 	"/>
	<path class="st7" d="M322.5,22.4c-0.4,0.2-0.8,0.7-1.4,1.5c0,0.1-0.1,0.1-0.1,0.2l2.6-1.5C323.1,22.1,322.8,22.2,322.5,22.4z"/>
	<g class="st8">
		<path class="st9" d="M36.4,200v-11.7l17.7-10.2c-0.5,0-0.9-0.2-1.2-0.5l-16.5,9.6v-6.8c-0.3,0.1-0.7,0.2-1,0.3v7.1L14.1,200h2
			l19.2-11.1V200H36.4z"/>
		<path class="st9" d="M61.3,182.5c-0.1-0.1-0.2-0.2-0.2-0.4l-0.5-0.7l-0.1-0.1l0-0.1c-0.1-0.1-0.1-0.1-0.2-0.2V200h1V182.5z"/>
		<path class="st9" d="M11.4,200v-10c-0.3,0-0.7-0.1-1-0.1V200H11.4z"/>
		<path class="st9" d="M410.7,0h-2l-23.6,13.6V0h-1v14.2L360.2,28V1.3l2.3-1.3h-2l-0.3,0.2V0h-1v0.8L350,6.1l-0.3,0.5l-0.4-0.1
			c0,0,0,0,0,0l-6.2,3.6c-0.1,0.4-0.2,0.9-0.3,1.3l16.4-9.5v26.7l-23.9,13.8V27.5c-0.2-0.2-0.4-0.3-0.6-0.5
			c-0.2-0.2-0.3-0.3-0.4-0.5V43l-23.9,13.8V30.1l5.4-3.1c-0.2-0.2-0.4-0.5-0.6-0.8l-4.8,2.8v-3.7c-0.3,0.3-0.6,0.7-1,1.1v3.2
			l-23.9,13.8V27c-0.3-0.1-0.7-0.1-1-0.2v17.1l-23.9,13.8V35.9c-0.3,0.3-0.7,0.7-1,1v21.4l-23.9,13.8V57.9c-0.3,0.2-0.7,0.3-1,0.5
			v14.4l-23.9,13.8V70.9c-0.2,0.2-0.5,0.3-0.7,0.4c-0.1,0.1-0.2,0.1-0.3,0.2v15.5l-23.9,13.8v-7.4c-0.1,0-0.3,0-0.5,0l-0.1,0
			c-0.2,0-0.3,0-0.5,0v7.9l-23.9,13.8V88.6l6.2-3.6c-0.2-0.1-0.3-0.3-0.5-0.4l-0.2-0.2l0,0c0,0-0.1-0.1-0.1-0.1l-5.4,3.1v-6
			c-0.3,0-0.7,0.1-1,0.3V88L136,101.8v-2.5c-0.1,0.1-0.1,0.2-0.2,0.3l-0.1,0.3l0,0.1l-0.1,0.1l-0.2,0.5l-0.1,0
			c-0.1,0.2-0.2,0.3-0.3,0.5v1.4l-1.2,0.7c-0.5,0.7-0.9,1.4-1.5,2l2.7-1.5v26.7L111.1,144v-26.7l6-3.4c-0.7-0.2-1.4-0.2-2,0
			l-1.4,0.8c-0.1,0.1-0.2,0.2-0.3,0.3c-0.4,0.4-0.8,0.7-1.2,0.9c-0.8,0.5-1.5,0.5-2,0.3v0.6l-13.7,7.9c-0.4,0.5-0.9,0.9-1.3,1.4
			c0,0.1-0.1,0.1-0.1,0.2c-0.1,0.2-0.1,0.4-0.2,0.5l15.4-8.9v26.7l-23.9,13.8v-14c-0.3,0-0.6,0-1,0V159l-14.3,8.3
			c-0.1,0.5-0.3,0.9-0.4,1.4l14.8-8.5v26.7L62.3,200h2l20.9-12v12h1v-12.6l23.9-13.8V200h2.4l22.5-13v13h1v-13.6l23.9-13.8v26.7
			l-1.2,0.7h2.2v-0.1l23.9-13.8V200h1v-14.5l23.9-13.8v26.7l-2.9,1.6h2l0.9-0.5v0.5h1v-1.1l23.9-13.8V200h1v-15.5l23.9-13.8v26.7
			l-4.5,2.6h2l2.5-1.4v1.4h1v-2l23.9-13.8v6.7h1v-7.3l23.9-13.8v6.7h1v-7.3l23.9-13.8v6.7h1v-7.3l23.9-13.8v6.7h1v-7.3l23.9-13.8
			v6.7h1v-7.3l23.9-13.8v6.7h1v-7.3l19.9-11.5v-0.6l-0.2-0.4l-19.7,11.4V83.9L430,72.3v-0.6l-0.2-0.4l-19.7,11.4V56L430,44.5v-0.6
			l-0.2-0.4l-19.7,11.4V28.2L430,16.7v-0.6l-0.2-0.4l-19.7,11.4V0.4L410.7,0z M110.1,172.4l-23.9,13.8v-26.7l23.9-13.8V172.4z
			 M135,185.9l-23.9,13.8V173l23.9-13.8V185.9z M135,158l-23.9,13.8v-26.7l23.9-13.8V158z M159.9,171.5L136,185.3v-26.7l23.9-13.8
			V171.5z M159.9,143.7L136,157.5v-26.7l23.9-13.8V143.7z M159.9,115.8L136,129.6V103l23.9-13.8V115.8z M184.8,184.9l-23.9,13.8
			v-26.7l23.9-13.8V184.9z M184.8,157.1l-23.9,13.8v-26.7l23.9-13.8V157.1z M184.8,129.3l-23.9,13.8v-26.7l23.9-13.8V129.3z
			 M209.8,170.5l-23.9,13.8v-26.7l23.9-13.8V170.5z M209.8,142.7l-23.9,13.8v-26.7l23.9-13.8V142.7z M209.8,114.9l-23.9,13.8V102
			l23.9-13.8V114.9z M234.7,184l-23.9,13.8v-26.7l23.9-13.8V184z M234.7,156.1L210.8,170v-26.7l23.9-13.8V156.1z M234.7,128.3
			l-23.9,13.8v-26.7l23.9-13.8V128.3z M234.7,100.5l-23.9,13.8V87.6l23.9-13.8V100.5z M259.6,169.6l-23.9,13.8v-26.7l23.9-13.8
			V169.6z M259.6,141.8l-23.9,13.8v-26.7l23.9-13.8V141.8z M259.6,113.9l-23.9,13.8v-26.7l23.9-13.8V113.9z M259.6,86.1l-23.9,13.8
			V73.3l23.9-13.8V86.1z M284.5,183l-23.9,13.8v-26.7l23.9-13.8V183z M284.5,155.2L260.6,169v-26.7l23.9-13.8V155.2z M284.5,127.4
			l-23.9,13.8v-26.7l23.9-13.8V127.4z M284.5,99.6l-23.9,13.8V86.7l23.9-13.8V99.6z M284.5,71.7l-23.9,13.8V58.9l23.9-13.8V71.7z
			 M309.4,168.6l-23.9,13.8v-26.7l23.9-13.8V168.6z M309.4,140.8l-23.9,13.8V128l23.9-13.8V140.8z M309.4,113l-23.9,13.8v-26.7
			l23.9-13.8V113z M309.4,85.2L285.5,99V72.3l23.9-13.8V85.2z M309.4,57.4l-23.9,13.8V44.5l23.9-13.8V57.4z M334.3,154.3l-23.9,13.8
			v-26.7l23.9-13.8V154.3z M334.3,126.4l-23.9,13.8v-26.7l23.9-13.8V126.4z M334.3,98.6l-23.9,13.8V85.8l23.9-13.8V98.6z
			 M334.3,70.8l-23.9,13.8V57.9l23.9-13.8V70.8z M359.2,139.9l-23.9,13.8V127l23.9-13.8V139.9z M359.2,112.1l-23.9,13.8V99.2
			l23.9-13.8V112.1z M359.2,84.2L335.3,98V71.4l23.9-13.8V84.2z M359.2,56.4l-23.9,13.8V43.5l23.9-13.8V56.4z M384.1,125.5
			l-23.9,13.8v-26.7l23.9-13.8V125.5z M384.1,97.7l-23.9,13.8V84.8L384.1,71V97.7z M384.1,69.8l-23.9,13.8V57l23.9-13.8V69.8z
			 M384.1,42l-23.9,13.8V29.2l23.9-13.8V42z M409.1,111.1l-23.9,13.8V98.2l23.9-13.8V111.1z M409.1,83.3l-23.9,13.8V70.4l23.9-13.8
			V83.3z M409.1,55.5l-23.9,13.8V42.6l23.9-13.8V55.5z M409.1,27.6l-23.9,13.8V14.8L409.1,1V27.6z"/>
	</g>
</g>
</svg>
