<?xml version="1.0" encoding="utf-8"?>
<!-- Generator: Adobe Illustrator 22.0.0, SVG Export Plug-In . SVG Version: 6.00 Build 0)  -->
<svg version="1.1" id="Layer_1" xmlns="http://www.w3.org/2000/svg" xmlns:xlink="http://www.w3.org/1999/xlink" x="0px" y="0px"
	 viewBox="0 0 915 326.2" style="enable-background:new 0 0 915 326.2;" xml:space="preserve">
<style type="text/css">
	.st0{fill:#1F1F1F;}
	.st1{opacity:0.2;fill:#808080;}
	.st2{fill:#F96A66;}
	.st3{fill:#EC1034;}
	.st4{fill:#224869;}
	.st5{fill:#0A1B2F;}
	.st6{fill:#1A6EB5;}
	.st7{fill:#08406E;}
	.st8{fill:#A7EDFF;}
	.st9{fill:#60C2F3;}
	.st10{fill:#FFFFFF;}
</style>
<rect x="0" class="st0" width="915" height="326"/>
<g>
	<polygon class="st1" points="64.6,73.1 63.1,75.7 496.7,326 502.7,326 	"/>
	<polygon class="st1" points="201.4,0 195.4,0 760.3,326 766.3,326 	"/>
	<polygon class="st1" points="115.1,26.2 113.6,28.8 628.5,326 634.5,326 	"/>
	<polygon class="st1" points="39.3,96.5 37.8,99.1 430.9,326 436.9,326 	"/>
	<polygon class="st1" points="140.4,2.8 138.9,5.4 694.4,326 700.4,326 	"/>
	<polygon class="st1" points="89.8,49.7 88.3,52.3 562.6,326 568.6,326 	"/>
	<polygon class="st1" points="0,149.9 0,153.4 299.1,326 305.1,326 	"/>
	<polygon class="st1" points="101.5,326 107.5,326 0,264 0,267.4 	"/>
	<polygon class="st1" points="0,225.9 0,229.4 167.3,326 173.3,326 	"/>
	<polygon class="st1" points="0,187.9 0,191.4 233.2,326 239.2,326 	"/>
	<polygon class="st1" points="14,120 12.5,122.6 365,326 371,326 	"/>
	<polygon class="st1" points="728.5,0 722.5,0 915,111.1 915,107.7 	"/>
	<polygon class="st1" points="267.3,0 261.3,0 826.1,326 832.1,326 	"/>
	<polygon class="st1" points="860.2,0 854.2,0 915,35.1 915,31.6 	"/>
	<polygon class="st1" points="596.7,0 590.7,0 915,187.2 915,183.7 	"/>
	<polygon class="st1" points="794.4,0 788.4,0 915,73.1 915,69.6 	"/>
	<polygon class="st1" points="662.6,0 656.6,0 915,149.1 915,145.7 	"/>
	<polygon class="st1" points="399.1,0 393.1,0 915,301.2 915,297.8 	"/>
	<polygon class="st1" points="333.2,0 327.2,0 892,326 898,326 	"/>
	<polygon class="st1" points="530.8,0 524.8,0 915,225.2 915,221.7 	"/>
	<polygon class="st1" points="465,0 459,0 915,263.2 915,259.7 	"/>
</g>
<g>
	<path class="st2" d="M721.3,278.9c-1.6-0.3-40.2-7.7-58.4-34.3c-18.3-26.7-12.3-105.7-11.6-114.6l1.2-14.7l12-4.5
		c0.1,0,8.4-3.2,20.9-10.4c11.8-6.8,23.4-19,34.4-36.2l7.7-12l7.7,3.1c11,4.5,22.6,3.3,34.4-3.5c12.5-7.2,20.8-13.7,20.9-13.7
		l12-9.4l9.4,5.3c0.7,8.1-1.4,88-19.7,135.8c-18.2,47.5-56.7,99.5-58.4,101.7l-6.3,8.4L721.3,278.9z"/>
	<path class="st3" d="M730.7,284.2c-1.6-0.3-40.2-7.7-58.4-34.3C654,223.2,660,144.3,660.8,135.3l1.2-14.7l12-4.5
		c0.1,0,8.4-3.2,20.9-10.4c11.8-6.8,23.4-19,34.4-36.2l7.7-12l7.7,3.1c11,4.5,22.6,3.3,34.4-3.5c12.5-7.2,20.8-13.7,20.9-13.7
		l12-9.4l1.2,13.2c0.7,8.1,6.7,80.1-11.6,127.9c-18.2,47.5-56.7,99.5-58.4,101.7l-6.3,8.4L730.7,284.2z"/>
	<path class="st4" d="M736.9,269.7c0,0-37.7-7-54.8-31.9C665.1,213,672,130.1,672,130.1s9-3.3,22.9-11.3c22.5-13,38.2-38,42.1-44.1
		c3.9,1.6,19.6,8.5,42.1-4.5c13.8-8,22.9-15.1,22.9-15.1l3.8,2.3c0,0-0.5,81.9-13.9,117.1C774.7,219.2,736.9,269.7,736.9,269.7z"/>
	<path class="st5" d="M740.7,272.1c0,0-37.7-7-54.8-31.9c-17-24.9-10.2-107.7-10.2-107.7s9-3.3,22.9-11.3c22.5-13,38.2-38,42.1-44.1
		c3.9,1.6,19.6,8.5,42.1-4.5c13.8-8,22.9-15.1,22.9-15.1s6.9,74.9-10.2,119.5C778.4,221.5,740.7,272.1,740.7,272.1z"/>
	<path class="st2" d="M759.1,140.1l-6.5,3.8v-11.1c0-9.9-7-13.8-15.6-8.9l-0.3,0.1c-8.6,5-15.6,17-15.6,26.9v11.1l-6.5,3.8
		c-4,2.3-7.2,7.8-7.2,12.4v41.6c0,4.6,3.2,6.4,7.2,4.1l44.4-25.6c4-2.3,7.2-7.8,7.2-12.4v-41.6C766.3,139.6,763.1,137.8,759.1,140.1
		z M739.2,183.6v9.2c0,1.4-1,3.1-2.2,3.8l0,0c-1.2,0.7-2.2,0.1-2.2-1.3v-9.2c-2.2,0.3-3.8-1.3-3.8-4.2c0-3.8,2.7-8.4,6-10.4
		c3.3-1.9,6-0.4,6,3.4C742.9,178,741.4,181.3,739.2,183.6z M746.9,147.1l-20,11.5v-11.1c0-6.2,4.4-13.9,9.9-17l0.3-0.1
		c5.4-3.1,9.9-0.6,9.9,5.6V147.1z"/>
	<polygon class="st2" points="747.5,122.4 751.6,124.7 747.8,126.8 	"/>
	<polygon class="st2" points="763.9,139.4 767.6,141.5 763.7,144.3 	"/>
	<polygon class="st2" points="709.6,224.4 713.4,226.5 713.4,221.8 	"/>
	<path class="st3" d="M762.5,142l-6.5,3.8v-11.1c0-9.9-7-13.8-15.6-8.9l-0.3,0.1c-8.6,5-15.6,17-15.6,26.9v11.1l-6.5,3.8
		c-4,2.3-7.2,7.8-7.2,12.4v41.6c0,4.6,3.2,6.4,7.2,4.1l44.4-25.6c4-2.3,7.2-7.8,7.2-12.4v-41.6C769.7,141.5,766.5,139.7,762.5,142z
		 M742.6,185.6v9.2c0,1.4-1,3.1-2.2,3.8l0,0c-1.2,0.7-2.2,0.1-2.2-1.3v-9.2c-2.2,0.3-3.8-1.3-3.8-4.2c0-3.8,2.7-8.4,6-10.4
		s6-0.4,6,3.4C746.3,179.9,744.8,183.3,742.6,185.6z M750.3,149l-20,11.5v-11.1c0-6.2,4.4-13.9,9.9-17l0.3-0.1
		c5.4-3.1,9.9-0.6,9.9,5.6V149z"/>
</g>
<g>
	<polygon class="st6" points="358.1,0 0,209.2 0,282.6 483.7,0 	"/>
	<path class="st7" d="M86.3,173.5L1,223.4c-0.3,0.2-0.7,0.4-1,0.7v32c0.7,0,1.5-0.2,2.2-0.6l85.2-49.9c3.6-2.1,5.8-5.9,5.8-10.1
		v-17.9C93.2,173.9,89.3,171.7,86.3,173.5z"/>
	<path class="st8" d="M86,173.5l-7.5,4.3v10.3c0,4.2-2,8-5.6,10.1L0,241v15c0.7,0,1.5-0.2,2.2-0.6l85.2-49.9
		c3.6-2.1,5.8-5.9,5.8-10.1v-17.9C93.2,173.9,89.1,171.7,86,173.5z"/>
	<path class="st7" d="M293.3,91.3l3-1.8c1.8-1.1,3-3,3-5.2V58.6c0-1.6-1.7-2.5-3-1.7l-3,1.8c-1.8,1.1-3,3-3,5.2v25.8
		C290.3,91.1,292,92.1,293.3,91.3z"/>
	<path class="st8" d="M296.3,56.8l-1.5,0.9v23.2c0,2.1-1.1,4.1-3,5.2l-1.6,0.9v2.6c0,1.6,1.7,2.5,3,1.7l3-1.8c1.8-1.1,3-3,3-5.2
		V58.6C299.3,57,297.6,56,296.3,56.8z"/>
	<path class="st7" d="M309,82.2l3-1.8c1.8-1.1,3-3,3-5.2V49.5c0-1.6-1.7-2.5-3-1.7l-3,1.8c-1.8,1.1-3,3-3,5.2v25.8
		C305.9,82.1,307.6,83,309,82.2z"/>
	<path class="st8" d="M311.9,47.8l-1.5,0.9v23.2c0,2.1-1.1,4.1-3,5.2l-1.6,0.9v2.6c0,1.6,1.7,2.5,3,1.7l3-1.8c1.8-1.1,3-3,3-5.2
		V49.5C315,47.9,313.3,47,311.9,47.8z"/>
	<path class="st7" d="M324.6,73.2l3-1.8c1.8-1.1,3-3,3-5.2V40.4c0-1.6-1.7-2.5-3-1.7l-3,1.8c-1.8,1.1-3,3-3,5.2v25.8
		C321.6,73,323.3,74,324.6,73.2z"/>
	<path class="st8" d="M327.6,38.7l-1.5,0.9v23.2c0,2.1-1.1,4.1-3,5.2l-1.6,0.9v2.6c0,1.6,1.7,2.5,3,1.7l3-1.8c1.8-1.1,3-3,3-5.2
		V40.4C330.6,38.9,328.9,37.9,327.6,38.7z"/>
	<path class="st7" d="M340.3,64.1l3-1.8c1.8-1.1,3-3,3-5.2V31.4c0-1.6-1.7-2.5-3-1.7l-3,1.8c-1.8,1.1-3,3-3,5.2v25.8
		C337.2,63.9,338.9,64.9,340.3,64.1z"/>
	<path class="st8" d="M343.2,29.6l-1.5,0.9v23.2c0,2.1-1.1,4.1-3,5.2l-1.6,0.9v2.6c0,1.6,1.7,2.5,3,1.7l3-1.8c1.8-1.1,3-3,3-5.2
		V31.4C346.3,29.8,344.6,28.8,343.2,29.6z"/>
	<path class="st7" d="M355.9,55l3-1.8c1.8-1.1,3-3,3-5.2V22.3c0-1.6-1.7-2.5-3-1.7l-3,1.8c-1.8,1.1-3,3-3,5.2v25.8
		C352.9,54.8,354.6,55.8,355.9,55z"/>
	<path class="st8" d="M358.9,20.5l-1.5,0.9v23.2c0,2.1-1.1,4.1-3,5.2l-1.6,0.9v2.6c0,1.6,1.7,2.5,3,1.7l3-1.8c1.8-1.1,3-3,3-5.2
		V22.3C361.9,20.7,360.2,19.7,358.9,20.5z"/>
	<path class="st7" d="M371.6,46l3-1.8c1.8-1.1,3-3,3-5.2V13.2c0-1.6-1.7-2.5-3-1.7l-3,1.8c-1.8,1.1-3,3-3,5.2v25.8
		C368.6,45.8,370.3,46.7,371.6,46z"/>
	<path class="st8" d="M374.5,11.5l-1.5,0.9v23.2c0,2.1-1.1,4.1-3,5.2l-1.6,0.9v2.6c0,1.6,1.7,2.5,3,1.7l3-1.8c1.8-1.1,3-3,3-5.2
		V13.2C377.6,11.6,375.9,10.7,374.5,11.5z"/>
	<ellipse class="st7" cx="121.2" cy="175.1" rx="8.2" ry="15.4"/>
	<path class="st8" d="M121.2,159.7c-1.1,0-2.2,0.4-3.2,1.2c1.9,2.8,3.2,7.2,3.2,12.2c0,6.4-2.1,11.9-5,14.2c1.4,2,3.1,3.2,5,3.2
		c4.5,0,8.2-6.9,8.2-15.4C129.4,166.6,125.7,159.7,121.2,159.7z"/>
	<path class="st7" d="M155.7,179v-46.3L440,204.5c0,12.2-0.1,36,0,48.6c0.1,12.7-6.1,25.5-18.7,32.8l-1,0.6
		c-24.3,14.2-54.3,14.3-78.6,0.2L155.7,179z"/>
	<path class="st9" d="M155.7,132.8l96.3-56.2l169.3,98c25.1,14.5,25.1,50.6,0.2,65.2l-1,0.6c-24.3,14.2-54.3,14.3-78.6,0.2
		L155.7,132.8z"/>
	<path id="path1334_2_" class="st10" d="M283.3,149.3l4.9,10.5l4.7-2.7l59,34.1l-23.6,0.3c-1.8-0.1-3.6-0.5-4.9-1.3
		c-5.3-3.1-8.5-4.9-9.7-5.6c1.4-1.7,0.9-3.9-1.6-5.4c-3.2-1.8-8.3-1.9-11.5,0c-3.2,1.8-3.2,4.8,0,6.6c2.5,1.5,6.3,1.7,9.3,0.9
		l9.5,5.5c2.6,1.5,6.7,2.2,10.1,2.3c-0.1,0-0.2,0,0,0c0.1,0,25-0.4,25-0.4c1.8,0.1,3.6,0.5,4.9,1.3l6.7,3.9c-3.5,3-2.9,7.2,1.8,9.9
		c5.3,3.1,13.9,3.1,19.2,0c5.3-3.1,5.3-8-0.1-11.1c-4.7-2.7-11.9-3-17.2-1l-6.6-3.8c0,0,0,0-0.1,0l-14.5-8.4c-1.3-0.8-2-1.8-2.2-2.8
		c0,0,0.6-14.4,0.6-14.4c0-0.1,0-0.1,0,0c-0.1-1.9-1.4-4.3-4-5.8l-9.2-5.3l3.8-2.2l-11.6-6.7l-11.5,6.6l11.6,6.7l3.8-2.2
		c0,0,2.4,1.4,9.3,5.4c1.3,0.8,2,1.8,2.2,2.8l-0.6,13.6l-44.6-25.8l4.7-2.7L283.3,149.3z"/>
	<polygon class="st9" points="361.4,0 0,0 0,211.1 	"/>
	<path class="st6" d="M0,0v58.8L97.8,113c5.3,2.9,11.8,2.9,17-0.1L313.8,0H0z"/>
	<polygon class="st7" points="158,60.1 190.5,41.8 119.5,0 54.3,0 	"/>
	<polygon class="st7" points="209.4,28.8 241.9,10.5 224,0 159.7,0 	"/>
</g>
</svg>
