<?xml version="1.0" encoding="utf-8"?>
<!-- Generator: Adobe Illustrator 22.0.0, SVG Export Plug-In . SVG Version: 6.00 Build 0)  -->
<svg version="1.1" id="Layer_1" xmlns="http://www.w3.org/2000/svg" xmlns:xlink="http://www.w3.org/1999/xlink" x="0px" y="0px"
	 viewBox="0 0 430 200" style="enable-background:new 0 0 430 200;" xml:space="preserve">
<style type="text/css">
	.st0{opacity:0.2;}
	.st1{clip-path:url(#SVGID_2_);}
	.st2{opacity:0.1;}
	.st3{fill:none;stroke:#FFFFFF;stroke-width:3;stroke-miterlimit:10;}
	.st4{fill:#F96A66;}
	.st5{fill:#EC1034;}
	.st6{fill:#224869;}
	.st7{fill:#0A1B2F;}
	.st8{fill:#1A6EB5;}
	.st9{fill:#08406E;}
	.st10{fill:#A7EDFF;}
	.st11{fill:#60C2F3;}
	.st12{fill:#FFFFFF;}
	.st13{fill:none;stroke:#252525;stroke-miterlimit:10;}
</style>
<g>
	<rect class="st0" width="430" height="200"/>
	<g>
		<defs>
			<rect id="SVGID_1_" width="430" height="200"/>
		</defs>
		<clipPath id="SVGID_2_">
			<use xlink:href="#SVGID_1_"  style="overflow:visible;"/>
		</clipPath>
		<g class="st1">
			<g class="st2">
				<line class="st3" x1="366.1" y1="-299.2" x2="1112.9" y2="131.8"/>
				<line class="st3" x1="350.6" y1="-284.8" x2="1097.4" y2="146.2"/>
				<line class="st3" x1="335.1" y1="-270.5" x2="1081.9" y2="160.5"/>
				<line class="st3" x1="319.6" y1="-256.1" x2="1066.4" y2="174.9"/>
				<line class="st3" x1="304.1" y1="-241.7" x2="1050.9" y2="189.3"/>
				<line class="st3" x1="288.6" y1="-227.4" x2="1035.4" y2="203.6"/>
				<line class="st3" x1="273.1" y1="-213" x2="1019.9" y2="218"/>
				<line class="st3" x1="257.6" y1="-198.6" x2="1004.4" y2="232.4"/>
				<line class="st3" x1="242.1" y1="-184.3" x2="988.9" y2="246.7"/>
				<line class="st3" x1="226.6" y1="-169.9" x2="973.4" y2="261.1"/>
				<line class="st3" x1="211.1" y1="-155.5" x2="957.9" y2="275.5"/>
				<line class="st3" x1="195.6" y1="-141.2" x2="942.4" y2="289.9"/>
				<line class="st3" x1="180.1" y1="-126.8" x2="926.9" y2="304.2"/>
				<line class="st3" x1="164.6" y1="-112.4" x2="911.4" y2="318.6"/>
				<line class="st3" x1="149.1" y1="-98.1" x2="895.9" y2="333"/>
				<line class="st3" x1="133.6" y1="-83.7" x2="880.4" y2="347.3"/>
				<line class="st3" x1="118.1" y1="-69.3" x2="864.9" y2="361.7"/>
				<line class="st3" x1="102.6" y1="-55" x2="849.4" y2="376.1"/>
				<line class="st3" x1="87.1" y1="-40.6" x2="833.9" y2="390.4"/>
				<line class="st3" x1="71.6" y1="-26.2" x2="818.4" y2="404.8"/>
				<line class="st3" x1="56.1" y1="-11.9" x2="802.9" y2="419.2"/>
				<line class="st3" x1="40.6" y1="2.5" x2="787.4" y2="433.5"/>
				<line class="st3" x1="25.1" y1="16.9" x2="771.9" y2="447.9"/>
				<line class="st3" x1="9.6" y1="31.2" x2="756.4" y2="462.3"/>
				<line class="st3" x1="-5.9" y1="45.6" x2="740.9" y2="476.6"/>
				<line class="st3" x1="-21.4" y1="60" x2="725.4" y2="491"/>
				<line class="st3" x1="-36.9" y1="74.3" x2="709.9" y2="505.4"/>
				<line class="st3" x1="-52.4" y1="88.7" x2="694.4" y2="519.7"/>
				<line class="st3" x1="-67.9" y1="103.1" x2="678.9" y2="534.1"/>
				<line class="st3" x1="-83.4" y1="117.4" x2="663.4" y2="548.5"/>
				<line class="st3" x1="-98.9" y1="131.8" x2="647.9" y2="562.8"/>
			</g>
			<g>
				<path class="st4" d="M326.3,171c-1-0.2-24.6-4.7-35.8-21c-11.2-16.4-7.5-64.8-7.1-70.2l0.7-9l7.4-2.7c0,0,5.1-1.9,12.8-6.4
					c7.2-4.2,14.3-11.7,21.1-22.2l4.7-7.3l4.7,1.9c6.8,2.8,13.9,2,21.1-2.1c7.7-4.4,12.7-8.4,12.8-8.4l7.4-5.7l5.8,3.2
					c0.5,4.9-0.9,54-12.1,83.3c-11.1,29.1-34.8,61-35.8,62.3l-3.8,5.1L326.3,171z"/>
				<path class="st5" d="M332,174.2c-1-0.2-24.6-4.7-35.8-21c-11.2-16.4-7.5-64.8-7.1-70.2l0.7-9l7.4-2.7c0,0,5.1-1.9,12.8-6.4
					c7.2-4.2,14.3-11.7,21.1-22.2l4.7-7.3l4.7,1.9c6.8,2.8,13.9,2,21.1-2.1c7.7-4.4,12.7-8.4,12.8-8.4l7.4-5.7l0.8,8.1
					c0.5,4.9,4.1,49.1-7.1,78.4c-11.1,29.1-34.8,61-35.8,62.3l-3.8,5.1L332,174.2z"/>
				<path class="st6" d="M335.8,165.4c0,0-23.1-4.3-33.6-19.6c-10.5-15.3-6.2-66-6.2-66s5.5-2.1,14-6.9c13.8-8,23.4-23.3,25.8-27
					c2.4,1,12,5.2,25.8-2.8c8.5-4.9,14-9.2,14-9.2l2.3,1.4c0,0-0.3,50.2-8.5,71.8C359,134.4,335.8,165.4,335.8,165.4z"/>
				<path class="st7" d="M338.2,166.8c0,0-23.1-4.3-33.6-19.6c-10.5-15.3-6.2-66-6.2-66s5.5-2.1,14-6.9c13.8-8,23.4-23.3,25.8-27
					c2.4,1,12,5.2,25.8-2.8c8.5-4.9,14-9.2,14-9.2s4.2,45.9-6.2,73.2C361.3,135.8,338.2,166.8,338.2,166.8z"/>
				<path class="st4" d="M349.5,85.9l-4,2.3v-6.8c0-6-4.3-8.5-9.5-5.4l-0.2,0.1c-5.3,3-9.5,10.4-9.5,16.5v6.8l-4,2.3
					c-2.4,1.4-4.4,4.8-4.4,7.6v25.5c0,2.8,2,3.9,4.4,2.5l27.2-15.7c2.4-1.4,4.4-4.8,4.4-7.6V88.4C353.9,85.6,351.9,84.5,349.5,85.9z
					 M337.2,112.6v5.6c0,0.9-0.6,1.9-1.4,2.3l0,0c-0.7,0.4-1.4,0.1-1.4-0.8v-5.6c-1.4,0.2-2.3-0.8-2.3-2.6c0-2.3,1.6-5.2,3.7-6.4
					c2-1.2,3.7-0.2,3.7,2.1C339.5,109.1,338.6,111.2,337.2,112.6z M342,90.2l-12.3,7.1v-6.8c0-3.8,2.7-8.5,6.1-10.4l0.2-0.1
					c3.3-1.9,6.1-0.4,6.1,3.4V90.2z"/>
				<polygon class="st4" points="342.3,75.1 344.8,76.5 342.5,77.8 				"/>
				<polygon class="st4" points="352.4,85.5 354.6,86.7 352.2,88.4 				"/>
				<polygon class="st4" points="319.1,137.6 321.4,138.9 321.4,136 				"/>
				<path class="st5" d="M351.5,87.1l-4,2.3v-6.8c0-6-4.3-8.5-9.5-5.4l-0.2,0.1c-5.3,3-9.5,10.4-9.5,16.5v6.8l-4,2.3
					c-2.4,1.4-4.4,4.8-4.4,7.6v25.5c0,2.8,2,3.9,4.4,2.5l27.2-15.7c2.4-1.4,4.4-4.8,4.4-7.6V89.6C355.9,86.8,354,85.7,351.5,87.1z
					 M339.3,113.8v5.6c0,0.9-0.6,1.9-1.4,2.3l0,0c-0.7,0.4-1.4,0.1-1.4-0.8v-5.6c-1.4,0.2-2.3-0.8-2.3-2.6c0-2.3,1.6-5.2,3.7-6.4
					c2-1.2,3.7-0.2,3.7,2.1C341.6,110.3,340.6,112.4,339.3,113.8z M344.1,91.4l-12.3,7.1v-6.8c0-3.8,2.7-8.5,6.1-10.4l0.2-0.1
					c3.3-1.9,6.1-0.4,6.1,3.4V91.4z"/>
			</g>
			<g>
				<polygon class="st8" points="224.9,-29.4 -45,128.3 -45,173.3 268.8,-10.1 				"/>
				<g>
					<path class="st9" d="M-43.7,156.6L8.6,126c2.2-1.3,3.5-3.6,3.5-6.2v-11c0-2.2-2.4-3.5-4.2-2.4L-44.4,137
						c-2.2,1.3-3.6,3.7-3.6,6.2l0.1,11C-47.9,156.4-45.5,157.7-43.7,156.6z"/>
					<path class="st10" d="M7.7,106.4L3.1,109v6.3c0,2.5-1.2,4.9-3.4,6.2l-47.7,28l0.1,4.7c0,2.2,2.4,3.5,4.3,2.4L8.6,126
						c2.2-1.3,3.6-3.6,3.6-6.2v-11C12.1,106.6,9.6,105.3,7.7,106.4z"/>
				</g>
				<g>
					<path class="st9" d="M134.8,56l1.9-1.1c1.1-0.7,1.8-1.9,1.8-3.2V35.9c0-1-1-1.6-1.9-1.1l-1.9,1.1c-1.1,0.7-1.8,1.9-1.8,3.2
						v15.8C133,55.9,134,56.5,134.8,56z"/>
					<path class="st10" d="M136.6,34.8l-0.9,0.5v14.2c0,1.3-0.7,2.5-1.8,3.2l-1,0.6v1.6c0,1,1,1.6,1.9,1.1l1.9-1.1
						c1.1-0.7,1.8-1.9,1.8-3.2V35.9C138.5,35,137.5,34.4,136.6,34.8z"/>
					<path class="st9" d="M144.4,50.4l1.9-1.1c1.1-0.7,1.8-1.9,1.8-3.2V30.3c0-1-1-1.6-1.9-1.1l-1.9,1.1c-1.1,0.7-1.8,1.9-1.8,3.2
						v15.8C142.6,50.3,143.6,50.9,144.4,50.4z"/>
					<path class="st10" d="M146.2,29.3l-0.9,0.5v14.2c0,1.3-0.7,2.5-1.8,3.2l-1,0.6v1.6c0,1,1,1.6,1.9,1.1l1.9-1.1
						c1.1-0.7,1.8-1.9,1.8-3.2V30.3C148.1,29.4,147.1,28.8,146.2,29.3z"/>
					<path class="st9" d="M154,44.9l1.9-1.1c1.1-0.7,1.8-1.9,1.8-3.2V24.8c0-1-1-1.6-1.9-1.1l-1.9,1.1c-1.1,0.7-1.8,1.9-1.8,3.2
						v15.8C152.2,44.7,153.2,45.3,154,44.9z"/>
					<path class="st10" d="M155.8,23.7l-0.9,0.5v14.2c0,1.3-0.7,2.5-1.8,3.2l-1,0.6v1.6c0,1,1,1.6,1.9,1.1l1.9-1.1
						c1.1-0.7,1.8-1.9,1.8-3.2V24.8C157.7,23.8,156.7,23.2,155.8,23.7z"/>
					<path class="st9" d="M163.6,39.3l1.9-1.1c1.1-0.7,1.8-1.9,1.8-3.2V19.2c0-1-1-1.6-1.9-1.1l-1.9,1.1c-1.1,0.7-1.8,1.9-1.8,3.2
						v15.8C161.8,39.2,162.8,39.8,163.6,39.3z"/>
					<path class="st10" d="M165.4,18.2l-0.9,0.5v14.2c0,1.3-0.7,2.5-1.8,3.2l-1,0.6v1.6c0,1,1,1.6,1.9,1.1l1.9-1.1
						c1.1-0.7,1.8-1.9,1.8-3.2V19.2C167.3,18.3,166.3,17.7,165.4,18.2z"/>
					<path class="st9" d="M173.2,33.7l1.9-1.1c1.1-0.7,1.8-1.9,1.8-3.2V13.7c0-1-1-1.6-1.9-1.1l-1.9,1.1c-1.1,0.7-1.8,1.9-1.8,3.2
						v15.8C171.4,33.6,172.4,34.2,173.2,33.7z"/>
					<path class="st10" d="M175,12.6l-0.9,0.5v14.2c0,1.3-0.7,2.5-1.8,3.2l-1,0.6v1.6c0,1,1,1.6,1.9,1.1l1.9-1.1
						c1.1-0.7,1.8-1.9,1.8-3.2V13.7C176.9,12.7,175.9,12.1,175,12.6z"/>
					<path class="st9" d="M182.8,28.2l1.9-1.1c1.1-0.7,1.8-1.9,1.8-3.2V8.1c0-1-1-1.6-1.9-1.1l-1.9,1.1c-1.1,0.7-1.8,1.9-1.8,3.2
						v15.8C181,28.1,182,28.7,182.8,28.2z"/>
					<path class="st10" d="M184.6,7l-0.9,0.5v14.2c0,1.3-0.7,2.5-1.8,3.2l-1,0.6v1.6c0,1,1,1.6,1.9,1.1l1.9-1.1
						c1.1-0.7,1.8-1.9,1.8-3.2V8.1C186.5,7.1,185.5,6.5,184.6,7z"/>
				</g>
				<g>
					<ellipse class="st9" cx="29.3" cy="107.4" rx="5" ry="9.4"/>
					<path class="st10" d="M29.3,97.9c-0.7,0-1.3,0.3-1.9,0.7c1.2,1.7,1.9,4.4,1.9,7.4c0,3.9-1.3,7.3-3.1,8.7c0.9,1.2,1.9,2,3.1,2
						c2.8,0,5-4.2,5-9.4C34.3,102.1,32.1,97.9,29.3,97.9z"/>
				</g>
				<g>
					<path class="st9" d="M50.4,109.8V81.4l174.4,44c0,7.5-0.1,22.1,0,29.8c0.1,7.8-3.8,15.6-11.4,20.1l-0.6,0.3
						c-14.9,8.7-33.3,8.7-48.2,0.1L50.4,109.8z"/>
					<path class="st11" d="M50.4,81.4l59-34.5L213.2,107c15.4,8.9,15.4,31,0.1,40l-0.6,0.3c-14.9,8.7-33.3,8.7-48.2,0.1L50.4,81.4z"
						/>
					<path id="path1334_1_" class="st12" d="M128.7,91.5l3,6.4l2.9-1.7l36.2,20.9l-14.4,0.2c-1.1-0.1-2.2-0.3-3-0.8
						c-3.3-1.9-5.2-3-5.9-3.4c0.9-1.1,0.6-2.4-1-3.3c-2-1.1-5.1-1.1-7.1,0c-1.9,1.1-1.9,2.9,0,4.1c1.5,0.9,3.8,1.1,5.7,0.6l5.8,3.4
						c1.6,0.9,4.1,1.4,6.2,1.4c-0.1,0-0.1,0,0,0c0,0,15.3-0.2,15.3-0.2c1.1,0.1,2.2,0.3,3,0.8l4.1,2.4c-2.1,1.9-1.8,4.4,1.1,6.1
						c3.3,1.9,8.5,1.9,11.8,0c3.2-1.9,3.2-4.9,0-6.8c-2.9-1.7-7.3-1.9-10.5-0.6l-4-2.3c0,0,0,0,0,0l-8.9-5.1
						c-0.8-0.5-1.2-1.1-1.4-1.7c0,0,0.4-8.8,0.4-8.8c0-0.1,0,0,0,0c0-1.2-0.8-2.7-2.4-3.6l-5.6-3.3l2.4-1.4l-7.1-4.1l-7,4.1l7.1,4.1
						l2.4-1.4c0,0,1.5,0.9,5.7,3.3c0.8,0.5,1.2,1.1,1.4,1.7l-0.4,8.3L136.9,95l2.9-1.7L128.7,91.5z"/>
				</g>
				<g>
					<polygon class="st13" points="-97.7,-29.4 34.2,47.1 54.1,35.9 -77.6,-41.8 					"/>
					<polygon class="st11" points="224.9,-28.2 -45,129.4 -45,-28.2 					"/>
					<path class="st8" d="M-70.2,22.1l85.1,47.2c3.3,1.8,7.2,1.8,10.4-0.1L210.9-36.1L59.4-123.5L-70.2,22.1z"/>
					<polygon class="st9" points="-80,-39.6 51.8,36.9 71.8,25.7 -59.9,-52 					"/>
					<polygon class="st9" points="-48.5,-58.8 83.4,17.7 103.3,6.5 -28.4,-71.2 					"/>
					<polygon class="st9" points="-17,-78 114.9,-1.5 134.8,-12.7 3.1,-90.4 					"/>
				</g>
			</g>
		</g>
	</g>
</g>
</svg>
