<?xml version="1.0" encoding="utf-8"?>
<!-- Generator: Adobe Illustrator 22.0.0, SVG Export Plug-In . SVG Version: 6.00 Build 0)  -->
<svg version="1.1" id="Layer_1" xmlns="http://www.w3.org/2000/svg" xmlns:xlink="http://www.w3.org/1999/xlink" x="0px" y="0px"
	 viewBox="0 0 915 326.2" style="enable-background:new 0 0 915 326.2;" xml:space="preserve">
<style type="text/css">
	.st0{clip-path:url(#SVGID_2_);fill:#1F1F1F;}
	.st1{clip-path:url(#SVGID_2_);fill:#4F4F4F;}
	.st2{clip-path:url(#SVGID_2_);fill:#424242;}
	.st3{clip-path:url(#SVGID_2_);fill:#303030;}
	.st4{clip-path:url(#SVGID_2_);fill:#72F059;}
	.st5{clip-path:url(#SVGID_2_);fill:#66D64E;}
	.st6{clip-path:url(#SVGID_2_);fill:#1FB800;}
	.st7{clip-path:url(#SVGID_2_);fill:#F96A66;}
	.st8{clip-path:url(#SVGID_2_);fill:#EB5450;}
	.st9{clip-path:url(#SVGID_2_);fill:#EC1034;}
	.st10{clip-path:url(#SVGID_2_);fill:#FFFFFF;}
</style>
<g>
	<defs>
		<rect id="SVGID_1_" x="0" y="0" width="915" height="326"/>
	</defs>
	<clipPath id="SVGID_2_">
		<use xlink:href="#SVGID_1_"  style="overflow:visible;"/>
	</clipPath>
	<rect x="0" y="0" class="st0" width="915" height="326"/>
	<polygon class="st1" points="764.7,264 758.6,260.6 717.1,285 742.4,299.6 	"/>
	<polygon class="st2" points="717.1,285 716.9,285.1 716.9,343 723,346.4 742.4,299.6 	"/>
	<polygon class="st3" points="764.7,264 723,288.5 723,346.4 764.7,321.9 	"/>
	<polygon class="st1" points="764.7,189.6 758.6,186.2 717.1,210.6 742.4,225.2 	"/>
	<polygon class="st2" points="717.1,210.6 716.9,210.7 716.9,268.6 723,272 742.4,225.2 	"/>
	<polygon class="st3" points="764.7,189.6 723,214.1 723,272 764.7,247.5 	"/>
	<polygon class="st1" points="708.2,222.6 702,219.3 660.5,243.6 685.8,258.3 	"/>
	<polygon class="st2" points="660.5,243.6 660.3,243.7 660.3,301.6 666.5,305 685.8,258.3 	"/>
	<polygon class="st3" points="708.2,222.6 666.5,247.1 666.5,305 708.2,280.5 	"/>
	<polygon class="st1" points="708.2,297.2 702,293.9 660.5,318.2 685.8,332.9 	"/>
	<polygon class="st2" points="660.5,318.2 660.3,318.4 660.3,376.2 666.5,379.6 685.8,332.9 	"/>
	<polygon class="st3" points="708.2,297.2 666.5,321.7 666.5,379.6 708.2,355.1 	"/>
	<polygon class="st1" points="651.6,255.7 645.5,252.3 603.9,276.7 629.3,291.3 	"/>
	<polygon class="st2" points="603.9,276.7 603.8,276.8 603.8,334.7 609.9,338 629.3,291.3 	"/>
	<polygon class="st3" points="651.6,255.7 609.9,280.2 609.9,338 651.6,313.6 	"/>
	<polygon class="st1" points="595,288.7 588.9,285.3 547.4,309.7 572.7,324.3 	"/>
	<polygon class="st2" points="547.4,309.7 547.2,309.8 547.2,367.7 553.3,371.1 572.7,324.3 	"/>
	<polygon class="st3" points="595,288.7 553.3,313.2 553.3,371.1 595,346.6 	"/>
	<polygon class="st1" points="538.6,321.6 532.4,318.2 490.9,342.6 516.2,357.2 	"/>
	<polygon class="st2" points="490.9,342.6 490.7,342.7 490.7,400.6 496.9,404 516.2,357.2 	"/>
	<polygon class="st3" points="538.6,321.6 496.9,346.1 496.9,404 538.6,379.5 	"/>
	<polygon class="st1" points="764.7,115.2 758.6,111.8 717.1,136.2 742.4,150.8 	"/>
	<polygon class="st2" points="717.1,136.2 716.9,136.3 716.9,194.2 723,197.5 742.4,150.8 	"/>
	<polygon class="st3" points="764.7,115.2 723,139.6 723,197.5 764.7,173.1 	"/>
	<polygon class="st1" points="821.3,82.2 815.1,78.9 773.6,103.2 798.9,117.9 	"/>
	<polygon class="st2" points="773.6,103.2 773.4,103.3 773.4,161.2 779.6,164.6 798.9,117.9 	"/>
	<polygon class="st3" points="821.3,82.2 779.6,106.7 779.6,164.6 821.3,140.1 	"/>
	<polygon class="st1" points="877.8,49.3 871.7,45.9 830.2,70.3 855.5,84.9 	"/>
	<polygon class="st2" points="830.2,70.3 830,70.4 830,128.3 836.1,131.6 855.5,84.9 	"/>
	<polygon class="st3" points="877.8,49.3 836.1,73.8 836.1,131.6 877.8,107.2 	"/>
	<polygon class="st1" points="934.4,16.3 928.2,13 886.7,37.3 912.1,52 	"/>
	<polygon class="st2" points="886.7,37.3 886.5,37.4 886.5,95.3 892.7,98.7 912.1,52 	"/>
	<polygon class="st3" points="934.4,16.3 892.7,40.8 892.7,98.7 934.4,74.2 	"/>
	<polygon class="st1" points="821.3,156.2 815.1,152.9 773.6,177.2 798.9,191.9 	"/>
	<polygon class="st2" points="773.6,177.2 773.4,177.3 773.4,235.2 779.6,238.6 798.9,191.9 	"/>
	<polygon class="st3" points="821.3,156.2 779.6,180.7 779.6,238.6 821.3,214.1 	"/>
	<polygon class="st1" points="877.8,123.3 871.7,119.9 830.2,144.3 855.5,158.9 	"/>
	<polygon class="st2" points="830.2,144.3 830,144.4 830,202.3 836.1,205.6 855.5,158.9 	"/>
	<polygon class="st3" points="877.8,123.3 836.1,147.8 836.1,205.6 877.8,181.2 	"/>
	<polygon class="st1" points="934.4,90.3 928.2,87 886.7,111.3 912.1,126 	"/>
	<polygon class="st2" points="886.7,111.3 886.5,111.4 886.5,169.3 892.7,172.7 912.1,126 	"/>
	<polygon class="st3" points="934.4,90.3 892.7,114.8 892.7,172.7 934.4,148.2 	"/>
	<polygon class="st1" points="821.3,230.2 815.1,226.8 773.6,251.2 798.9,265.8 	"/>
	<polygon class="st2" points="773.6,251.2 773.4,251.3 773.4,309.2 779.6,312.6 798.9,265.8 	"/>
	<polygon class="st3" points="821.3,230.2 779.6,254.7 779.6,312.6 821.3,288.1 	"/>
	<polygon class="st1" points="877.8,197.3 871.7,193.9 830.2,218.3 855.5,232.9 	"/>
	<polygon class="st2" points="830.2,218.3 830,218.4 830,276.3 836.1,279.6 855.5,232.9 	"/>
	<polygon class="st3" points="877.8,197.3 836.1,221.7 836.1,279.6 877.8,255.2 	"/>
	<polygon class="st1" points="934.4,164.3 928.2,161 886.7,185.3 912.1,200 	"/>
	<polygon class="st2" points="886.7,185.3 886.5,185.4 886.5,243.3 892.7,246.7 912.1,200 	"/>
	<polygon class="st3" points="934.4,164.3 892.7,188.8 892.7,246.7 934.4,222.2 	"/>
	<polygon class="st1" points="821.3,304.2 815.1,300.8 773.6,325.2 798.9,339.8 	"/>
	<polygon class="st2" points="773.6,325.2 773.4,325.3 773.4,383.2 779.6,386.6 798.9,339.8 	"/>
	<polygon class="st3" points="821.3,304.2 779.6,328.7 779.6,386.6 821.3,362.1 	"/>
	<polygon class="st1" points="877.8,271.3 871.7,267.9 830.2,292.3 855.5,306.9 	"/>
	<polygon class="st2" points="830.2,292.3 830,292.4 830,350.3 836.1,353.6 855.5,306.9 	"/>
	<polygon class="st3" points="877.8,271.3 836.1,295.7 836.1,353.6 877.8,329.1 	"/>
	<polygon class="st1" points="934.4,238.3 928.2,235 886.7,259.3 912.1,273.9 	"/>
	<polygon class="st2" points="886.7,259.3 886.5,259.4 886.5,317.3 892.7,320.7 912.1,273.9 	"/>
	<polygon class="st3" points="934.4,238.3 892.7,262.8 892.7,320.7 934.4,296.2 	"/>
	<polygon class="st1" points="934.4,312.3 928.2,308.9 886.7,333.3 912.1,347.9 	"/>
	<polygon class="st2" points="886.7,333.3 886.5,333.4 886.5,391.3 892.7,394.7 912.1,347.9 	"/>
	<polygon class="st3" points="934.4,312.3 892.7,336.8 892.7,394.7 934.4,370.2 	"/>
	<polygon class="st1" points="708.2,148.2 702,144.8 660.5,169.2 685.8,183.8 	"/>
	<polygon class="st2" points="660.5,169.2 660.3,169.3 660.3,227.2 666.5,230.6 685.8,183.8 	"/>
	<polygon class="st3" points="708.2,148.2 666.5,172.7 666.5,230.6 708.2,206.1 	"/>
	<polygon class="st4" points="651.6,181.3 645.5,177.9 603.9,202.3 629.3,216.9 	"/>
	<polygon class="st5" points="603.9,202.3 603.8,202.4 603.8,260.2 609.9,263.6 629.3,216.9 	"/>
	<polygon class="st6" points="651.6,181.3 609.9,205.7 609.9,263.6 651.6,239.1 	"/>
	<polygon class="st4" points="595,214.3 588.9,210.9 547.4,235.3 572.7,249.9 	"/>
	<polygon class="st5" points="547.4,235.3 547.2,235.4 547.2,293.3 553.3,296.7 572.7,249.9 	"/>
	<polygon class="st6" points="595,214.3 553.3,238.8 553.3,296.7 595,272.2 	"/>
	<polygon class="st4" points="538.5,247.3 532.3,244 490.8,268.3 516.2,283 	"/>
	<polygon class="st5" points="490.8,268.3 490.6,268.4 490.6,326.3 496.8,329.7 516.2,283 	"/>
	<polygon class="st6" points="538.5,247.3 496.8,271.8 496.8,329.7 538.5,305.2 	"/>
	<polygon class="st4" points="481.9,280.4 475.8,277 434.3,301.4 459.6,316 	"/>
	<polygon class="st5" points="434.3,301.4 434.1,301.5 434.1,359.4 440.2,362.7 459.6,316 	"/>
	<polygon class="st6" points="481.9,280.4 440.2,304.9 440.2,362.7 481.9,338.3 	"/>
	<polygon class="st4" points="764.7,40.8 758.6,37.4 717.1,61.8 742.4,76.4 	"/>
	<polygon class="st5" points="717.1,61.8 716.9,61.9 716.9,119.7 723,123.1 742.4,76.4 	"/>
	<polygon class="st6" points="764.7,40.8 723,65.2 723,123.1 764.7,98.6 	"/>
	<polygon class="st4" points="821.3,7.9 815.1,4.6 773.6,28.9 798.9,43.6 	"/>
	<polygon class="st5" points="773.6,28.9 773.4,29 773.4,86.9 779.6,90.3 798.9,43.6 	"/>
	<polygon class="st6" points="821.3,7.9 779.6,32.4 779.6,90.3 821.3,65.8 	"/>
	<polygon class="st4" points="877.8,-24.9 871.7,-28.2 830.2,-3.9 855.5,10.7 	"/>
	<polygon class="st5" points="830.2,-3.9 830,-3.8 830,54.1 836.1,57.5 855.5,10.7 	"/>
	<polygon class="st6" points="877.8,-24.9 836.1,-0.4 836.1,57.5 877.8,33 	"/>
	<polygon class="st4" points="934.4,-57.7 928.2,-61.1 886.7,-36.7 912.1,-22.1 	"/>
	<polygon class="st5" points="886.7,-36.7 886.5,-36.6 886.5,21.3 892.7,24.7 912.1,-22.1 	"/>
	<polygon class="st6" points="934.4,-57.7 892.7,-33.2 892.7,24.7 934.4,0.2 	"/>
	<polygon class="st4" points="708.2,73.8 702,70.4 660.5,94.8 685.8,109.4 	"/>
	<polygon class="st5" points="660.5,94.8 660.3,94.9 660.3,152.8 666.5,156.2 685.8,109.4 	"/>
	<polygon class="st6" points="708.2,73.8 666.5,98.3 666.5,156.2 708.2,131.7 	"/>
	<polygon class="st4" points="651.6,106.8 645.5,103.5 603.9,127.8 629.3,142.5 	"/>
	<polygon class="st5" points="603.9,127.8 603.8,127.9 603.8,185.8 609.9,189.2 629.3,142.5 	"/>
	<polygon class="st6" points="651.6,106.8 609.9,131.3 609.9,189.2 651.6,164.7 	"/>
	<polygon class="st7" points="595,139.9 588.9,136.5 547.4,160.9 572.7,175.5 	"/>
	<polygon class="st8" points="547.4,160.9 547.2,161 547.2,218.9 553.3,222.2 572.7,175.5 	"/>
	<polygon class="st9" points="595,139.9 553.3,164.4 553.3,222.2 595,197.8 	"/>
	<path class="st7" d="M582.4,168.6l-2.7,1.6v-4.6c0-4.1-2.9-5.8-6.5-3.7l-0.1,0.1c-3.6,2.1-6.5,7.1-6.5,11.2v4.6l-2.7,1.6
		c-1.7,1-3,3.3-3,5.2v17.4c0,1.9,1.3,2.7,3,1.7l18.5-10.7c1.7-1,3-3.3,3-5.2v-17.4C585.4,168.4,584,167.6,582.4,168.6z M574,186.7
		v3.8c0,0.6-0.4,1.3-0.9,1.6l0,0c-0.5,0.3-0.9,0.1-0.9-0.5v-3.8c-0.9,0.1-1.6-0.5-1.6-1.8c0-1.6,1.1-3.5,2.5-4.3
		c1.4-0.8,2.5-0.2,2.5,1.4C575.6,184.4,575,185.8,574,186.7z M577.3,171.5l-8.3,4.8v-4.6c0-2.6,1.8-5.8,4.1-7.1l0.1-0.1
		c2.3-1.3,4.1-0.3,4.1,2.3V171.5z"/>
	<polygon class="st7" points="577.5,161.2 579.2,162.2 577.6,163 	"/>
	<polygon class="st7" points="584.4,168.3 585.9,169.1 584.3,170.3 	"/>
	<polygon class="st7" points="561.7,203.7 563.3,204.6 563.3,202.6 	"/>
	<path class="st10" d="M583.8,169.4l-2.7,1.6v-4.6c0-4.1-2.9-5.8-6.5-3.7l-0.1,0.1c-3.6,2.1-6.5,7.1-6.5,11.2v4.6l-2.7,1.6
		c-1.7,1-3,3.3-3,5.2v17.4c0,1.9,1.3,2.7,3,1.7l18.5-10.7c1.7-1,3-3.3,3-5.2v-17.4C586.8,169.2,585.4,168.4,583.8,169.4z
		 M575.5,187.5v3.8c0,0.6-0.4,1.3-0.9,1.6l0,0c-0.5,0.3-0.9,0.1-0.9-0.5v-3.8c-0.9,0.1-1.6-0.5-1.6-1.8c0-1.6,1.1-3.5,2.5-4.3
		c1.4-0.8,2.5-0.2,2.5,1.4C577,185.2,576.4,186.6,575.5,187.5z M578.7,172.3l-8.3,4.8v-4.6c0-2.6,1.8-5.8,4.1-7.1l0.1-0.1
		c2.3-1.3,4.1-0.3,4.1,2.3V172.3z"/>
	<polygon class="st7" points="538.5,172.9 532.3,169.6 490.8,193.9 516.2,208.6 	"/>
	<polygon class="st8" points="490.8,193.9 490.6,194 490.6,251.9 496.8,255.3 516.2,208.6 	"/>
	<polygon class="st9" points="538.5,172.9 496.8,197.4 496.8,255.3 538.5,230.8 	"/>
	<path class="st7" d="M525.8,201.6l-2.7,1.6v-4.6c0-4.1-2.9-5.8-6.5-3.7l-0.1,0.1c-3.6,2.1-6.5,7.1-6.5,11.2v4.6l-2.7,1.6
		c-1.7,1-3,3.3-3,5.2v17.4c0,1.9,1.3,2.7,3,1.7l18.5-10.7c1.7-1,3-3.3,3-5.2v-17.4C528.8,201.4,527.5,200.6,525.8,201.6z
		 M517.5,219.8v3.8c0,0.6-0.4,1.3-0.9,1.6l0,0c-0.5,0.3-0.9,0.1-0.9-0.5v-3.8c-0.9,0.1-1.6-0.5-1.6-1.8c0-1.6,1.1-3.5,2.5-4.3
		c1.4-0.8,2.5-0.2,2.5,1.4C519.1,217.4,518.4,218.8,517.5,219.8z M520.7,204.5l-8.3,4.8v-4.6c0-2.6,1.8-5.8,4.1-7.1l0.1-0.1
		c2.3-1.3,4.1-0.3,4.1,2.3V204.5z"/>
	<polygon class="st7" points="521,194.2 522.7,195.2 521.1,196.1 	"/>
	<polygon class="st7" points="527.8,201.3 529.3,202.2 527.7,203.3 	"/>
	<polygon class="st7" points="505.2,236.7 506.7,237.6 506.7,235.7 	"/>
	<path class="st10" d="M527.2,202.4l-2.7,1.6v-4.6c0-4.1-2.9-5.8-6.5-3.7l-0.1,0.1c-3.6,2.1-6.5,7.1-6.5,11.2v4.6l-2.7,1.6
		c-1.7,1-3,3.3-3,5.2v17.4c0,1.9,1.3,2.7,3,1.7l18.5-10.7c1.7-1,3-3.3,3-5.2v-17.4C530.2,202.2,528.9,201.4,527.2,202.4z
		 M518.9,220.6v3.8c0,0.6-0.4,1.3-0.9,1.6l0,0c-0.5,0.3-0.9,0.1-0.9-0.5v-3.8c-0.9,0.1-1.6-0.5-1.6-1.8c0-1.6,1.1-3.5,2.5-4.3
		c1.4-0.8,2.5-0.2,2.5,1.4C520.5,218.2,519.8,219.6,518.9,220.6z M522.1,205.3l-8.3,4.8v-4.6c0-2.6,1.8-5.8,4.1-7.1l0.1-0.1
		c2.3-1.3,4.1-0.3,4.1,2.3V205.3z"/>
	<polygon class="st7" points="481.9,206 475.8,202.6 434.3,227 459.6,241.6 	"/>
	<polygon class="st8" points="434.3,227 434.1,227.1 434.1,285 440.2,288.3 459.6,241.6 	"/>
	<polygon class="st9" points="481.9,206 440.2,230.4 440.2,288.3 481.9,263.8 	"/>
	<path class="st7" d="M469.2,234.6l-2.7,1.6v-4.6c0-4.1-2.9-5.8-6.5-3.7l-0.1,0.1c-3.6,2.1-6.5,7.1-6.5,11.2v4.6l-2.7,1.6
		c-1.7,1-3,3.3-3,5.2v17.4c0,1.9,1.3,2.7,3,1.7l18.5-10.7c1.7-1,3-3.3,3-5.2v-17.4C472.2,234.4,470.9,233.7,469.2,234.6z
		 M460.9,252.8v3.8c0,0.6-0.4,1.3-0.9,1.6l0,0c-0.5,0.3-0.9,0.1-0.9-0.5v-3.8c-0.9,0.1-1.6-0.5-1.6-1.8c0-1.6,1.1-3.5,2.5-4.3
		c1.4-0.8,2.5-0.2,2.5,1.4C462.5,250.4,461.8,251.8,460.9,252.8z M464.2,237.6l-8.3,4.8v-4.6c0-2.6,1.8-5.8,4.1-7.1l0.1-0.1
		c2.3-1.3,4.1-0.3,4.1,2.3V237.6z"/>
	<polygon class="st7" points="464.4,227.3 466.1,228.2 464.5,229.1 	"/>
	<polygon class="st7" points="471.2,234.4 472.8,235.2 471.1,236.4 	"/>
	<polygon class="st7" points="448.6,269.8 450.2,270.7 450.2,268.7 	"/>
	<path class="st10" d="M470.7,235.4L468,237v-4.6c0-4.1-2.9-5.8-6.5-3.7l-0.1,0.1c-3.6,2.1-6.5,7.1-6.5,11.2v4.6l-2.7,1.6
		c-1.7,1-3,3.3-3,5.2v17.4c0,1.9,1.3,2.7,3,1.7l18.5-10.7c1.7-1,3-3.3,3-5.2v-17.4C473.7,235.3,472.3,234.5,470.7,235.4z
		 M462.3,253.6v3.8c0,0.6-0.4,1.3-0.9,1.6l0,0c-0.5,0.3-0.9,0.1-0.9-0.5v-3.8c-0.9,0.1-1.6-0.5-1.6-1.8c0-1.6,1.1-3.5,2.5-4.3
		c1.4-0.8,2.5-0.2,2.5,1.4C463.9,251.2,463.3,252.7,462.3,253.6z M465.6,238.4l-8.3,4.8v-4.6c0-2.6,1.8-5.8,4.1-7.1l0.1-0.1
		c2.3-1.3,4.1-0.3,4.1,2.3V238.4z"/>
	<polygon class="st7" points="425.4,239 419.2,235.6 377.7,260 403,274.6 	"/>
	<polygon class="st8" points="377.7,260 377.5,260.1 377.5,318 383.7,321.4 403,274.6 	"/>
	<polygon class="st9" points="425.4,239 383.7,263.5 383.7,321.4 425.4,296.9 	"/>
	<path class="st7" d="M412.7,267.7l-2.7,1.6v-4.6c0-4.1-2.9-5.8-6.5-3.7l-0.1,0.1c-3.6,2.1-6.5,7.1-6.5,11.2v4.6l-2.7,1.6
		c-1.7,1-3,3.3-3,5.2v17.4c0,1.9,1.3,2.7,3,1.7l18.5-10.7c1.7-1,3-3.3,3-5.2v-17.4C415.7,267.5,414.3,266.7,412.7,267.7z
		 M404.4,285.8v3.8c0,0.6-0.4,1.3-0.9,1.6l0,0c-0.5,0.3-0.9,0.1-0.9-0.5v-3.8c-0.9,0.1-1.6-0.5-1.6-1.8c0-1.6,1.1-3.5,2.5-4.3
		c1.4-0.8,2.5-0.2,2.5,1.4C405.9,283.5,405.3,284.9,404.4,285.8z M407.6,270.6l-8.3,4.8v-4.6c0-2.6,1.8-5.8,4.1-7.1l0.1-0.1
		c2.3-1.3,4.1-0.3,4.1,2.3V270.6z"/>
	<polygon class="st7" points="407.8,260.3 409.6,261.3 408,262.2 	"/>
	<polygon class="st7" points="414.7,267.4 416.2,268.3 414.6,269.4 	"/>
	<polygon class="st7" points="392.1,302.8 393.6,303.7 393.6,301.7 	"/>
	<path class="st10" d="M414.1,268.5l-2.7,1.6v-4.6c0-4.1-2.9-5.8-6.5-3.7l-0.1,0.1c-3.6,2.1-6.5,7.1-6.5,11.2v4.6l-2.7,1.6
		c-1.7,1-3,3.3-3,5.2v17.4c0,1.9,1.3,2.7,3,1.7l18.5-10.7c1.7-1,3-3.3,3-5.2v-17.4C417.1,268.3,415.8,267.5,414.1,268.5z
		 M405.8,286.7v3.8c0,0.6-0.4,1.3-0.9,1.6l0,0c-0.5,0.3-0.9,0.1-0.9-0.5v-3.8c-0.9,0.1-1.6-0.5-1.6-1.8c0-1.6,1.1-3.5,2.5-4.3
		c1.4-0.8,2.5-0.2,2.5,1.4C407.4,284.3,406.7,285.7,405.8,286.7z M409,271.4l-8.3,4.8v-4.6c0-2.6,1.8-5.8,4.1-7.1l0.1-0.1
		c2.3-1.3,4.1-0.3,4.1,2.3V271.4z"/>
	<polygon class="st7" points="425.4,313.1 419.2,309.7 377.7,334.1 403,348.7 	"/>
	<polygon class="st8" points="377.7,334.1 377.5,334.2 377.5,392.1 383.7,395.4 403,348.7 	"/>
	<polygon class="st9" points="425.4,313.1 383.7,337.6 383.7,395.4 425.4,371 	"/>
	<path class="st7" d="M412.7,341.8l-2.7,1.6v-4.6c0-4.1-2.9-5.8-6.5-3.7l-0.1,0.1c-3.6,2.1-6.5,7.1-6.5,11.2v4.6l-2.7,1.6
		c-1.7,1-3,3.3-3,5.2V375c0,1.9,1.3,2.7,3,1.7l18.5-10.7c1.7-1,3-3.3,3-5.2v-17.4C415.7,341.6,414.3,340.8,412.7,341.8z
		 M404.4,359.9v3.8c0,0.6-0.4,1.3-0.9,1.6l0,0c-0.5,0.3-0.9,0.1-0.9-0.5V361c-0.9,0.1-1.6-0.5-1.6-1.8c0-1.6,1.1-3.5,2.5-4.3
		c1.4-0.8,2.5-0.2,2.5,1.4C405.9,357.6,405.3,359,404.4,359.9z M407.6,344.7l-8.3,4.8v-4.6c0-2.6,1.8-5.8,4.1-7.1l0.1-0.1
		c2.3-1.3,4.1-0.3,4.1,2.3V344.7z"/>
	<polygon class="st7" points="407.8,334.4 409.6,335.4 408,336.2 	"/>
	<polygon class="st7" points="414.7,341.5 416.2,342.3 414.6,343.5 	"/>
	<polygon class="st7" points="392.1,376.9 393.6,377.8 393.6,375.8 	"/>
	<path class="st10" d="M414.1,342.6l-2.7,1.6v-4.6c0-4.1-2.9-5.8-6.5-3.7l-0.1,0.1c-3.6,2.1-6.5,7.1-6.5,11.2v4.6l-2.7,1.6
		c-1.7,1-3,3.3-3,5.2v17.4c0,1.9,1.3,2.7,3,1.7l18.5-10.7c1.7-1,3-3.3,3-5.2v-17.4C417.1,342.4,415.8,341.6,414.1,342.6z
		 M405.8,360.7v3.8c0,0.6-0.4,1.3-0.9,1.6l0,0c-0.5,0.3-0.9,0.1-0.9-0.5v-3.8c-0.9,0.1-1.6-0.5-1.6-1.8c0-1.6,1.1-3.5,2.5-4.3
		c1.4-0.8,2.5-0.2,2.5,1.4C407.4,358.4,406.7,359.8,405.8,360.7z M409,345.5l-8.3,4.8v-4.6c0-2.6,1.8-5.8,4.1-7.1l0.1-0.1
		c2.3-1.3,4.1-0.3,4.1,2.3V345.5z"/>
	<polygon class="st7" points="368.8,272 362.7,268.7 321.1,293.1 346.5,307.7 	"/>
	<polygon class="st8" points="321.1,293.1 321,293.2 321,351 327.1,354.4 346.5,307.7 	"/>
	<polygon class="st9" points="368.8,272 327.1,296.5 327.1,354.4 368.8,329.9 	"/>
	<path class="st7" d="M356.1,300.7l-2.7,1.6v-4.6c0-4.1-2.9-5.8-6.5-3.7l-0.1,0.1c-3.6,2.1-6.5,7.1-6.5,11.2v4.6l-2.7,1.6
		c-1.7,1-3,3.3-3,5.2v17.4c0,1.9,1.3,2.7,3,1.7l18.5-10.7c1.7-1,3-3.3,3-5.2v-17.4C359.1,300.5,357.8,299.8,356.1,300.7z
		 M347.8,318.9v3.8c0,0.6-0.4,1.3-0.9,1.6l0,0c-0.5,0.3-0.9,0.1-0.9-0.5V320c-0.9,0.1-1.6-0.5-1.6-1.8c0-1.6,1.1-3.5,2.5-4.3
		c1.4-0.8,2.5-0.2,2.5,1.4C349.4,316.5,348.7,317.9,347.8,318.9z M351,303.7l-8.3,4.8v-4.6c0-2.6,1.8-5.8,4.1-7.1l0.1-0.1
		c2.3-1.3,4.1-0.3,4.1,2.3V303.7z"/>
	<polygon class="st7" points="351.3,293.4 353,294.3 351.4,295.2 	"/>
	<polygon class="st7" points="358.1,300.4 359.6,301.3 358,302.5 	"/>
	<polygon class="st7" points="335.5,335.9 337.1,336.7 337.1,334.8 	"/>
	<path class="st10" d="M357.5,301.5l-2.7,1.6v-4.6c0-4.1-2.9-5.8-6.5-3.7l-0.1,0.1c-3.6,2.1-6.5,7.1-6.5,11.2v4.6l-2.7,1.6
		c-1.7,1-3,3.3-3,5.2v17.4c0,1.9,1.3,2.7,3,1.7l18.5-10.7c1.7-1,3-3.3,3-5.2v-17.4C360.5,301.3,359.2,300.6,357.5,301.5z
		 M349.2,319.7v3.8c0,0.6-0.4,1.3-0.9,1.6l0,0c-0.5,0.3-0.9,0.1-0.9-0.5v-3.8c-0.9,0.1-1.6-0.5-1.6-1.8c0-1.6,1.1-3.5,2.5-4.3
		c1.4-0.8,2.5-0.2,2.5,1.4C350.8,317.3,350.1,318.7,349.2,319.7z M352.5,304.5l-8.3,4.8v-4.6c0-2.6,1.8-5.8,4.1-7.1l0.1-0.1
		c2.3-1.3,4.1-0.3,4.1,2.3V304.5z"/>
	<polygon class="st7" points="764.7,-33.7 758.6,-37 717.1,-12.7 742.4,2 	"/>
	<polygon class="st8" points="717.1,-12.7 716.9,-12.6 716.9,45.3 723,48.7 742.4,2 	"/>
	<polygon class="st9" points="764.7,-33.7 723,-9.2 723,48.7 764.7,24.2 	"/>
	<path class="st7" d="M752-5l-2.7,1.6v-4.6c0-4.1-2.9-5.8-6.5-3.7l-0.1,0.1c-3.6,2.1-6.5,7.1-6.5,11.2v4.6l-2.7,1.6
		c-1.7,1-3,3.3-3,5.2v17.4c0,1.9,1.3,2.7,3,1.7L752,19.2c1.7-1,3-3.3,3-5.2V-3.3C755-5.2,753.7-5.9,752-5z M743.7,13.2V17
		c0,0.6-0.4,1.3-0.9,1.6l0,0c-0.5,0.3-0.9,0.1-0.9-0.5v-3.8c-0.9,0.1-1.6-0.5-1.6-1.8c0-1.6,1.1-3.5,2.5-4.3s2.5-0.2,2.5,1.4
		C745.3,10.8,744.6,12.2,743.7,13.2z M747-2.1l-8.3,4.8v-4.6c0-2.6,1.8-5.8,4.1-7.1l0.1-0.1c2.3-1.3,4.1-0.3,4.1,2.3V-2.1z"/>
	<polygon class="st7" points="747.2,-12.4 748.9,-11.4 747.3,-10.5 	"/>
	<polygon class="st7" points="754,-5.3 755.6,-4.4 753.9,-3.2 	"/>
	<polygon class="st7" points="731.4,30.1 733,31 733,29.1 	"/>
	<path class="st10" d="M753.5-4.2l-2.7,1.6v-4.6c0-4.1-2.9-5.8-6.5-3.7l-0.1,0.1c-3.6,2.1-6.5,7.1-6.5,11.2v4.6l-2.7,1.6
		c-1.7,1-3,3.3-3,5.2V29c0,1.9,1.3,2.7,3,1.7l18.5-10.7c1.7-1,3-3.3,3-5.2V-2.5C756.5-4.4,755.1-5.1,753.5-4.2z M745.1,14v3.8
		c0,0.6-0.4,1.3-0.9,1.6l0,0c-0.5,0.3-0.9,0.1-0.9-0.5v-3.8c-0.9,0.1-1.6-0.5-1.6-1.8c0-1.6,1.1-3.5,2.5-4.3
		c1.4-0.8,2.5-0.2,2.5,1.4C746.7,11.6,746.1,13,745.1,14z M748.4-1.2L740,3.6v-4.6c0-2.6,1.8-5.8,4.1-7.1l0.1-0.1
		c2.3-1.3,4.1-0.3,4.1,2.3V-1.2z"/>
	<polygon class="st7" points="821.4,-66.9 815.2,-70.2 773.7,-45.8 799,-31.2 	"/>
	<polygon class="st8" points="773.7,-45.8 773.5,-45.7 773.5,12.1 779.7,15.5 799,-31.2 	"/>
	<polygon class="st9" points="821.4,-66.9 779.7,-42.4 779.7,15.5 821.4,-9 	"/>
	<path class="st7" d="M808.7-38.2l-2.7,1.6v-4.6c0-4.1-2.9-5.8-6.5-3.7l-0.1,0.1c-3.6,2.1-6.5,7.1-6.5,11.2v4.6l-2.7,1.6
		c-1.7,1-3,3.3-3,5.2V-5c0,1.9,1.3,2.7,3,1.7l18.5-10.7c1.7-1,3-3.3,3-5.2v-17.4C811.7-38.4,810.3-39.1,808.7-38.2z M800.4-20v3.8
		c0,0.6-0.4,1.3-0.9,1.6l0,0c-0.5,0.3-0.9,0.1-0.9-0.5v-3.8c-0.9,0.1-1.6-0.5-1.6-1.8c0-1.6,1.1-3.5,2.5-4.3
		c1.4-0.8,2.5-0.2,2.5,1.4C801.9-22.4,801.3-21,800.4-20z M803.6-35.2l-8.3,4.8v-4.6c0-2.6,1.8-5.8,4.1-7.1l0.1-0.1
		c2.3-1.3,4.1-0.3,4.1,2.3V-35.2z"/>
	<polygon class="st7" points="803.8,-45.5 805.5,-44.6 804,-43.7 	"/>
	<polygon class="st7" points="810.7,-38.5 812.2,-37.6 810.6,-36.4 	"/>
	<polygon class="st7" points="788.1,-3 789.6,-2.2 789.6,-4.1 	"/>
	<path class="st10" d="M810.1-37.4l-2.7,1.6v-4.6c0-4.1-2.9-5.8-6.5-3.7l-0.1,0.1c-3.6,2.1-6.5,7.1-6.5,11.2v4.6l-2.7,1.6
		c-1.7,1-3,3.3-3,5.2v17.4c0,1.9,1.3,2.7,3,1.7l18.5-10.7c1.7-1,3-3.3,3-5.2v-17.4C813.1-37.6,811.8-38.3,810.1-37.4z M801.8-19.2
		v3.8c0,0.6-0.4,1.3-0.9,1.6l0,0c-0.5,0.3-0.9,0.1-0.9-0.5v-3.8c-0.9,0.1-1.6-0.5-1.6-1.8c0-1.6,1.1-3.5,2.5-4.3
		c1.4-0.8,2.5-0.2,2.5,1.4C803.4-21.6,802.7-20.2,801.8-19.2z M805-34.4l-8.3,4.8v-4.6c0-2.6,1.8-5.8,4.1-7.1l0.1-0.1
		c2.3-1.3,4.1-0.3,4.1,2.3V-34.4z"/>
	<polygon class="st7" points="708.2,-0.6 702,-4 660.5,20.4 685.8,35 	"/>
	<polygon class="st8" points="660.5,20.4 660.3,20.5 660.3,78.4 666.5,81.7 685.8,35 	"/>
	<polygon class="st9" points="708.2,-0.6 666.5,23.9 666.5,81.7 708.2,57.3 	"/>
	<path class="st7" d="M695.5,28l-2.7,1.6V25c0-4.1-2.9-5.8-6.5-3.7l-0.1,0.1c-3.6,2.1-6.5,7.1-6.5,11.2v4.6l-2.7,1.6
		c-1.7,1-3,3.3-3,5.2v17.4c0,1.9,1.3,2.7,3,1.7l18.5-10.7c1.7-1,3-3.3,3-5.2V29.8C698.5,27.9,697.1,27.1,695.5,28z M687.2,46.2V50
		c0,0.6-0.4,1.3-0.9,1.6l0,0c-0.5,0.3-0.9,0.1-0.9-0.5v-3.8c-0.9,0.1-1.6-0.5-1.6-1.8c0-1.6,1.1-3.5,2.5-4.3
		c1.4-0.8,2.5-0.2,2.5,1.4C688.7,43.9,688.1,45.3,687.2,46.2z M690.4,31l-8.3,4.8v-4.6c0-2.6,1.8-5.8,4.1-7.1l0.1-0.1
		c2.3-1.3,4.1-0.3,4.1,2.3V31z"/>
	<polygon class="st7" points="690.6,20.7 692.3,21.7 690.8,22.5 	"/>
	<polygon class="st7" points="697.5,27.8 699,28.6 697.4,29.8 	"/>
	<polygon class="st7" points="674.9,63.2 676.4,64.1 676.4,62.1 	"/>
	<path class="st10" d="M696.9,28.9l-2.7,1.6v-4.6c0-4.1-2.9-5.8-6.5-3.7l-0.1,0.1c-3.6,2.1-6.5,7.1-6.5,11.2V38l-2.7,1.6
		c-1.7,1-3,3.3-3,5.2v17.4c0,1.9,1.3,2.7,3,1.7l18.5-10.7c1.7-1,3-3.3,3-5.2V30.6C699.9,28.7,698.6,27.9,696.9,28.9z M688.6,47v3.8
		c0,0.6-0.4,1.3-0.9,1.6l0,0c-0.5,0.3-0.9,0.1-0.9-0.5v-3.8c-0.9,0.1-1.6-0.5-1.6-1.8c0-1.6,1.1-3.5,2.5-4.3
		c1.4-0.8,2.5-0.2,2.5,1.4C690.1,44.7,689.5,46.1,688.6,47z M691.8,31.8l-8.3,4.8V32c0-2.6,1.8-5.8,4.1-7.1l0.1-0.1
		c2.3-1.3,4.1-0.3,4.1,2.3V31.8z"/>
	<polygon class="st7" points="651.6,32.4 645.5,29.1 603.9,53.4 629.3,68 	"/>
	<polygon class="st8" points="603.9,53.4 603.8,53.5 603.8,111.4 609.9,114.8 629.3,68 	"/>
	<polygon class="st9" points="651.6,32.4 609.9,56.9 609.9,114.8 651.6,90.3 	"/>
	<path class="st7" d="M638.9,61.1l-2.7,1.6V58c0-4.1-2.9-5.8-6.5-3.7l-0.1,0.1c-3.6,2.1-6.5,7.1-6.5,11.2v4.6l-2.7,1.6
		c-1.7,1-3,3.3-3,5.2v17.4c0,1.9,1.3,2.7,3,1.7l18.5-10.7c1.7-1,3-3.3,3-5.2V62.8C641.9,60.9,640.6,60.1,638.9,61.1z M630.6,79.3
		v3.8c0,0.6-0.4,1.3-0.9,1.6l0,0c-0.5,0.3-0.9,0.1-0.9-0.5v-3.8c-0.9,0.1-1.6-0.5-1.6-1.8c0-1.6,1.1-3.5,2.5-4.3
		c1.4-0.8,2.5-0.2,2.5,1.4C632.2,76.9,631.5,78.3,630.6,79.3z M633.8,64l-8.3,4.8v-4.6c0-2.6,1.8-5.8,4.1-7.1l0.1-0.1
		c2.3-1.3,4.1-0.3,4.1,2.3V64z"/>
	<polygon class="st7" points="634.1,53.7 635.8,54.7 634.2,55.6 	"/>
	<polygon class="st7" points="640.9,60.8 642.4,61.7 640.8,62.8 	"/>
	<polygon class="st7" points="618.3,96.2 619.8,97.1 619.8,95.2 	"/>
	<path class="st10" d="M640.3,61.9l-2.7,1.6v-4.6c0-4.1-2.9-5.8-6.5-3.7l-0.1,0.1c-3.6,2.1-6.5,7.1-6.5,11.2V71l-2.7,1.6
		c-1.7,1-3,3.3-3,5.2v17.4c0,1.9,1.3,2.7,3,1.7l18.5-10.7c1.7-1,3-3.3,3-5.2V63.6C643.3,61.7,642,60.9,640.3,61.9z M632,80.1v3.8
		c0,0.6-0.4,1.3-0.9,1.6l0,0c-0.5,0.3-0.9,0.1-0.9-0.5v-3.8c-0.9,0.1-1.6-0.5-1.6-1.8c0-1.6,1.1-3.5,2.5-4.3s2.5-0.2,2.5,1.4
		C633.6,77.7,632.9,79.1,632,80.1z M635.3,64.8l-8.3,4.8V65c0-2.6,1.8-5.8,4.1-7.1l0.1-0.1c2.3-1.3,4.1-0.3,4.1,2.3V64.8z"/>
	<polygon class="st7" points="595,65.5 588.9,62.1 547.4,86.5 572.7,101.1 	"/>
	<polygon class="st8" points="547.4,86.5 547.2,86.6 547.2,144.5 553.3,147.8 572.7,101.1 	"/>
	<polygon class="st9" points="595,65.5 553.3,89.9 553.3,147.8 595,123.3 	"/>
	<path class="st7" d="M582.4,94.1l-2.7,1.6v-4.6c0-4.1-2.9-5.8-6.5-3.7l-0.1,0.1c-3.6,2.1-6.5,7.1-6.5,11.2v4.6l-2.7,1.6
		c-1.7,1-3,3.3-3,5.2v17.4c0,1.9,1.3,2.7,3,1.7l18.5-10.7c1.7-1,3-3.3,3-5.2V95.8C585.4,93.9,584,93.2,582.4,94.1z M574,112.3v3.8
		c0,0.6-0.4,1.3-0.9,1.6l0,0c-0.5,0.3-0.9,0.1-0.9-0.5v-3.8c-0.9,0.1-1.6-0.5-1.6-1.8c0-1.6,1.1-3.5,2.5-4.3s2.5-0.2,2.5,1.4
		C575.6,109.9,575,111.3,574,112.3z M577.3,97.1l-8.3,4.8v-4.6c0-2.6,1.8-5.8,4.1-7.1l0.1-0.1c2.3-1.3,4.1-0.3,4.1,2.3V97.1z"/>
	<polygon class="st7" points="577.5,86.8 579.2,87.7 577.6,88.6 	"/>
	<polygon class="st7" points="584.4,93.9 585.9,94.7 584.3,95.9 	"/>
	<polygon class="st7" points="561.7,129.3 563.3,130.2 563.3,128.2 	"/>
	<path class="st10" d="M583.8,94.9l-2.7,1.6v-4.6c0-4.1-2.9-5.8-6.5-3.7l-0.1,0.1c-3.6,2.1-6.5,7.1-6.5,11.2v4.6l-2.7,1.6
		c-1.7,1-3,3.3-3,5.2v17.4c0,1.9,1.3,2.7,3,1.7l18.5-10.7c1.7-1,3-3.3,3-5.2V96.7C586.8,94.8,585.4,94,583.8,94.9z M575.5,113.1v3.8
		c0,0.6-0.4,1.3-0.9,1.6l0,0c-0.5,0.3-0.9,0.1-0.9-0.5v-3.8c-0.9,0.1-1.6-0.5-1.6-1.8c0-1.6,1.1-3.5,2.5-4.3
		c1.4-0.8,2.5-0.2,2.5,1.4C577,110.7,576.4,112.2,575.5,113.1z M578.7,97.9l-8.3,4.8v-4.6c0-2.6,1.8-5.8,4.1-7.1l0.1-0.1
		c2.3-1.3,4.1-0.3,4.1,2.3V97.9z"/>
	<polygon class="st7" points="538.5,98.5 532.3,95.1 490.8,119.5 516.2,134.1 	"/>
	<polygon class="st8" points="490.8,119.5 490.6,119.6 490.6,177.5 496.8,180.9 516.2,134.1 	"/>
	<polygon class="st9" points="538.5,98.5 496.8,123 496.8,180.9 538.5,156.4 	"/>
	<path class="st7" d="M525.8,127.2l-2.7,1.6v-4.6c0-4.1-2.9-5.8-6.5-3.7l-0.1,0.1c-3.6,2.1-6.5,7.1-6.5,11.2v4.6l-2.7,1.6
		c-1.7,1-3,3.3-3,5.2v17.4c0,1.9,1.3,2.7,3,1.7l18.5-10.7c1.7-1,3-3.3,3-5.2v-17.4C528.8,127,527.5,126.2,525.8,127.2z M517.5,145.3
		v3.8c0,0.6-0.4,1.3-0.9,1.6l0,0c-0.5,0.3-0.9,0.1-0.9-0.5v-3.8c-0.9,0.1-1.6-0.5-1.6-1.8c0-1.6,1.1-3.5,2.5-4.3
		c1.4-0.8,2.5-0.2,2.5,1.4C519.1,143,518.4,144.4,517.5,145.3z M520.7,130.1l-8.3,4.8v-4.6c0-2.6,1.8-5.8,4.1-7.1l0.1-0.1
		c2.3-1.3,4.1-0.3,4.1,2.3V130.1z"/>
	<polygon class="st7" points="521,119.8 522.7,120.8 521.1,121.7 	"/>
	<polygon class="st7" points="527.8,126.9 529.3,127.8 527.7,128.9 	"/>
	<polygon class="st7" points="505.2,162.3 506.7,163.2 506.7,161.2 	"/>
	<path class="st10" d="M527.2,128l-2.7,1.6v-4.6c0-4.1-2.9-5.8-6.5-3.7l-0.1,0.1c-3.6,2.1-6.5,7.1-6.5,11.2v4.6l-2.7,1.6
		c-1.7,1-3,3.3-3,5.2v17.4c0,1.9,1.3,2.7,3,1.7l18.5-10.7c1.7-1,3-3.3,3-5.2v-17.4C530.2,127.8,528.9,127,527.2,128z M518.9,146.2
		v3.8c0,0.6-0.4,1.3-0.9,1.6l0,0c-0.5,0.3-0.9,0.1-0.9-0.5v-3.8c-0.9,0.1-1.6-0.5-1.6-1.8c0-1.6,1.1-3.5,2.5-4.3
		c1.4-0.8,2.5-0.2,2.5,1.4C520.5,143.8,519.8,145.2,518.9,146.2z M522.1,130.9l-8.3,4.8v-4.6c0-2.6,1.8-5.8,4.1-7.1l0.1-0.1
		c2.3-1.3,4.1-0.3,4.1,2.3V130.9z"/>
	<polygon class="st7" points="481.9,131.5 475.8,128.2 434.3,152.5 459.6,167.2 	"/>
	<polygon class="st8" points="434.3,152.5 434.1,152.7 434.1,210.5 440.2,213.9 459.6,167.2 	"/>
	<polygon class="st9" points="481.9,131.5 440.2,156 440.2,213.9 481.9,189.4 	"/>
	<path class="st7" d="M469.2,160.2l-2.7,1.6v-4.6c0-4.1-2.9-5.8-6.5-3.7l-0.1,0.1c-3.6,2.1-6.5,7.1-6.5,11.2v4.6l-2.7,1.6
		c-1.7,1-3,3.3-3,5.2v17.4c0,1.9,1.3,2.7,3,1.7l18.5-10.7c1.7-1,3-3.3,3-5.2v-17.4C472.2,160,470.9,159.3,469.2,160.2z M460.9,178.4
		v3.8c0,0.6-0.4,1.3-0.9,1.6l0,0c-0.5,0.3-0.9,0.1-0.9-0.5v-3.8c-0.9,0.1-1.6-0.5-1.6-1.8c0-1.6,1.1-3.5,2.5-4.3
		c1.4-0.8,2.5-0.2,2.5,1.4C462.5,176,461.8,177.4,460.9,178.4z M464.2,163.2l-8.3,4.8v-4.6c0-2.6,1.8-5.8,4.1-7.1l0.1-0.1
		c2.3-1.3,4.1-0.3,4.1,2.3V163.2z"/>
	<polygon class="st7" points="464.4,152.9 466.1,153.8 464.5,154.7 	"/>
	<polygon class="st7" points="471.2,159.9 472.8,160.8 471.1,162 	"/>
	<polygon class="st7" points="448.6,195.4 450.2,196.2 450.2,194.3 	"/>
	<path class="st10" d="M470.7,161l-2.7,1.6V158c0-4.1-2.9-5.8-6.5-3.7l-0.1,0.1c-3.6,2.1-6.5,7.1-6.5,11.2v4.6l-2.7,1.6
		c-1.7,1-3,3.3-3,5.2v17.4c0,1.9,1.3,2.7,3,1.7l18.5-10.7c1.7-1,3-3.3,3-5.2v-17.4C473.7,160.8,472.3,160.1,470.7,161z M462.3,179.2
		v3.8c0,0.6-0.4,1.3-0.9,1.6l0,0c-0.5,0.3-0.9,0.1-0.9-0.5v-3.8c-0.9,0.1-1.6-0.5-1.6-1.8c0-1.6,1.1-3.5,2.5-4.3
		c1.4-0.8,2.5-0.2,2.5,1.4C463.9,176.8,463.3,178.2,462.3,179.2z M465.6,164l-8.3,4.8v-4.6c0-2.6,1.8-5.8,4.1-7.1l0.1-0.1
		c2.3-1.3,4.1-0.3,4.1,2.3V164z"/>
	<polygon class="st7" points="425.4,164.6 419.2,161.2 377.7,185.6 403,200.2 	"/>
	<polygon class="st8" points="377.7,185.6 377.5,185.7 377.5,243.6 383.7,246.9 403,200.2 	"/>
	<polygon class="st9" points="425.4,164.6 383.7,189.1 383.7,246.9 425.4,222.5 	"/>
	<path class="st7" d="M412.7,193.3l-2.7,1.6v-4.6c0-4.1-2.9-5.8-6.5-3.7l-0.1,0.1c-3.6,2.1-6.5,7.1-6.5,11.2v4.6l-2.7,1.6
		c-1.7,1-3,3.3-3,5.2v17.4c0,1.9,1.3,2.7,3,1.7l18.5-10.7c1.7-1,3-3.3,3-5.2V195C415.7,193.1,414.3,192.3,412.7,193.3z M404.4,211.4
		v3.8c0,0.6-0.4,1.3-0.9,1.6l0,0c-0.5,0.3-0.9,0.1-0.9-0.5v-3.8c-0.9,0.1-1.6-0.5-1.6-1.8c0-1.6,1.1-3.5,2.5-4.3
		c1.4-0.8,2.5-0.2,2.5,1.4C405.9,209.1,405.3,210.5,404.4,211.4z M407.6,196.2l-8.3,4.8v-4.6c0-2.6,1.8-5.8,4.1-7.1l0.1-0.1
		c2.3-1.3,4.1-0.3,4.1,2.3V196.2z"/>
	<polygon class="st7" points="407.8,185.9 409.6,186.9 408,187.7 	"/>
	<polygon class="st7" points="414.7,193 416.2,193.8 414.6,195 	"/>
	<polygon class="st7" points="392.1,228.4 393.6,229.3 393.6,227.3 	"/>
	<path class="st10" d="M414.1,194.1l-2.7,1.6V191c0-4.1-2.9-5.8-6.5-3.7l-0.1,0.1c-3.6,2.1-6.5,7.1-6.5,11.2v4.6l-2.7,1.6
		c-1.7,1-3,3.3-3,5.2v17.4c0,1.9,1.3,2.7,3,1.7l18.5-10.7c1.7-1,3-3.3,3-5.2v-17.4C417.1,193.9,415.8,193.1,414.1,194.1z
		 M405.8,212.2v3.8c0,0.6-0.4,1.3-0.9,1.6l0,0c-0.5,0.3-0.9,0.1-0.9-0.5v-3.8c-0.9,0.1-1.6-0.5-1.6-1.8c0-1.6,1.1-3.5,2.5-4.3
		c1.4-0.8,2.5-0.2,2.5,1.4C407.4,209.9,406.7,211.3,405.8,212.2z M409,197l-8.3,4.8v-4.6c0-2.6,1.8-5.8,4.1-7.1l0.1-0.1
		c2.3-1.3,4.1-0.3,4.1,2.3V197z"/>
	<polygon class="st7" points="368.8,197.6 362.7,194.3 321.1,218.6 346.5,233.3 	"/>
	<polygon class="st8" points="321.1,218.6 321,218.7 321,276.6 327.1,280 346.5,233.3 	"/>
	<polygon class="st9" points="368.8,197.6 327.1,222.1 327.1,280 368.8,255.5 	"/>
	<path class="st7" d="M356.1,226.3l-2.7,1.6v-4.6c0-4.1-2.9-5.8-6.5-3.7l-0.1,0.1c-3.6,2.1-6.5,7.1-6.5,11.2v4.6l-2.7,1.6
		c-1.7,1-3,3.3-3,5.2v17.4c0,1.9,1.3,2.7,3,1.7l18.5-10.7c1.7-1,3-3.3,3-5.2V228C359.1,226.1,357.8,225.3,356.1,226.3z M347.8,244.5
		v3.8c0,0.6-0.4,1.3-0.9,1.6l0,0c-0.5,0.3-0.9,0.1-0.9-0.5v-3.8c-0.9,0.1-1.6-0.5-1.6-1.8c0-1.6,1.1-3.5,2.5-4.3
		c1.4-0.8,2.5-0.2,2.5,1.4C349.4,242.1,348.7,243.5,347.8,244.5z M351,229.2l-8.3,4.8v-4.6c0-2.6,1.8-5.8,4.1-7.1l0.1-0.1
		c2.3-1.3,4.1-0.3,4.1,2.3V229.2z"/>
	<polygon class="st7" points="351.3,218.9 353,219.9 351.4,220.8 	"/>
	<polygon class="st7" points="358.1,226 359.6,226.9 358,228 	"/>
	<polygon class="st7" points="335.5,261.4 337.1,262.3 337.1,260.4 	"/>
	<path class="st10" d="M357.5,227.1l-2.7,1.6V224c0-4.1-2.9-5.8-6.5-3.7l-0.1,0.1c-3.6,2.1-6.5,7.1-6.5,11.2v4.6l-2.7,1.6
		c-1.7,1-3,3.3-3,5.2v17.4c0,1.9,1.3,2.7,3,1.7l18.5-10.7c1.7-1,3-3.3,3-5.2v-17.4C360.5,226.9,359.2,226.2,357.5,227.1z
		 M349.2,245.3v3.8c0,0.6-0.4,1.3-0.9,1.6l0,0c-0.5,0.3-0.9,0.1-0.9-0.5v-3.8c-0.9,0.1-1.6-0.5-1.6-1.8c0-1.6,1.1-3.5,2.5-4.3
		c1.4-0.8,2.5-0.2,2.5,1.4C350.8,242.9,350.1,244.3,349.2,245.3z M352.5,230l-8.3,4.8v-4.6c0-2.6,1.8-5.8,4.1-7.1l0.1-0.1
		c2.3-1.3,4.1-0.3,4.1,2.3V230z"/>
	<polygon class="st7" points="312.2,230.7 306.1,227.3 264.6,251.7 289.9,266.3 	"/>
	<polygon class="st8" points="264.6,251.7 264.4,251.8 264.4,309.7 270.5,313 289.9,266.3 	"/>
	<polygon class="st9" points="312.2,230.7 270.5,255.1 270.5,313 312.2,288.6 	"/>
	<path class="st7" d="M299.6,259.3l-2.7,1.6v-4.6c0-4.1-2.9-5.8-6.5-3.7l-0.1,0.1c-3.6,2.1-6.5,7.1-6.5,11.2v4.6l-2.7,1.6
		c-1.7,1-3,3.3-3,5.2v17.4c0,1.9,1.3,2.7,3,1.7l18.5-10.7c1.7-1,3-3.3,3-5.2v-17.4C302.6,259.2,301.2,258.4,299.6,259.3z
		 M291.2,277.5v3.8c0,0.6-0.4,1.3-0.9,1.6l0,0c-0.5,0.3-0.9,0.1-0.9-0.5v-3.8c-0.9,0.1-1.6-0.5-1.6-1.8c0-1.6,1.1-3.5,2.5-4.3
		c1.4-0.8,2.5-0.2,2.5,1.4C292.8,275.1,292.2,276.6,291.2,277.5z M294.5,262.3l-8.3,4.8v-4.6c0-2.6,1.8-5.8,4.1-7.1l0.1-0.1
		c2.3-1.3,4.1-0.3,4.1,2.3V262.3z"/>
	<polygon class="st7" points="294.7,252 296.4,252.9 294.9,253.8 	"/>
	<polygon class="st7" points="301.6,259.1 303.1,259.9 301.5,261.1 	"/>
	<polygon class="st7" points="278.9,294.5 280.5,295.4 280.5,293.4 	"/>
	<path class="st10" d="M301,260.2l-2.7,1.6v-4.6c0-4.1-2.9-5.8-6.5-3.7l-0.1,0.1c-3.6,2.1-6.5,7.1-6.5,11.2v4.6l-2.7,1.6
		c-1.7,1-3,3.3-3,5.2v17.4c0,1.9,1.3,2.7,3,1.7l18.5-10.7c1.7-1,3-3.3,3-5.2v-17.4C304,260,302.6,259.2,301,260.2z M292.7,278.3v3.8
		c0,0.6-0.4,1.3-0.9,1.6l0,0c-0.5,0.3-0.9,0.1-0.9-0.5v-3.8c-0.9,0.1-1.6-0.5-1.6-1.8c0-1.6,1.1-3.5,2.5-4.3
		c1.4-0.8,2.5-0.2,2.5,1.4C294.2,276,293.6,277.4,292.7,278.3z M295.9,263.1l-8.3,4.8v-4.6c0-2.6,1.8-5.8,4.1-7.1l0.1-0.1
		c2.3-1.3,4.1-0.3,4.1,2.3V263.1z"/>
	<polygon class="st7" points="312.2,303.8 306.1,300.4 264.6,324.8 289.9,339.4 	"/>
	<polygon class="st8" points="264.6,324.8 264.4,324.9 264.4,382.8 270.5,386.2 289.9,339.4 	"/>
	<polygon class="st9" points="312.2,303.8 270.5,328.3 270.5,386.2 312.2,361.7 	"/>
	<path class="st7" d="M299.6,332.5l-2.7,1.6v-4.6c0-4.1-2.9-5.8-6.5-3.7l-0.1,0.1c-3.6,2.1-6.5,7.1-6.5,11.2v4.6l-2.7,1.6
		c-1.7,1-3,3.3-3,5.2v17.4c0,1.9,1.3,2.7,3,1.7l18.5-10.7c1.7-1,3-3.3,3-5.2v-17.4C302.6,332.3,301.2,331.5,299.6,332.5z
		 M291.2,350.6v3.8c0,0.6-0.4,1.3-0.9,1.6l0,0c-0.5,0.3-0.9,0.1-0.9-0.5v-3.8c-0.9,0.1-1.6-0.5-1.6-1.8c0-1.6,1.1-3.5,2.5-4.3
		c1.4-0.8,2.5-0.2,2.5,1.4C292.8,348.3,292.2,349.7,291.2,350.6z M294.5,335.4l-8.3,4.8v-4.6c0-2.6,1.8-5.8,4.1-7.1l0.1-0.1
		c2.3-1.3,4.1-0.3,4.1,2.3V335.4z"/>
	<polygon class="st7" points="294.7,325.1 296.4,326.1 294.9,327 	"/>
	<polygon class="st7" points="301.6,332.2 303.1,333.1 301.5,334.2 	"/>
	<polygon class="st7" points="278.9,367.6 280.5,368.5 280.5,366.5 	"/>
	<path class="st10" d="M301,333.3l-2.7,1.6v-4.6c0-4.1-2.9-5.8-6.5-3.7l-0.1,0.1c-3.6,2.1-6.5,7.1-6.5,11.2v4.6l-2.7,1.6
		c-1.7,1-3,3.3-3,5.2v17.4c0,1.9,1.3,2.7,3,1.7l18.5-10.7c1.7-1,3-3.3,3-5.2V335C304,333.1,302.6,332.3,301,333.3z M292.7,351.5v3.8
		c0,0.6-0.4,1.3-0.9,1.6l0,0c-0.5,0.3-0.9,0.1-0.9-0.5v-3.8c-0.9,0.1-1.6-0.5-1.6-1.8c0-1.6,1.1-3.5,2.5-4.3
		c1.4-0.8,2.5-0.2,2.5,1.4C294.2,349.1,293.6,350.5,292.7,351.5z M295.9,336.2l-8.3,4.8v-4.6c0-2.6,1.8-5.8,4.1-7.1l0.1-0.1
		c2.3-1.3,4.1-0.3,4.1,2.3V336.2z"/>
	<polygon class="st7" points="255.7,263.7 249.5,260.3 208,284.7 233.4,299.3 	"/>
	<polygon class="st8" points="208,284.7 207.8,284.8 207.8,342.7 214,346.1 233.4,299.3 	"/>
	<polygon class="st9" points="255.7,263.7 214,288.2 214,346.1 255.7,321.6 	"/>
	<path class="st7" d="M243,292.4l-2.7,1.6v-4.6c0-4.1-2.9-5.8-6.5-3.7l-0.1,0.1c-3.6,2.1-6.5,7.1-6.5,11.2v4.6l-2.7,1.6
		c-1.7,1-3,3.3-3,5.2v17.4c0,1.9,1.3,2.7,3,1.7l18.5-10.7c1.7-1,3-3.3,3-5.2v-17.4C246,292.2,244.7,291.4,243,292.4z M234.7,310.6
		v3.8c0,0.6-0.4,1.3-0.9,1.6l0,0c-0.5,0.3-0.9,0.1-0.9-0.5v-3.8c-0.9,0.1-1.6-0.5-1.6-1.8c0-1.6,1.1-3.5,2.5-4.3s2.5-0.2,2.5,1.4
		C236.3,308.2,235.6,309.6,234.7,310.6z M237.9,295.3l-8.3,4.8v-4.6c0-2.6,1.8-5.8,4.1-7.1l0.1-0.1c2.3-1.3,4.1-0.3,4.1,2.3V295.3z"
		/>
	<polygon class="st7" points="238.2,285 239.9,286 238.3,286.9 	"/>
	<polygon class="st7" points="245,292.1 246.5,293 244.9,294.1 	"/>
	<polygon class="st7" points="222.4,327.5 223.9,328.4 223.9,326.4 	"/>
	<path class="st10" d="M244.4,293.2l-2.7,1.6v-4.6c0-4.1-2.9-5.8-6.5-3.7l-0.1,0.1c-3.6,2.1-6.5,7.1-6.5,11.2v4.6l-2.7,1.6
		c-1.7,1-3,3.3-3,5.2v17.4c0,1.9,1.3,2.7,3,1.7l18.5-10.7c1.7-1,3-3.3,3-5.2v-17.4C247.4,293,246.1,292.2,244.4,293.2z M236.1,311.4
		v3.8c0,0.6-0.4,1.3-0.9,1.6l0,0c-0.5,0.3-0.9,0.1-0.9-0.5v-3.8c-0.9,0.1-1.6-0.5-1.6-1.8c0-1.6,1.1-3.5,2.5-4.3s2.5-0.2,2.5,1.4
		C237.7,309,237,310.4,236.1,311.4z M239.3,296.1l-8.3,4.8v-4.6c0-2.6,1.8-5.8,4.1-7.1l0.1-0.1c2.3-1.3,4.1-0.3,4.1,2.3V296.1z"/>
	<polygon class="st7" points="199.2,296.3 193.1,292.9 151.6,317.3 176.9,331.9 	"/>
	<polygon class="st8" points="151.6,317.3 151.4,317.4 151.4,375.3 157.5,378.6 176.9,331.9 	"/>
	<polygon class="st9" points="199.2,296.3 157.5,320.7 157.5,378.6 199.2,354.1 	"/>
	<path class="st7" d="M186.5,324.9l-2.7,1.6v-4.6c0-4.1-2.9-5.8-6.5-3.7l-0.1,0.1c-3.6,2.1-6.5,7.1-6.5,11.2v4.6l-2.7,1.6
		c-1.7,1-3,3.3-3,5.2v17.4c0,1.9,1.3,2.7,3,1.7l18.5-10.7c1.7-1,3-3.3,3-5.2v-17.4C189.5,324.7,188.2,324,186.5,324.9z M178.2,343.1
		v3.8c0,0.6-0.4,1.3-0.9,1.6l0,0c-0.5,0.3-0.9,0.1-0.9-0.5v-3.8c-0.9,0.1-1.6-0.5-1.6-1.8c0-1.6,1.1-3.5,2.5-4.3
		c1.4-0.8,2.5-0.2,2.5,1.4C179.8,340.7,179.1,342.1,178.2,343.1z M181.5,327.9l-8.3,4.8V328c0-2.6,1.8-5.8,4.1-7.1l0.1-0.1
		c2.3-1.3,4.1-0.3,4.1,2.3V327.9z"/>
	<polygon class="st7" points="181.7,317.6 183.4,318.5 181.8,319.4 	"/>
	<polygon class="st7" points="188.5,324.7 190.1,325.5 188.4,326.7 	"/>
	<polygon class="st7" points="165.9,360.1 167.5,361 167.5,359 	"/>
	<path class="st10" d="M188,325.7l-2.7,1.6v-4.6c0-4.1-2.9-5.8-6.5-3.7l-0.1,0.1c-3.6,2.1-6.5,7.1-6.5,11.2v4.6l-2.7,1.6
		c-1.7,1-3,3.3-3,5.2V359c0,1.9,1.3,2.7,3,1.7L188,350c1.7-1,3-3.3,3-5.2v-17.4C191,325.6,189.6,324.8,188,325.7z M179.6,343.9v3.8
		c0,0.6-0.4,1.3-0.9,1.6l0,0c-0.5,0.3-0.9,0.1-0.9-0.5V345c-0.9,0.1-1.6-0.5-1.6-1.8c0-1.6,1.1-3.5,2.5-4.3c1.4-0.8,2.5-0.2,2.5,1.4
		C181.2,341.5,180.6,343,179.6,343.9z M182.9,328.7l-8.3,4.8v-4.6c0-2.6,1.8-5.8,4.1-7.1l0.1-0.1c2.3-1.3,4.1-0.3,4.1,2.3V328.7z"/>
	<polygon class="st7" points="651.6,-42 645.5,-45.4 603.9,-21 629.3,-6.4 	"/>
	<polygon class="st8" points="603.9,-21 603.8,-20.9 603.8,37 609.9,40.4 629.3,-6.4 	"/>
	<polygon class="st9" points="651.6,-42 609.9,-17.5 609.9,40.4 651.6,15.9 	"/>
	<path class="st7" d="M638.9-13.3l-2.7,1.6v-4.6c0-4.1-2.9-5.8-6.5-3.7l-0.1,0.1c-3.6,2.1-6.5,7.1-6.5,11.2v4.6l-2.7,1.6
		c-1.7,1-3,3.3-3,5.2v17.4c0,1.9,1.3,2.7,3,1.7l18.5-10.7c1.7-1,3-3.3,3-5.2v-17.4C641.9-13.5,640.6-14.3,638.9-13.3z M630.6,4.8
		v3.8c0,0.6-0.4,1.3-0.9,1.6l0,0c-0.5,0.3-0.9,0.1-0.9-0.5V5.9c-0.9,0.1-1.6-0.5-1.6-1.8c0-1.6,1.1-3.5,2.5-4.3
		c1.4-0.8,2.5-0.2,2.5,1.4C632.2,2.5,631.5,3.9,630.6,4.8z M633.8-10.4l-8.3,4.8v-4.6c0-2.6,1.8-5.8,4.1-7.1l0.1-0.1
		c2.3-1.3,4.1-0.3,4.1,2.3V-10.4z"/>
	<polygon class="st7" points="634.1,-20.7 635.8,-19.7 634.2,-18.8 	"/>
	<polygon class="st7" points="640.9,-13.6 642.4,-12.7 640.8,-11.6 	"/>
	<polygon class="st7" points="618.3,21.8 619.8,22.7 619.8,20.7 	"/>
	<path class="st10" d="M640.3-12.5l-2.7,1.6v-4.6c0-4.1-2.9-5.8-6.5-3.7l-0.1,0.1c-3.6,2.1-6.5,7.1-6.5,11.2v4.6l-2.7,1.6
		c-1.7,1-3,3.3-3,5.2v17.4c0,1.9,1.3,2.7,3,1.7l18.5-10.7c1.7-1,3-3.3,3-5.2v-17.4C643.3-12.7,642-13.5,640.3-12.5z M632,5.7v3.8
		c0,0.6-0.4,1.3-0.9,1.6l0,0c-0.5,0.3-0.9,0.1-0.9-0.5V6.7c-0.9,0.1-1.6-0.5-1.6-1.8c0-1.6,1.1-3.5,2.5-4.3s2.5-0.2,2.5,1.4
		C633.6,3.3,632.9,4.7,632,5.7z M635.3-9.6l-8.3,4.8v-4.6c0-2.6,1.8-5.8,4.1-7.1l0.1-0.1c2.3-1.3,4.1-0.3,4.1,2.3V-9.6z"/>
	<polygon class="st7" points="595,-9 588.9,-12.3 547.4,12 572.7,26.7 	"/>
	<polygon class="st8" points="547.4,12 547.2,12.2 547.2,70 553.3,73.4 572.7,26.7 	"/>
	<polygon class="st9" points="595,-9 553.3,15.5 553.3,73.4 595,48.9 	"/>
	<path class="st7" d="M582.4,19.7l-2.7,1.6v-4.6c0-4.1-2.9-5.8-6.5-3.7l-0.1,0.1c-3.6,2.1-6.5,7.1-6.5,11.2v4.6l-2.7,1.6
		c-1.7,1-3,3.3-3,5.2v17.4c0,1.9,1.3,2.7,3,1.7L582.4,44c1.7-1,3-3.3,3-5.2V21.4C585.4,19.5,584,18.8,582.4,19.7z M574,37.9v3.8
		c0,0.6-0.4,1.3-0.9,1.6l0,0c-0.5,0.3-0.9,0.1-0.9-0.5V39c-0.9,0.1-1.6-0.5-1.6-1.8c0-1.6,1.1-3.5,2.5-4.3c1.4-0.8,2.5-0.2,2.5,1.4
		C575.6,35.5,575,36.9,574,37.9z M577.3,22.6l-8.3,4.8v-4.6c0-2.6,1.8-5.8,4.1-7.1l0.1-0.1c2.3-1.3,4.1-0.3,4.1,2.3V22.6z"/>
	<polygon class="st7" points="577.5,12.4 579.2,13.3 577.6,14.2 	"/>
	<polygon class="st7" points="584.4,19.4 585.9,20.3 584.3,21.5 	"/>
	<polygon class="st7" points="561.7,54.9 563.3,55.7 563.3,53.8 	"/>
	<path class="st10" d="M583.8,20.5l-2.7,1.6v-4.6c0-4.1-2.9-5.8-6.5-3.7l-0.1,0.1c-3.6,2.1-6.5,7.1-6.5,11.2v4.6l-2.7,1.6
		c-1.7,1-3,3.3-3,5.2v17.4c0,1.9,1.3,2.7,3,1.7l18.5-10.7c1.7-1,3-3.3,3-5.2V22.2C586.8,20.3,585.4,19.6,583.8,20.5z M575.5,38.7
		v3.8c0,0.6-0.4,1.3-0.9,1.6l0,0c-0.5,0.3-0.9,0.1-0.9-0.5v-3.8c-0.9,0.1-1.6-0.5-1.6-1.8c0-1.6,1.1-3.5,2.5-4.3
		c1.4-0.8,2.5-0.2,2.5,1.4C577,36.3,576.4,37.7,575.5,38.7z M578.7,23.5l-8.3,4.8v-4.6c0-2.6,1.8-5.8,4.1-7.1l0.1-0.1
		c2.3-1.3,4.1-0.3,4.1,2.3V23.5z"/>
	<polygon class="st7" points="538.5,24.1 532.3,20.7 490.8,45.1 516.2,59.7 	"/>
	<polygon class="st8" points="490.8,45.1 490.6,45.2 490.6,103.1 496.8,106.4 516.2,59.7 	"/>
	<polygon class="st9" points="538.5,24.1 496.8,48.6 496.8,106.4 538.5,82 	"/>
	<path class="st7" d="M525.8,52.8l-2.7,1.6v-4.6c0-4.1-2.9-5.8-6.5-3.7l-0.1,0.1c-3.6,2.1-6.5,7.1-6.5,11.2v4.6l-2.7,1.6
		c-1.7,1-3,3.3-3,5.2V86c0,1.9,1.3,2.7,3,1.7L525.8,77c1.7-1,3-3.3,3-5.2V54.5C528.8,52.6,527.5,51.8,525.8,52.8z M517.5,70.9v3.8
		c0,0.6-0.4,1.3-0.9,1.6l0,0c-0.5,0.3-0.9,0.1-0.9-0.5V72c-0.9,0.1-1.6-0.5-1.6-1.8c0-1.6,1.1-3.5,2.5-4.3c1.4-0.8,2.5-0.2,2.5,1.4
		C519.1,68.6,518.4,70,517.5,70.9z M520.7,55.7l-8.3,4.8v-4.6c0-2.6,1.8-5.8,4.1-7.1l0.1-0.1c2.3-1.3,4.1-0.3,4.1,2.3V55.7z"/>
	<polygon class="st7" points="521,45.4 522.7,46.4 521.1,47.2 	"/>
	<polygon class="st7" points="527.8,52.5 529.3,53.3 527.7,54.5 	"/>
	<polygon class="st7" points="505.2,87.9 506.7,88.8 506.7,86.8 	"/>
	<path class="st10" d="M527.2,53.6l-2.7,1.6v-4.6c0-4.1-2.9-5.8-6.5-3.7l-0.1,0.1c-3.6,2.1-6.5,7.1-6.5,11.2v4.6l-2.7,1.6
		c-1.7,1-3,3.3-3,5.2v17.4c0,1.9,1.3,2.7,3,1.7l18.5-10.7c1.7-1,3-3.3,3-5.2V55.3C530.2,53.4,528.9,52.6,527.2,53.6z M518.9,71.7
		v3.8c0,0.6-0.4,1.3-0.9,1.6l0,0c-0.5,0.3-0.9,0.1-0.9-0.5v-3.8c-0.9,0.1-1.6-0.5-1.6-1.8c0-1.6,1.1-3.5,2.5-4.3s2.5-0.2,2.5,1.4
		C520.5,69.4,519.8,70.8,518.9,71.7z M522.1,56.5l-8.3,4.8v-4.6c0-2.6,1.8-5.8,4.1-7.1l0.1-0.1c2.3-1.3,4.1-0.3,4.1,2.3V56.5z"/>
	<polygon class="st7" points="481.9,57.1 475.8,53.8 434.3,78.1 459.6,92.8 	"/>
	<polygon class="st8" points="434.3,78.1 434.1,78.2 434.1,136.1 440.2,139.5 459.6,92.8 	"/>
	<polygon class="st9" points="481.9,57.1 440.2,81.6 440.2,139.5 481.9,115 	"/>
	<path class="st7" d="M469.2,85.8l-2.7,1.6v-4.6c0-4.1-2.9-5.8-6.5-3.7l-0.1,0.1c-3.6,2.1-6.5,7.1-6.5,11.2v4.6l-2.7,1.6
		c-1.7,1-3,3.3-3,5.2V119c0,1.9,1.3,2.7,3,1.7l18.5-10.7c1.7-1,3-3.3,3-5.2V87.5C472.2,85.6,470.9,84.8,469.2,85.8z M460.9,104v3.8
		c0,0.6-0.4,1.3-0.9,1.6l0,0c-0.5,0.3-0.9,0.1-0.9-0.5V105c-0.9,0.1-1.6-0.5-1.6-1.8c0-1.6,1.1-3.5,2.5-4.3c1.4-0.8,2.5-0.2,2.5,1.4
		C462.5,101.6,461.8,103,460.9,104z M464.2,88.7l-8.3,4.8v-4.6c0-2.6,1.8-5.8,4.1-7.1l0.1-0.1c2.3-1.3,4.1-0.3,4.1,2.3V88.7z"/>
	<polygon class="st7" points="464.4,78.4 466.1,79.4 464.5,80.3 	"/>
	<polygon class="st7" points="471.2,85.5 472.8,86.4 471.1,87.5 	"/>
	<polygon class="st7" points="448.6,120.9 450.2,121.8 450.2,119.9 	"/>
	<path class="st10" d="M470.7,86.6l-2.7,1.6v-4.6c0-4.1-2.9-5.8-6.5-3.7l-0.1,0.1c-3.6,2.1-6.5,7.1-6.5,11.2v4.6l-2.7,1.6
		c-1.7,1-3,3.3-3,5.2v17.4c0,1.9,1.3,2.7,3,1.7l18.5-10.7c1.7-1,3-3.3,3-5.2V88.3C473.7,86.4,472.3,85.7,470.7,86.6z M462.3,104.8
		v3.8c0,0.6-0.4,1.3-0.9,1.6l0,0c-0.5,0.3-0.9,0.1-0.9-0.5v-3.8c-0.9,0.1-1.6-0.5-1.6-1.8c0-1.6,1.1-3.5,2.5-4.3
		c1.4-0.8,2.5-0.2,2.5,1.4C463.9,102.4,463.3,103.8,462.3,104.8z M465.6,89.5l-8.3,4.8v-4.6c0-2.6,1.8-5.8,4.1-7.1l0.1-0.1
		c2.3-1.3,4.1-0.3,4.1,2.3V89.5z"/>
	<polygon class="st7" points="425.4,90.2 419.2,86.8 377.7,111.2 403,125.8 	"/>
	<polygon class="st8" points="377.7,111.2 377.5,111.3 377.5,169.2 383.7,172.5 403,125.8 	"/>
	<polygon class="st9" points="425.4,90.2 383.7,114.6 383.7,172.5 425.4,148.1 	"/>
	<path class="st7" d="M412.7,118.8l-2.7,1.6v-4.6c0-4.1-2.9-5.8-6.5-3.7l-0.1,0.1c-3.6,2.1-6.5,7.1-6.5,11.2v4.6l-2.7,1.6
		c-1.7,1-3,3.3-3,5.2v17.4c0,1.9,1.3,2.7,3,1.7l18.5-10.7c1.7-1,3-3.3,3-5.2v-17.4C415.7,118.6,414.3,117.9,412.7,118.8z M404.4,137
		v3.8c0,0.6-0.4,1.3-0.9,1.6l0,0c-0.5,0.3-0.9,0.1-0.9-0.5v-3.8c-0.9,0.1-1.6-0.5-1.6-1.8c0-1.6,1.1-3.5,2.5-4.3
		c1.4-0.8,2.5-0.2,2.5,1.4C405.9,134.6,405.3,136,404.4,137z M407.6,121.8l-8.3,4.8v-4.6c0-2.6,1.8-5.8,4.1-7.1l0.1-0.1
		c2.3-1.3,4.1-0.3,4.1,2.3V121.8z"/>
	<polygon class="st7" points="407.8,111.5 409.6,112.4 408,113.3 	"/>
	<polygon class="st7" points="414.7,118.6 416.2,119.4 414.6,120.6 	"/>
	<polygon class="st7" points="392.1,154 393.6,154.9 393.6,152.9 	"/>
	<path class="st10" d="M414.1,119.7l-2.7,1.6v-4.6c0-4.1-2.9-5.8-6.5-3.7l-0.1,0.1c-3.6,2.1-6.5,7.1-6.5,11.2v4.6l-2.7,1.6
		c-1.7,1-3,3.3-3,5.2v17.4c0,1.9,1.3,2.7,3,1.7l18.5-10.7c1.7-1,3-3.3,3-5.2v-17.4C417.1,119.5,415.8,118.7,414.1,119.7z
		 M405.8,137.8v3.8c0,0.6-0.4,1.3-0.9,1.6l0,0c-0.5,0.3-0.9,0.1-0.9-0.5v-3.8c-0.9,0.1-1.6-0.5-1.6-1.8c0-1.6,1.1-3.5,2.5-4.3
		c1.4-0.8,2.5-0.2,2.5,1.4C407.4,135.5,406.7,136.9,405.8,137.8z M409,122.6l-8.3,4.8v-4.6c0-2.6,1.8-5.8,4.1-7.1l0.1-0.1
		c2.3-1.3,4.1-0.3,4.1,2.3V122.6z"/>
	<polygon class="st4" points="368.8,123.2 362.7,119.8 321.1,144.2 346.5,158.8 	"/>
	<polygon class="st5" points="321.1,144.2 321,144.3 321,202.2 327.1,205.6 346.5,158.8 	"/>
	<polygon class="st6" points="368.8,123.2 327.1,147.7 327.1,205.6 368.8,181.1 	"/>
	<polygon class="st4" points="312.2,156.3 306.1,152.9 264.6,177.3 289.9,191.9 	"/>
	<polygon class="st5" points="264.6,177.3 264.4,177.4 264.4,235.2 270.5,238.6 289.9,191.9 	"/>
	<polygon class="st6" points="312.2,156.3 270.5,180.7 270.5,238.6 312.2,214.1 	"/>
	<polygon class="st4" points="255.7,189.3 249.5,185.9 208,210.3 233.4,224.9 	"/>
	<polygon class="st5" points="208,210.3 207.8,210.4 207.8,268.3 214,271.7 233.4,224.9 	"/>
	<polygon class="st6" points="255.7,189.3 214,213.8 214,271.7 255.7,247.2 	"/>
	<polygon class="st4" points="199.1,222.3 193,219 151.5,243.3 176.8,258 	"/>
	<polygon class="st5" points="151.5,243.3 151.3,243.4 151.3,301.3 157.4,304.7 176.8,258 	"/>
	<polygon class="st6" points="199.1,222.3 157.4,246.8 157.4,304.7 199.1,280.2 	"/>
	<polygon class="st4" points="142.6,255.7 136.4,252.3 94.9,276.7 120.3,291.3 	"/>
	<polygon class="st5" points="94.9,276.7 94.7,276.8 94.7,334.7 100.9,338.1 120.3,291.3 	"/>
	<polygon class="st6" points="142.6,255.7 100.9,280.2 100.9,338.1 142.6,313.6 	"/>
	<polygon class="st4" points="86,289 79.9,285.7 38.4,310 63.7,324.7 	"/>
	<polygon class="st5" points="38.4,310 38.2,310.1 38.2,368 44.3,371.4 63.7,324.7 	"/>
	<polygon class="st6" points="86,289 44.3,313.5 44.3,371.4 86,346.9 	"/>
	<polygon class="st4" points="142.6,32.1 136.4,28.8 94.9,53.1 120.3,67.8 	"/>
	<polygon class="st5" points="94.9,53.1 94.7,53.3 94.7,111.1 100.9,114.5 120.3,67.8 	"/>
	<polygon class="st6" points="142.6,32.1 100.9,56.6 100.9,114.5 142.6,90 	"/>
	<polygon class="st4" points="86,65.2 79.9,61.8 38.4,86.2 63.7,100.8 	"/>
	<polygon class="st5" points="38.4,86.2 38.2,86.3 38.2,144.1 44.3,147.5 63.7,100.8 	"/>
	<polygon class="st6" points="86,65.2 44.3,89.6 44.3,147.5 86,123 	"/>
	<polygon class="st4" points="86,-9.6 79.9,-13 38.4,11.4 63.7,26 	"/>
	<polygon class="st5" points="38.4,11.4 38.2,11.5 38.2,69.4 44.3,72.8 63.7,26 	"/>
	<polygon class="st6" points="86,-9.6 44.3,14.9 44.3,72.8 86,48.3 	"/>
	<polygon class="st4" points="29.6,98.5 23.5,95.1 -18,119.5 7.3,134.1 	"/>
	<polygon class="st5" points="-18,119.5 -18.2,119.6 -18.2,177.5 -12.1,180.9 7.3,134.1 	"/>
	<polygon class="st6" points="29.6,98.5 -12.1,123 -12.1,180.9 29.6,156.4 	"/>
	<polygon class="st4" points="29.6,24.1 23.5,20.7 -18,45.1 7.3,59.7 	"/>
	<polygon class="st5" points="-18,45.1 -18.2,45.2 -18.2,103.1 -12.1,106.4 7.3,59.7 	"/>
	<polygon class="st6" points="29.6,24.1 -12.1,48.6 -12.1,106.4 29.6,82 	"/>
	<polygon class="st4" points="29.6,-50.7 23.5,-54 -18,-29.7 7.3,-15 	"/>
	<polygon class="st5" points="-18,-29.7 -18.2,-29.6 -18.2,28.3 -12.1,31.7 7.3,-15 	"/>
	<polygon class="st6" points="29.6,-50.7 -12.1,-26.2 -12.1,31.7 29.6,7.2 	"/>
	<polygon class="st4" points="538.5,-50.3 532.3,-53.7 490.8,-29.3 516.2,-14.7 	"/>
	<polygon class="st5" points="490.8,-29.3 490.6,-29.2 490.6,28.7 496.8,32 516.2,-14.7 	"/>
	<polygon class="st6" points="538.5,-50.3 496.8,-25.9 496.8,32 538.5,7.5 	"/>
	<polygon class="st4" points="481.9,-17.3 475.8,-20.7 434.3,3.7 459.6,18.3 	"/>
	<polygon class="st5" points="434.3,3.7 434.1,3.8 434.1,61.7 440.2,65.1 459.6,18.3 	"/>
	<polygon class="st6" points="481.9,-17.3 440.2,7.2 440.2,65.1 481.9,40.6 	"/>
	<polygon class="st4" points="425.4,15.7 419.2,12.4 377.7,36.8 403,51.4 	"/>
	<polygon class="st5" points="377.7,36.8 377.5,36.9 377.5,94.7 383.7,98.1 403,51.4 	"/>
	<polygon class="st6" points="425.4,15.7 383.7,40.2 383.7,98.1 425.4,73.6 	"/>
	<polygon class="st4" points="368.8,48.8 362.7,45.4 321.1,69.8 346.5,84.4 	"/>
	<polygon class="st5" points="321.1,69.8 321,69.9 321,127.8 327.1,131.2 346.5,84.4 	"/>
	<polygon class="st6" points="368.8,48.8 327.1,73.3 327.1,131.2 368.8,106.7 	"/>
	<polygon class="st4" points="312.2,81.8 306.1,78.5 264.6,102.8 289.9,117.5 	"/>
	<polygon class="st5" points="264.6,102.8 264.4,102.9 264.4,160.8 270.5,164.2 289.9,117.5 	"/>
	<polygon class="st6" points="312.2,81.8 270.5,106.3 270.5,164.2 312.2,139.7 	"/>
	<polygon class="st1" points="255.7,114.9 249.5,111.5 208,135.9 233.4,150.5 	"/>
	<polygon class="st2" points="208,135.9 207.8,136 207.8,193.9 214,197.2 233.4,150.5 	"/>
	<polygon class="st3" points="255.7,114.9 214,139.4 214,197.2 255.7,172.8 	"/>
	<polygon class="st1" points="199.1,147.9 193,144.5 151.5,168.9 176.8,183.5 	"/>
	<polygon class="st2" points="151.5,168.9 151.3,169 151.3,226.9 157.4,230.3 176.8,183.5 	"/>
	<polygon class="st3" points="199.1,147.9 157.4,172.4 157.4,230.3 199.1,205.8 	"/>
	<polygon class="st1" points="142.6,180.9 136.4,177.6 94.9,201.9 120.3,216.6 	"/>
	<polygon class="st2" points="94.9,201.9 94.7,202 94.7,259.9 100.9,263.3 120.3,216.6 	"/>
	<polygon class="st3" points="142.6,180.9 100.9,205.4 100.9,263.3 142.6,238.8 	"/>
	<polygon class="st1" points="86,214 79.9,210.6 38.4,235 63.7,249.6 	"/>
	<polygon class="st2" points="38.4,235 38.2,235.1 38.2,292.9 44.3,296.3 63.7,249.6 	"/>
	<polygon class="st3" points="86,214 44.3,238.4 44.3,296.3 86,271.8 	"/>
	<polygon class="st1" points="29.5,247 23.3,243.6 -18.2,268 7.1,282.6 	"/>
	<polygon class="st2" points="-18.2,268 -18.4,268.1 -18.4,326 -12.2,329.3 7.1,282.6 	"/>
	<polygon class="st3" points="29.5,247 -12.2,271.5 -12.2,329.3 29.5,304.9 	"/>
	<polygon class="st1" points="142.6,106.7 136.4,103.4 94.9,127.7 120.3,142.4 	"/>
	<polygon class="st2" points="94.9,127.7 94.7,127.8 94.7,185.7 100.9,189.1 120.3,142.4 	"/>
	<polygon class="st3" points="142.6,106.7 100.9,131.2 100.9,189.1 142.6,164.6 	"/>
	<polygon class="st1" points="142.7,-42.6 136.5,-46 95,-21.6 120.3,-7 	"/>
	<polygon class="st2" points="95,-21.6 94.8,-21.5 94.8,36.4 101,39.7 120.3,-7 	"/>
	<polygon class="st3" points="142.7,-42.6 101,-18.2 101,39.7 142.7,15.3 	"/>
	<polygon class="st1" points="86,139.8 79.9,136.4 38.4,160.8 63.7,175.4 	"/>
	<polygon class="st2" points="38.4,160.8 38.2,160.9 38.2,218.7 44.3,222.1 63.7,175.4 	"/>
	<polygon class="st3" points="86,139.8 44.3,164.2 44.3,222.1 86,197.6 	"/>
	<polygon class="st1" points="29.5,172.8 23.3,169.4 -18.2,193.8 7.1,208.4 	"/>
	<polygon class="st2" points="-18.2,193.8 -18.4,193.9 -18.4,251.8 -12.2,255.1 7.1,208.4 	"/>
	<polygon class="st3" points="29.5,172.8 -12.2,197.3 -12.2,255.1 29.5,230.7 	"/>
	<polygon class="st1" points="425.4,-58.7 419.2,-62 377.7,-37.7 403,-23 	"/>
	<polygon class="st2" points="377.7,-37.7 377.5,-37.6 377.5,20.3 383.7,23.7 403,-23 	"/>
	<polygon class="st3" points="425.4,-58.7 383.7,-34.2 383.7,23.7 425.4,-0.8 	"/>
	<polygon class="st1" points="368.8,-25.6 362.7,-29 321.1,-4.6 346.5,10 	"/>
	<polygon class="st2" points="321.1,-4.6 321,-4.5 321,53.4 327.1,56.7 346.5,10 	"/>
	<polygon class="st3" points="368.8,-25.6 327.1,-1.2 327.1,56.7 368.8,32.3 	"/>
	<polygon class="st1" points="312.2,7.4 306.1,4 264.6,28.4 289.9,43 	"/>
	<polygon class="st2" points="264.6,28.4 264.4,28.5 264.4,86.4 270.5,89.8 289.9,43 	"/>
	<polygon class="st3" points="312.2,7.4 270.5,31.9 270.5,89.8 312.2,65.3 	"/>
	<polygon class="st1" points="255.7,40.5 249.5,37.1 208,61.5 233.4,76.1 	"/>
	<polygon class="st2" points="208,61.5 207.8,61.6 207.8,119.4 214,122.8 233.4,76.1 	"/>
	<polygon class="st3" points="255.7,40.5 214,64.9 214,122.8 255.7,98.3 	"/>
	<polygon class="st1" points="199.1,73.5 193,70.1 151.5,94.5 176.8,109.1 	"/>
	<polygon class="st2" points="151.5,94.5 151.3,94.6 151.3,152.5 157.4,155.9 176.8,109.1 	"/>
	<polygon class="st3" points="199.1,73.5 157.4,98 157.4,155.9 199.1,131.4 	"/>
	<polygon class="st1" points="312.2,-67 306.1,-70.4 264.6,-46 289.9,-31.4 	"/>
	<polygon class="st2" points="264.6,-46 264.4,-45.9 264.4,12 270.5,15.4 289.9,-31.4 	"/>
	<polygon class="st3" points="312.2,-67 270.5,-42.5 270.5,15.4 312.2,-9.1 	"/>
	<polygon class="st1" points="255.7,-34 249.5,-37.3 208,-13 233.4,1.7 	"/>
	<polygon class="st2" points="208,-13 207.8,-12.9 207.8,45 214,48.4 233.4,1.7 	"/>
	<polygon class="st3" points="255.7,-34 214,-9.5 214,48.4 255.7,23.9 	"/>
	<polygon class="st1" points="199.1,-0.9 193,-4.3 151.5,20.1 176.8,34.7 	"/>
	<polygon class="st2" points="151.5,20.1 151.3,20.2 151.3,78.1 157.4,81.4 176.8,34.7 	"/>
	<polygon class="st3" points="199.1,-0.9 157.4,23.6 157.4,81.4 199.1,57 	"/>
</g>
</svg>
