<?xml version="1.0" encoding="utf-8"?>
<!-- Generator: Adobe Illustrator 22.0.0, SVG Export Plug-In . SVG Version: 6.00 Build 0)  -->
<svg version="1.1" id="Layer_1" xmlns="http://www.w3.org/2000/svg" xmlns:xlink="http://www.w3.org/1999/xlink" x="0px" y="0px"
	 viewBox="0 0 430 200" style="enable-background:new 0 0 430 200;" xml:space="preserve">
<style type="text/css">
	.st0{clip-path:url(#SVGID_2_);}
	.st1{fill:#4F4F4F;}
	.st2{fill:#424242;}
	.st3{fill:#303030;}
	.st4{fill:#72F059;}
	.st5{fill:#66D64E;}
	.st6{fill:#1FB800;}
	.st7{fill:#F96A66;}
	.st8{fill:#EB5450;}
	.st9{fill:#EC1034;}
	.st10{fill:#FFFFFF;}
</style>
<g>
	<defs>
		<rect id="SVGID_1_" width="430" height="200"/>
	</defs>
	<clipPath id="SVGID_2_">
		<use xlink:href="#SVGID_1_"  style="overflow:visible;"/>
	</clipPath>
	<g class="st0">
		<polygon class="st1" points="426.6,177.8 422.3,175.5 393.7,192.3 411.2,202.4 		"/>
		<polygon class="st2" points="393.7,192.3 393.6,192.4 393.6,232.3 397.8,234.6 411.2,202.4 		"/>
		<polygon class="st3" points="426.6,177.8 397.8,194.7 397.8,234.6 426.6,217.7 		"/>
		<polygon class="st1" points="426.6,126.6 422.3,124.2 393.7,141 411.2,151.1 		"/>
		<polygon class="st2" points="393.7,141 393.6,141.1 393.6,181 397.8,183.3 411.2,151.1 		"/>
		<polygon class="st3" points="426.6,126.6 397.8,143.4 397.8,183.3 426.6,166.4 		"/>
		<polygon class="st1" points="387.6,149.3 383.4,147 354.7,163.8 372.2,173.9 		"/>
		<polygon class="st2" points="354.7,163.8 354.6,163.9 354.6,203.8 358.9,206.1 372.2,173.9 		"/>
		<polygon class="st3" points="387.6,149.3 358.9,166.2 358.9,206.1 387.6,189.2 		"/>
		<polygon class="st1" points="348.6,172.1 344.4,169.8 315.8,186.6 333.2,196.7 		"/>
		<polygon class="st2" points="315.8,186.6 315.6,186.6 315.6,226.5 319.9,228.9 333.2,196.7 		"/>
		<polygon class="st3" points="348.6,172.1 319.9,189 319.9,228.9 348.6,212 		"/>
		<polygon class="st1" points="309.6,194.9 305.4,192.5 276.8,209.3 294.3,219.4 		"/>
		<polygon class="st2" points="276.8,209.3 276.7,209.4 276.7,249.3 280.9,251.6 294.3,219.4 		"/>
		<polygon class="st3" points="309.6,194.9 280.9,211.7 280.9,251.6 309.6,234.8 		"/>
		<polygon class="st1" points="426.6,75.3 422.3,72.9 393.7,89.7 411.2,99.8 		"/>
		<polygon class="st2" points="393.7,89.7 393.6,89.8 393.6,129.7 397.8,132 411.2,99.8 		"/>
		<polygon class="st3" points="426.6,75.3 397.8,92.1 397.8,132 426.6,115.2 		"/>
		<polygon class="st1" points="387.6,98 383.4,95.7 354.7,112.5 372.2,122.6 		"/>
		<polygon class="st2" points="354.7,112.5 354.6,112.6 354.6,152.5 358.9,154.8 372.2,122.6 		"/>
		<polygon class="st3" points="387.6,98 358.9,114.9 358.9,154.8 387.6,137.9 		"/>
		<polygon class="st4" points="348.6,120.8 344.4,118.5 315.8,135.3 333.2,145.4 		"/>
		<polygon class="st5" points="315.8,135.3 315.6,135.4 315.6,175.3 319.9,177.6 333.2,145.4 		"/>
		<polygon class="st6" points="348.6,120.8 319.9,137.7 319.9,177.6 348.6,160.7 		"/>
		<polygon class="st4" points="309.6,143.6 305.4,141.3 276.8,158.1 294.3,168.1 		"/>
		<polygon class="st5" points="276.8,158.1 276.7,158.1 276.7,198 280.9,200.3 294.3,168.1 		"/>
		<polygon class="st6" points="309.6,143.6 280.9,160.5 280.9,200.3 309.6,183.5 		"/>
		<polygon class="st4" points="270.7,166.4 266.4,164 237.8,180.8 255.3,190.9 		"/>
		<polygon class="st5" points="237.8,180.8 237.7,180.9 237.7,220.8 241.9,223.1 255.3,190.9 		"/>
		<polygon class="st6" points="270.7,166.4 241.9,183.2 241.9,223.1 270.7,206.2 		"/>
		<polygon class="st4" points="231.7,189.1 227.4,186.8 198.8,203.6 216.3,213.7 		"/>
		<polygon class="st5" points="198.8,203.6 198.7,203.7 198.7,243.6 202.9,245.9 216.3,213.7 		"/>
		<polygon class="st6" points="231.7,189.1 202.9,206 202.9,245.9 231.7,229 		"/>
		<polygon class="st4" points="426.6,24 422.3,21.7 393.7,38.5 411.2,48.5 		"/>
		<polygon class="st5" points="393.7,38.5 393.6,38.5 393.6,78.4 397.8,80.7 411.2,48.5 		"/>
		<polygon class="st6" points="426.6,24 397.8,40.9 397.8,80.7 426.6,63.9 		"/>
		<polygon class="st4" points="387.6,46.8 383.4,44.4 354.7,61.2 372.2,71.3 		"/>
		<polygon class="st5" points="354.7,61.2 354.6,61.3 354.6,101.2 358.9,103.5 372.2,71.3 		"/>
		<polygon class="st6" points="387.6,46.8 358.9,63.6 358.9,103.5 387.6,86.6 		"/>
		<polygon class="st4" points="348.6,69.5 344.4,67.2 315.8,84 333.2,94.1 		"/>
		<polygon class="st5" points="315.8,84 315.6,84.1 315.6,124 319.9,126.3 333.2,94.1 		"/>
		<polygon class="st6" points="348.6,69.5 319.9,86.4 319.9,126.3 348.6,109.4 		"/>
		<g>
			<polygon class="st7" points="309.6,92.3 305.4,90 276.8,106.8 294.3,116.9 			"/>
			<polygon class="st8" points="276.8,106.8 276.7,106.8 276.7,146.7 280.9,149.1 294.3,116.9 			"/>
			<polygon class="st9" points="309.6,92.3 280.9,109.2 280.9,149.1 309.6,132.2 			"/>
		</g>
		<g>
			<path class="st7" d="M300.9,112.1l-1.9,1.1v-3.2c0-2.8-2-4-4.5-2.6l-0.1,0c-2.5,1.4-4.5,4.9-4.5,7.7v3.2l-1.9,1.1
				c-1.1,0.7-2.1,2.3-2.1,3.6v12c0,1.3,0.9,1.8,2.1,1.2l12.8-7.4c1.1-0.7,2.1-2.3,2.1-3.6v-12C303,111.9,302,111.4,300.9,112.1z
				 M295.2,124.6v2.6c0,0.4-0.3,0.9-0.6,1.1l0,0c-0.3,0.2-0.6,0-0.6-0.4v-2.6c-0.6,0.1-1.1-0.4-1.1-1.2c0-1.1,0.8-2.4,1.7-3
				c1-0.6,1.7-0.1,1.7,1C296.3,122.9,295.8,123.9,295.2,124.6z M297.4,114.1l-5.7,3.3v-3.2c0-1.8,1.3-4,2.8-4.9l0.1,0
				c1.6-0.9,2.8-0.2,2.8,1.6V114.1z"/>
			<polygon class="st7" points="297.6,107 298.7,107.6 297.7,108.3 			"/>
			<polygon class="st7" points="302.3,111.9 303.3,112.5 302.2,113.3 			"/>
			<polygon class="st7" points="286.7,136.3 287.8,136.9 287.8,135.5 			"/>
			<path class="st10" d="M301.9,112.6l-1.9,1.1v-3.2c0-2.8-2-4-4.5-2.6l-0.1,0c-2.5,1.4-4.5,4.9-4.5,7.7v3.2l-1.9,1.1
				c-1.1,0.7-2.1,2.3-2.1,3.6v12c0,1.3,0.9,1.8,2.1,1.2l12.8-7.4c1.1-0.7,2.1-2.3,2.1-3.6v-12C303.9,112.5,303,112,301.9,112.6z
				 M296.1,125.1v2.6c0,0.4-0.3,0.9-0.6,1.1l0,0c-0.3,0.2-0.6,0-0.6-0.4v-2.6c-0.6,0.1-1.1-0.4-1.1-1.2c0-1.1,0.8-2.4,1.7-3
				c1-0.6,1.7-0.1,1.7,1C297.2,123.5,296.8,124.5,296.1,125.1z M298.4,114.6l-5.7,3.3v-3.2c0-1.8,1.3-4,2.8-4.9l0.1,0
				c1.6-0.9,2.8-0.2,2.8,1.6V114.6z"/>
		</g>
		<g>
			<polygon class="st7" points="270.7,115.1 266.4,112.7 237.8,129.5 255.3,139.6 			"/>
			<polygon class="st8" points="237.8,129.5 237.7,129.6 237.7,169.5 241.9,171.8 255.3,139.6 			"/>
			<polygon class="st9" points="270.7,115.1 241.9,131.9 241.9,171.8 270.7,155 			"/>
		</g>
		<g>
			<path class="st7" d="M261.9,134.8l-1.9,1.1v-3.2c0-2.8-2-4-4.5-2.6l-0.1,0c-2.5,1.4-4.5,4.9-4.5,7.7v3.2l-1.9,1.1
				c-1.1,0.7-2.1,2.3-2.1,3.6v12c0,1.3,0.9,1.8,2.1,1.2l12.8-7.4c1.1-0.7,2.1-2.3,2.1-3.6v-12C264,134.7,263.1,134.2,261.9,134.8z
				 M256.2,147.3v2.6c0,0.4-0.3,0.9-0.6,1.1l0,0c-0.3,0.2-0.6,0-0.6-0.4v-2.6c-0.6,0.1-1.1-0.4-1.1-1.2c0-1.1,0.8-2.4,1.7-3
				c1-0.6,1.7-0.1,1.7,1C257.3,145.7,256.8,146.7,256.2,147.3z M258.4,136.9l-5.7,3.3V137c0-1.8,1.3-4,2.8-4.9l0.1,0
				c1.6-0.9,2.8-0.2,2.8,1.6V136.9z"/>
			<polygon class="st7" points="258.6,129.8 259.8,130.4 258.7,131 			"/>
			<polygon class="st7" points="263.3,134.6 264.3,135.2 263.2,136 			"/>
			<polygon class="st7" points="247.7,159 248.8,159.7 248.8,158.3 			"/>
			<path class="st10" d="M262.9,135.4l-1.9,1.1v-3.2c0-2.8-2-4-4.5-2.6l-0.1,0c-2.5,1.4-4.5,4.9-4.5,7.7v3.2l-1.9,1.1
				c-1.1,0.7-2.1,2.3-2.1,3.6v12c0,1.3,0.9,1.8,2.1,1.2l12.8-7.4c1.1-0.7,2.1-2.3,2.1-3.6v-12C265,135.3,264,134.7,262.9,135.4z
				 M257.2,147.9v2.6c0,0.4-0.3,0.9-0.6,1.1l0,0c-0.3,0.2-0.6,0-0.6-0.4v-2.6c-0.6,0.1-1.1-0.4-1.1-1.2c0-1.1,0.8-2.4,1.7-3
				c1-0.6,1.7-0.1,1.7,1C258.2,146.3,257.8,147.2,257.2,147.9z M259.4,137.4l-5.7,3.3v-3.2c0-1.8,1.3-4,2.8-4.9l0.1,0
				c1.6-0.9,2.8-0.2,2.8,1.6V137.4z"/>
		</g>
		<g>
			<polygon class="st7" points="231.7,137.8 227.4,135.5 198.8,152.3 216.3,162.4 			"/>
			<polygon class="st8" points="198.8,152.3 198.7,152.4 198.7,192.3 202.9,194.6 216.3,162.4 			"/>
			<polygon class="st9" points="231.7,137.8 202.9,154.7 202.9,194.6 231.7,177.7 			"/>
		</g>
		<g>
			<path class="st7" d="M222.9,157.6l-1.9,1.1v-3.2c0-2.8-2-4-4.5-2.6l-0.1,0c-2.5,1.4-4.5,4.9-4.5,7.7v3.2l-1.9,1.1
				c-1.1,0.7-2.1,2.3-2.1,3.6v12c0,1.3,0.9,1.8,2.1,1.2l12.8-7.4c1.1-0.7,2.1-2.3,2.1-3.6v-12C225,157.5,224.1,156.9,222.9,157.6z
				 M217.2,170.1v2.6c0,0.4-0.3,0.9-0.6,1.1l0,0c-0.3,0.2-0.6,0-0.6-0.4v-2.6c-0.6,0.1-1.1-0.4-1.1-1.2c0-1.1,0.8-2.4,1.7-3
				c1-0.6,1.7-0.1,1.7,1C218.3,168.5,217.8,169.5,217.2,170.1z M219.4,159.6l-5.7,3.3v-3.2c0-1.8,1.3-4,2.8-4.9l0.1,0
				c1.6-0.9,2.8-0.2,2.8,1.6V159.6z"/>
			<polygon class="st7" points="219.6,152.5 220.8,153.2 219.7,153.8 			"/>
			<polygon class="st7" points="224.3,157.4 225.4,158 224.2,158.8 			"/>
			<polygon class="st7" points="208.7,181.8 209.8,182.4 209.8,181.1 			"/>
			<path class="st10" d="M223.9,158.2l-1.9,1.1V156c0-2.8-2-4-4.5-2.6l-0.1,0c-2.5,1.4-4.5,4.9-4.5,7.7v3.2l-1.9,1.1
				c-1.1,0.7-2.1,2.3-2.1,3.6v12c0,1.3,0.9,1.8,2.1,1.2l12.8-7.4c1.1-0.7,2.1-2.3,2.1-3.6v-12C226,158,225.1,157.5,223.9,158.2z
				 M218.2,170.7v2.6c0,0.4-0.3,0.9-0.6,1.1l0,0c-0.3,0.2-0.6,0-0.6-0.4v-2.6c-0.6,0.1-1.1-0.4-1.1-1.2c0-1.1,0.8-2.4,1.7-3
				c1-0.6,1.7-0.1,1.7,1C219.3,169,218.8,170,218.2,170.7z M220.4,160.2l-5.7,3.3v-3.2c0-1.8,1.3-4,2.8-4.9l0.1,0
				c1.6-0.9,2.8-0.2,2.8,1.6V160.2z"/>
		</g>
		<g>
			<polygon class="st7" points="192.7,160.6 188.5,158.3 159.9,175.1 177.3,185.2 			"/>
			<polygon class="st8" points="159.9,175.1 159.7,175.2 159.7,215 164,217.4 177.3,185.2 			"/>
			<polygon class="st9" points="192.7,160.6 164,177.5 164,217.4 192.7,200.5 			"/>
		</g>
		<g>
			<path class="st7" d="M184,180.4l-1.9,1.1v-3.2c0-2.8-2-4-4.5-2.6l-0.1,0c-2.5,1.4-4.5,4.9-4.5,7.7v3.2l-1.9,1.1
				c-1.1,0.7-2.1,2.3-2.1,3.6v12c0,1.3,0.9,1.8,2.1,1.2l12.8-7.4c1.1-0.7,2.1-2.3,2.1-3.6v-12C186,180.2,185.1,179.7,184,180.4z
				 M178.2,192.9v2.6c0,0.4-0.3,0.9-0.6,1.1l0,0c-0.3,0.2-0.6,0-0.6-0.4v-2.6c-0.6,0.1-1.1-0.4-1.1-1.2c0-1.1,0.8-2.4,1.7-3
				c1-0.6,1.7-0.1,1.7,1C179.3,191.3,178.9,192.2,178.2,192.9z M180.5,182.4l-5.7,3.3v-3.2c0-1.8,1.3-4,2.8-4.9l0.1,0
				c1.6-0.9,2.8-0.2,2.8,1.6V182.4z"/>
			<polygon class="st7" points="180.6,175.3 181.8,176 180.7,176.6 			"/>
			<polygon class="st7" points="185.3,180.2 186.4,180.8 185.3,181.6 			"/>
			<polygon class="st7" points="169.8,204.6 170.8,205.2 170.8,203.8 			"/>
			<path class="st10" d="M184.9,180.9l-1.9,1.1v-3.2c0-2.8-2-4-4.5-2.6l-0.1,0c-2.5,1.4-4.5,4.9-4.5,7.7v3.2l-1.9,1.1
				c-1.1,0.7-2.1,2.3-2.1,3.6v12c0,1.3,0.9,1.8,2.1,1.2l12.8-7.4c1.1-0.7,2.1-2.3,2.1-3.6v-12C187,180.8,186.1,180.3,184.9,180.9z
				 M179.2,193.4v2.6c0,0.4-0.3,0.9-0.6,1.1l0,0c-0.3,0.2-0.6,0-0.6-0.4v-2.6c-0.6,0.1-1.1-0.4-1.1-1.2c0-1.1,0.8-2.4,1.7-3
				c1-0.6,1.7-0.1,1.7,1C180.3,191.8,179.8,192.8,179.2,193.4z M181.4,183l-5.7,3.3v-3.2c0-1.8,1.3-4,2.8-4.9l0.1,0
				c1.6-0.9,2.8-0.2,2.8,1.6V183z"/>
		</g>
		<g>
			<polygon class="st7" points="153.7,183.4 149.5,181.1 120.9,197.9 138.3,207.9 			"/>
			<polygon class="st8" points="120.9,197.9 120.8,197.9 120.8,237.8 125,240.1 138.3,207.9 			"/>
			<polygon class="st9" points="153.7,183.4 125,200.3 125,240.1 153.7,223.3 			"/>
		</g>
		<g>
			<path class="st7" d="M145,203.1l-1.9,1.1V201c0-2.8-2-4-4.5-2.6l-0.1,0c-2.5,1.4-4.5,4.9-4.5,7.7v3.2l-1.9,1.1
				c-1.1,0.7-2.1,2.3-2.1,3.6v12c0,1.3,0.9,1.8,2.1,1.2l12.8-7.4c1.1-0.7,2.1-2.3,2.1-3.6v-12C147.1,203,146.1,202.5,145,203.1z
				 M139.3,215.7v2.6c0,0.4-0.3,0.9-0.6,1.1l0,0c-0.3,0.2-0.6,0-0.6-0.4v-2.6c-0.6,0.1-1.1-0.4-1.1-1.2c0-1.1,0.8-2.4,1.7-3
				c1-0.6,1.7-0.1,1.7,1C140.3,214,139.9,215,139.3,215.7z M141.5,205.2l-5.7,3.3v-3.2c0-1.8,1.3-4,2.8-4.9l0.1,0
				c1.6-0.9,2.8-0.2,2.8,1.6V205.2z"/>
			<polygon class="st7" points="141.7,198.1 142.8,198.7 141.7,199.3 			"/>
			<polygon class="st7" points="146.4,202.9 147.4,203.5 146.3,204.3 			"/>
			<polygon class="st7" points="130.8,227.4 131.8,228 131.8,226.6 			"/>
			<path class="st10" d="M146,203.7l-1.9,1.1v-3.2c0-2.8-2-4-4.5-2.6l-0.1,0c-2.5,1.4-4.5,4.9-4.5,7.7v3.2l-1.9,1.1
				c-1.1,0.7-2.1,2.3-2.1,3.6v12c0,1.3,0.9,1.8,2.1,1.2l12.8-7.4c1.1-0.7,2.1-2.3,2.1-3.6v-12C148,203.6,147.1,203,146,203.7z
				 M140.2,216.2v2.6c0,0.4-0.3,0.9-0.6,1.1l0,0c-0.3,0.2-0.6,0-0.6-0.4V217c-0.6,0.1-1.1-0.4-1.1-1.2c0-1.1,0.8-2.4,1.7-3
				c1-0.6,1.7-0.1,1.7,1C141.3,214.6,140.9,215.6,140.2,216.2z M142.5,205.7l-5.7,3.3v-3.2c0-1.8,1.3-4,2.8-4.9l0.1,0
				c1.6-0.9,2.8-0.2,2.8,1.6V205.7z"/>
		</g>
		<g>
			<polygon class="st7" points="426.6,-27.3 422.3,-29.6 393.7,-12.8 411.2,-2.7 			"/>
			<polygon class="st8" points="393.7,-12.8 393.6,-12.8 393.6,27.1 397.8,29.5 411.2,-2.7 			"/>
			<polygon class="st9" points="426.6,-27.3 397.8,-10.4 397.8,29.5 426.6,12.6 			"/>
		</g>
		<g>
			<path class="st7" d="M417.8-7.5L416-6.5v-3.2c0-2.8-2-4-4.5-2.6l-0.1,0c-2.5,1.4-4.5,4.9-4.5,7.7v3.2l-1.9,1.1
				c-1.1,0.7-2.1,2.3-2.1,3.6v12c0,1.3,0.9,1.8,2.1,1.2l12.8-7.4c1.1-0.7,2.1-2.3,2.1-3.6v-12C419.9-7.7,419-8.2,417.8-7.5z
				 M412.1,5v2.6c0,0.4-0.3,0.9-0.6,1.1l0,0c-0.3,0.2-0.6,0-0.6-0.4V5.7c-0.6,0.1-1.1-0.4-1.1-1.2c0-1.1,0.8-2.4,1.7-3
				c1-0.6,1.7-0.1,1.7,1C413.2,3.3,412.7,4.3,412.1,5z M414.3-5.5l-5.7,3.3v-3.2c0-1.8,1.3-4,2.8-4.9l0.1,0c1.6-0.9,2.8-0.2,2.8,1.6
				V-5.5z"/>
			<polygon class="st7" points="414.5,-12.6 415.7,-12 414.6,-11.3 			"/>
			<polygon class="st7" points="419.2,-7.7 420.3,-7.1 419.1,-6.3 			"/>
			<polygon class="st7" points="403.6,16.7 404.7,17.3 404.7,15.9 			"/>
			<path class="st10" d="M418.8-7l-1.9,1.1v-3.2c0-2.8-2-4-4.5-2.6l-0.1,0c-2.5,1.4-4.5,4.9-4.5,7.7v3.2l-1.9,1.1
				C404.9,1,404,2.6,404,3.9v12c0,1.3,0.9,1.8,2.1,1.2l12.8-7.4c1.1-0.7,2.1-2.3,2.1-3.6v-12C420.9-7.1,420-7.6,418.8-7z M413.1,5.5
				v2.6c0,0.4-0.3,0.9-0.6,1.1l0,0c-0.3,0.2-0.6,0-0.6-0.4V6.3c-0.6,0.1-1.1-0.4-1.1-1.2c0-1.1,0.8-2.4,1.7-3c1-0.6,1.7-0.1,1.7,1
				C414.2,3.9,413.7,4.9,413.1,5.5z M415.3-5l-5.7,3.3v-3.2c0-1.8,1.3-4,2.8-4.9l0.1,0c1.6-0.9,2.8-0.2,2.8,1.6V-5z"/>
		</g>
		<g>
			<polygon class="st7" points="387.6,-4.5 383.4,-6.9 354.7,9.9 372.2,20 			"/>
			<polygon class="st8" points="354.7,9.9 354.6,10 354.6,49.9 358.9,52.2 372.2,20 			"/>
			<polygon class="st9" points="387.6,-4.5 358.9,12.3 358.9,52.2 387.6,35.4 			"/>
		</g>
		<g>
			<path class="st7" d="M378.9,15.2l-1.9,1.1v-3.2c0-2.8-2-4-4.5-2.6l-0.1,0c-2.5,1.4-4.5,4.9-4.5,7.7v3.2l-1.9,1.1
				c-1.1,0.7-2.1,2.3-2.1,3.6v12c0,1.3,0.9,1.8,2.1,1.2l12.8-7.4c1.1-0.7,2.1-2.3,2.1-3.6v-12C380.9,15.1,380,14.6,378.9,15.2z
				 M373.1,27.7v2.6c0,0.4-0.3,0.9-0.6,1.1l0,0c-0.3,0.2-0.6,0-0.6-0.4v-2.6c-0.6,0.1-1.1-0.4-1.1-1.2c0-1.1,0.8-2.4,1.7-3
				c1-0.6,1.7-0.1,1.7,1C374.2,26.1,373.8,27.1,373.1,27.7z M375.4,17.3l-5.7,3.3v-3.2c0-1.8,1.3-4,2.8-4.9l0.1,0
				c1.6-0.9,2.8-0.2,2.8,1.6V17.3z"/>
			<polygon class="st7" points="375.5,10.2 376.7,10.8 375.6,11.4 			"/>
			<polygon class="st7" points="380.2,15 381.3,15.6 380.2,16.4 			"/>
			<polygon class="st7" points="364.6,39.4 365.7,40.1 365.7,38.7 			"/>
			<path class="st10" d="M379.8,15.8l-1.9,1.1v-3.2c0-2.8-2-4-4.5-2.6l-0.1,0c-2.5,1.4-4.5,4.9-4.5,7.7v3.2l-1.9,1.1
				c-1.1,0.7-2.1,2.3-2.1,3.6v12c0,1.3,0.9,1.8,2.1,1.2l12.8-7.4c1.1-0.7,2.1-2.3,2.1-3.6V17C381.9,15.7,381,15.1,379.8,15.8z
				 M374.1,28.3v2.6c0,0.4-0.3,0.9-0.6,1.1l0,0c-0.3,0.2-0.6,0-0.6-0.4V29c-0.6,0.1-1.1-0.4-1.1-1.2c0-1.1,0.8-2.4,1.7-3
				c1-0.6,1.7-0.1,1.7,1C375.2,26.7,374.7,27.6,374.1,28.3z M376.3,17.8l-5.7,3.3v-3.2c0-1.8,1.3-4,2.8-4.9l0.1,0
				c1.6-0.9,2.8-0.2,2.8,1.6V17.8z"/>
		</g>
		<g>
			<polygon class="st7" points="348.6,18.2 344.4,15.9 315.8,32.7 333.2,42.8 			"/>
			<polygon class="st8" points="315.8,32.7 315.6,32.8 315.6,72.7 319.9,75 333.2,42.8 			"/>
			<polygon class="st9" points="348.6,18.2 319.9,35.1 319.9,75 348.6,58.1 			"/>
		</g>
		<g>
			<path class="st7" d="M339.9,38l-1.9,1.1v-3.2c0-2.8-2-4-4.5-2.6l-0.1,0c-2.5,1.4-4.5,4.9-4.5,7.7v3.2l-1.9,1.1
				c-1.1,0.7-2.1,2.3-2.1,3.6v12c0,1.3,0.9,1.8,2.1,1.2l12.8-7.4c1.1-0.7,2.1-2.3,2.1-3.6v-12C341.9,37.9,341,37.3,339.9,38z
				 M334.1,50.5v2.6c0,0.4-0.3,0.9-0.6,1.1l0,0c-0.3,0.2-0.6,0-0.6-0.4v-2.6c-0.6,0.1-1.1-0.4-1.1-1.2c0-1.1,0.8-2.4,1.7-3
				c1-0.6,1.7-0.1,1.7,1C335.2,48.9,334.8,49.9,334.1,50.5z M336.4,40l-5.7,3.3v-3.2c0-1.8,1.3-4,2.8-4.9l0.1,0
				c1.6-0.9,2.8-0.2,2.8,1.6V40z"/>
			<polygon class="st7" points="336.5,32.9 337.7,33.6 336.6,34.2 			"/>
			<polygon class="st7" points="341.3,37.8 342.3,38.4 341.2,39.2 			"/>
			<polygon class="st7" points="325.7,62.2 326.7,62.8 326.7,61.5 			"/>
			<path class="st10" d="M340.9,38.6l-1.9,1.1v-3.2c0-2.8-2-4-4.5-2.6l-0.1,0c-2.5,1.4-4.5,4.9-4.5,7.7v3.2l-1.9,1.1
				c-1.1,0.7-2.1,2.3-2.1,3.6v12c0,1.3,0.9,1.8,2.1,1.2l12.8-7.4c1.1-0.7,2.1-2.3,2.1-3.6v-12C342.9,38.4,342,37.9,340.9,38.6z
				 M335.1,51.1v2.6c0,0.4-0.3,0.9-0.6,1.1l0,0c-0.3,0.2-0.6,0-0.6-0.4v-2.6c-0.6,0.1-1.1-0.4-1.1-1.2c0-1.1,0.8-2.4,1.7-3
				c1-0.6,1.7-0.1,1.7,1C336.2,49.4,335.8,50.4,335.1,51.1z M337.3,40.6l-5.7,3.3v-3.2c0-1.8,1.3-4,2.8-4.9l0.1,0
				c1.6-0.9,2.8-0.2,2.8,1.6V40.6z"/>
		</g>
		<g>
			<polygon class="st7" points="309.6,41 305.4,38.7 276.8,55.5 294.3,65.6 			"/>
			<polygon class="st8" points="276.8,55.5 276.7,55.6 276.7,95.4 280.9,97.8 294.3,65.6 			"/>
			<polygon class="st9" points="309.6,41 280.9,57.9 280.9,97.8 309.6,80.9 			"/>
		</g>
		<g>
			<path class="st7" d="M300.9,60.8l-1.9,1.1v-3.2c0-2.8-2-4-4.5-2.6l-0.1,0c-2.5,1.4-4.5,4.9-4.5,7.7v3.2l-1.9,1.1
				c-1.1,0.7-2.1,2.3-2.1,3.6v12c0,1.3,0.9,1.8,2.1,1.2l12.8-7.4c1.1-0.7,2.1-2.3,2.1-3.6v-12C303,60.6,302,60.1,300.9,60.8z
				 M295.2,73.3v2.6c0,0.4-0.3,0.9-0.6,1.1l0,0c-0.3,0.2-0.6,0-0.6-0.4V74c-0.6,0.1-1.1-0.4-1.1-1.2c0-1.1,0.8-2.4,1.7-3
				c1-0.6,1.7-0.1,1.7,1C296.3,71.7,295.8,72.6,295.2,73.3z M297.4,62.8l-5.7,3.3v-3.2c0-1.8,1.3-4,2.8-4.9l0.1,0
				c1.6-0.9,2.8-0.2,2.8,1.6V62.8z"/>
			<polygon class="st7" points="297.6,55.7 298.7,56.4 297.7,57 			"/>
			<polygon class="st7" points="302.3,60.6 303.3,61.2 302.2,62 			"/>
			<polygon class="st7" points="286.7,85 287.8,85.6 287.8,84.2 			"/>
			<path class="st10" d="M301.9,61.3l-1.9,1.1v-3.2c0-2.8-2-4-4.5-2.6l-0.1,0c-2.5,1.4-4.5,4.9-4.5,7.7v3.2l-1.9,1.1
				c-1.1,0.7-2.1,2.3-2.1,3.6v12c0,1.3,0.9,1.8,2.1,1.2l12.8-7.4c1.1-0.7,2.1-2.3,2.1-3.6v-12C303.9,61.2,303,60.7,301.9,61.3z
				 M296.1,73.8v2.6c0,0.4-0.3,0.9-0.6,1.1l0,0c-0.3,0.2-0.6,0-0.6-0.4v-2.6c-0.6,0.1-1.1-0.4-1.1-1.2c0-1.1,0.8-2.4,1.7-3
				c1-0.6,1.7-0.1,1.7,1C297.2,72.2,296.8,73.2,296.1,73.8z M298.4,63.4l-5.7,3.3v-3.2c0-1.8,1.3-4,2.8-4.9l0.1,0
				c1.6-0.9,2.8-0.2,2.8,1.6V63.4z"/>
		</g>
		<g>
			<polygon class="st7" points="270.7,63.8 266.4,61.5 237.8,78.3 255.3,88.3 			"/>
			<polygon class="st8" points="237.8,78.3 237.7,78.3 237.7,118.2 241.9,120.5 255.3,88.3 			"/>
			<polygon class="st9" points="270.7,63.8 241.9,80.7 241.9,120.5 270.7,103.7 			"/>
		</g>
		<g>
			<path class="st7" d="M261.9,83.5l-1.9,1.1v-3.2c0-2.8-2-4-4.5-2.6l-0.1,0c-2.5,1.4-4.5,4.9-4.5,7.7v3.2l-1.9,1.1
				c-1.1,0.7-2.1,2.3-2.1,3.6v12c0,1.3,0.9,1.8,2.1,1.2l12.8-7.4c1.1-0.7,2.1-2.3,2.1-3.6v-12C264,83.4,263.1,82.9,261.9,83.5z
				 M256.2,96.1v2.6c0,0.4-0.3,0.9-0.6,1.1l0,0c-0.3,0.2-0.6,0-0.6-0.4v-2.6c-0.6,0.1-1.1-0.4-1.1-1.2c0-1.1,0.8-2.4,1.7-3
				s1.7-0.1,1.7,1C257.3,94.4,256.8,95.4,256.2,96.1z M258.4,85.6l-5.7,3.3v-3.2c0-1.8,1.3-4,2.8-4.9l0.1,0c1.6-0.9,2.8-0.2,2.8,1.6
				V85.6z"/>
			<polygon class="st7" points="258.6,78.5 259.8,79.1 258.7,79.7 			"/>
			<polygon class="st7" points="263.3,83.3 264.3,83.9 263.2,84.7 			"/>
			<polygon class="st7" points="247.7,107.8 248.8,108.4 248.8,107 			"/>
			<path class="st10" d="M262.9,84.1l-1.9,1.1V82c0-2.8-2-4-4.5-2.6l-0.1,0c-2.5,1.4-4.5,4.9-4.5,7.7v3.2l-1.9,1.1
				c-1.1,0.7-2.1,2.3-2.1,3.6v12c0,1.3,0.9,1.8,2.1,1.2l12.8-7.4c1.1-0.7,2.1-2.3,2.1-3.6v-12C265,84,264,83.4,262.9,84.1z
				 M257.2,96.6v2.6c0,0.4-0.3,0.9-0.6,1.1l0,0c-0.3,0.2-0.6,0-0.6-0.4v-2.6c-0.6,0.1-1.1-0.4-1.1-1.2c0-1.1,0.8-2.4,1.7-3
				c1-0.6,1.7-0.1,1.7,1C258.2,95,257.8,96,257.2,96.6z M259.4,86.1l-5.7,3.3v-3.2c0-1.8,1.3-4,2.8-4.9l0.1,0
				c1.6-0.9,2.8-0.2,2.8,1.6V86.1z"/>
		</g>
		<g>
			<polygon class="st7" points="231.7,86.6 227.4,84.2 198.8,101 216.3,111.1 			"/>
			<polygon class="st8" points="198.8,101 198.7,101.1 198.7,141 202.9,143.3 216.3,111.1 			"/>
			<polygon class="st9" points="231.7,86.6 202.9,103.4 202.9,143.3 231.7,126.4 			"/>
		</g>
		<g>
			<path class="st7" d="M222.9,106.3l-1.9,1.1v-3.2c0-2.8-2-4-4.5-2.6l-0.1,0c-2.5,1.4-4.5,4.9-4.5,7.7v3.2l-1.9,1.1
				c-1.1,0.7-2.1,2.3-2.1,3.6v12c0,1.3,0.9,1.8,2.1,1.2l12.8-7.4c1.1-0.7,2.1-2.3,2.1-3.6v-12C225,106.2,224.1,105.7,222.9,106.3z
				 M217.2,118.8v2.6c0,0.4-0.3,0.9-0.6,1.1l0,0c-0.3,0.2-0.6,0-0.6-0.4v-2.6c-0.6,0.1-1.1-0.4-1.1-1.2c0-1.1,0.8-2.4,1.7-3
				c1-0.6,1.7-0.1,1.7,1C218.3,117.2,217.8,118.2,217.2,118.8z M219.4,108.3l-5.7,3.3v-3.2c0-1.8,1.3-4,2.8-4.9l0.1,0
				c1.6-0.9,2.8-0.2,2.8,1.6V108.3z"/>
			<polygon class="st7" points="219.6,101.2 220.8,101.9 219.7,102.5 			"/>
			<polygon class="st7" points="224.3,106.1 225.4,106.7 224.2,107.5 			"/>
			<polygon class="st7" points="208.7,130.5 209.8,131.1 209.8,129.8 			"/>
			<path class="st10" d="M223.9,106.9l-1.9,1.1v-3.2c0-2.8-2-4-4.5-2.6l-0.1,0c-2.5,1.4-4.5,4.9-4.5,7.7v3.2l-1.9,1.1
				c-1.1,0.7-2.1,2.3-2.1,3.6v12c0,1.3,0.9,1.8,2.1,1.2l12.8-7.4c1.1-0.7,2.1-2.3,2.1-3.6v-12C226,106.7,225.1,106.2,223.9,106.9z
				 M218.2,119.4v2.6c0,0.4-0.3,0.9-0.6,1.1l0,0c-0.3,0.2-0.6,0-0.6-0.4v-2.6c-0.6,0.1-1.1-0.4-1.1-1.2c0-1.1,0.8-2.4,1.7-3
				c1-0.6,1.7-0.1,1.7,1C219.3,117.8,218.8,118.7,218.2,119.4z M220.4,108.9l-5.7,3.3V109c0-1.8,1.3-4,2.8-4.9l0.1,0
				c1.6-0.9,2.8-0.2,2.8,1.6V108.9z"/>
		</g>
		<g>
			<polygon class="st7" points="192.7,109.3 188.5,107 159.9,123.8 177.3,133.9 			"/>
			<polygon class="st8" points="159.9,123.8 159.7,123.9 159.7,163.8 164,166.1 177.3,133.9 			"/>
			<polygon class="st9" points="192.7,109.3 164,126.2 164,166.1 192.7,149.2 			"/>
		</g>
		<g>
			<path class="st7" d="M184,129.1l-1.9,1.1V127c0-2.8-2-4-4.5-2.6l-0.1,0c-2.5,1.4-4.5,4.9-4.5,7.7v3.2l-1.9,1.1
				c-1.1,0.7-2.1,2.3-2.1,3.6v12c0,1.3,0.9,1.8,2.1,1.2l12.8-7.4c1.1-0.7,2.1-2.3,2.1-3.6v-12C186,129,185.1,128.4,184,129.1z
				 M178.2,141.6v2.6c0,0.4-0.3,0.9-0.6,1.1l0,0c-0.3,0.2-0.6,0-0.6-0.4v-2.6c-0.6,0.1-1.1-0.4-1.1-1.2c0-1.1,0.8-2.4,1.7-3
				c1-0.6,1.7-0.1,1.7,1C179.3,140,178.9,140.9,178.2,141.6z M180.5,131.1l-5.7,3.3v-3.2c0-1.8,1.3-4,2.8-4.9l0.1,0
				c1.6-0.9,2.8-0.2,2.8,1.6V131.1z"/>
			<polygon class="st7" points="180.6,124 181.8,124.7 180.7,125.3 			"/>
			<polygon class="st7" points="185.3,128.9 186.4,129.5 185.3,130.3 			"/>
			<polygon class="st7" points="169.8,153.3 170.8,153.9 170.8,152.6 			"/>
			<path class="st10" d="M184.9,129.6l-1.9,1.1v-3.2c0-2.8-2-4-4.5-2.6l-0.1,0c-2.5,1.4-4.5,4.9-4.5,7.7v3.2l-1.9,1.1
				c-1.1,0.7-2.1,2.3-2.1,3.6v12c0,1.3,0.9,1.8,2.1,1.2l12.8-7.4c1.1-0.7,2.1-2.3,2.1-3.6v-12C187,129.5,186.1,129,184.9,129.6z
				 M179.2,142.2v2.6c0,0.4-0.3,0.9-0.6,1.1l0,0c-0.3,0.2-0.6,0-0.6-0.4v-2.6c-0.6,0.1-1.1-0.4-1.1-1.2c0-1.1,0.8-2.4,1.7-3
				c1-0.6,1.7-0.1,1.7,1C180.3,140.5,179.8,141.5,179.2,142.2z M181.4,131.7l-5.7,3.3v-3.2c0-1.8,1.3-4,2.8-4.9l0.1,0
				c1.6-0.9,2.8-0.2,2.8,1.6V131.7z"/>
		</g>
		<g>
			<polygon class="st7" points="153.7,132.1 149.5,129.8 120.9,146.6 138.3,156.6 			"/>
			<polygon class="st8" points="120.9,146.6 120.8,146.6 120.8,186.5 125,188.9 138.3,156.6 			"/>
			<polygon class="st9" points="153.7,132.1 125,149 125,188.9 153.7,172 			"/>
		</g>
		<g>
			<path class="st7" d="M145,151.9l-1.9,1.1v-3.2c0-2.8-2-4-4.5-2.6l-0.1,0c-2.5,1.4-4.5,4.9-4.5,7.7v3.2l-1.9,1.1
				c-1.1,0.7-2.1,2.3-2.1,3.6v12c0,1.3,0.9,1.8,2.1,1.2l12.8-7.4c1.1-0.7,2.1-2.3,2.1-3.6v-12C147.1,151.7,146.1,151.2,145,151.9z
				 M139.3,164.4v2.6c0,0.4-0.3,0.9-0.6,1.1l0,0c-0.3,0.2-0.6,0-0.6-0.4v-2.6c-0.6,0.1-1.1-0.4-1.1-1.2c0-1.1,0.8-2.4,1.7-3
				c1-0.6,1.7-0.1,1.7,1C140.3,162.7,139.9,163.7,139.3,164.4z M141.5,153.9l-5.7,3.3V154c0-1.8,1.3-4,2.8-4.9l0.1,0
				c1.6-0.9,2.8-0.2,2.8,1.6V153.9z"/>
			<polygon class="st7" points="141.7,146.8 142.8,147.4 141.7,148.1 			"/>
			<polygon class="st7" points="146.4,151.7 147.4,152.3 146.3,153.1 			"/>
			<polygon class="st7" points="130.8,176.1 131.8,176.7 131.8,175.3 			"/>
			<path class="st10" d="M146,152.4l-1.9,1.1v-3.2c0-2.8-2-4-4.5-2.6l-0.1,0c-2.5,1.4-4.5,4.9-4.5,7.7v3.2l-1.9,1.1
				c-1.1,0.7-2.1,2.3-2.1,3.6v12c0,1.3,0.9,1.8,2.1,1.2l12.8-7.4c1.1-0.7,2.1-2.3,2.1-3.6v-12C148,152.3,147.1,151.8,146,152.4z
				 M140.2,164.9v2.6c0,0.4-0.3,0.9-0.6,1.1l0,0c-0.3,0.2-0.6,0-0.6-0.4v-2.6c-0.6,0.1-1.1-0.4-1.1-1.2c0-1.1,0.8-2.4,1.7-3
				c1-0.6,1.7-0.1,1.7,1C141.3,163.3,140.9,164.3,140.2,164.9z M142.5,154.4l-5.7,3.3v-3.2c0-1.8,1.3-4,2.8-4.9l0.1,0
				c1.6-0.9,2.8-0.2,2.8,1.6V154.4z"/>
		</g>
		<g>
			<polygon class="st7" points="114.7,154.9 110.5,152.5 81.9,169.3 99.4,179.4 			"/>
			<polygon class="st8" points="81.9,169.3 81.8,169.4 81.8,209.3 86,211.6 99.4,179.4 			"/>
			<polygon class="st9" points="114.7,154.9 86,171.7 86,211.6 114.7,194.8 			"/>
		</g>
		<g>
			<path class="st7" d="M106,174.6l-1.9,1.1v-3.2c0-2.8-2-4-4.5-2.6l-0.1,0c-2.5,1.4-4.5,4.9-4.5,7.7v3.2l-1.9,1.1
				c-1.1,0.7-2.1,2.3-2.1,3.6v12c0,1.3,0.9,1.8,2.1,1.2l12.8-7.4c1.1-0.7,2.1-2.3,2.1-3.6v-12C108.1,174.5,107.2,174,106,174.6z
				 M100.3,187.1v2.6c0,0.4-0.3,0.9-0.6,1.1l0,0c-0.3,0.2-0.6,0-0.6-0.4v-2.6c-0.6,0.1-1.1-0.4-1.1-1.2c0-1.1,0.8-2.4,1.7-3
				c1-0.6,1.7-0.1,1.7,1C101.4,185.5,100.9,186.5,100.3,187.1z M102.5,176.6l-5.7,3.3v-3.2c0-1.8,1.3-4,2.8-4.9l0.1,0
				c1.6-0.9,2.8-0.2,2.8,1.6V176.6z"/>
			<polygon class="st7" points="102.7,169.6 103.9,170.2 102.8,170.8 			"/>
			<polygon class="st7" points="107.4,174.4 108.4,175 107.3,175.8 			"/>
			<polygon class="st7" points="91.8,198.8 92.9,199.5 92.9,198.1 			"/>
			<path class="st10" d="M107,175.2l-1.9,1.1v-3.2c0-2.8-2-4-4.5-2.6l-0.1,0c-2.5,1.4-4.5,4.9-4.5,7.7v3.2l-1.9,1.1
				c-1.1,0.7-2.1,2.3-2.1,3.6v12c0,1.3,0.9,1.8,2.1,1.2l12.8-7.4c1.1-0.7,2.1-2.3,2.1-3.6v-12C109.1,175.1,108.1,174.5,107,175.2z
				 M101.3,187.7v2.6c0,0.4-0.3,0.9-0.6,1.1l0,0c-0.3,0.2-0.6,0-0.6-0.4v-2.6c-0.6,0.1-1.1-0.4-1.1-1.2c0-1.1,0.8-2.4,1.7-3
				c1-0.6,1.7-0.1,1.7,1C102.3,186.1,101.9,187,101.3,187.7z M103.5,177.2l-5.7,3.3v-3.2c0-1.8,1.3-4,2.8-4.9l0.1,0
				c1.6-0.9,2.8-0.2,2.8,1.6V177.2z"/>
		</g>
		<g>
			<polygon class="st7" points="75.8,177.6 71.5,175.3 42.9,192.1 60.4,202.2 			"/>
			<polygon class="st8" points="42.9,192.1 42.8,192.2 42.8,232.1 47,234.4 60.4,202.2 			"/>
			<polygon class="st9" points="75.8,177.6 47,194.5 47,234.4 75.8,217.5 			"/>
		</g>
		<g>
			<path class="st7" d="M67,197.4l-1.9,1.1v-3.2c0-2.8-2-4-4.5-2.6l-0.1,0c-2.5,1.4-4.5,4.9-4.5,7.7v3.2l-1.9,1.1
				c-1.1,0.7-2.1,2.3-2.1,3.6v12c0,1.3,0.9,1.8,2.1,1.2l12.8-7.4c1.1-0.7,2.1-2.3,2.1-3.6v-12C69.1,197.3,68.2,196.7,67,197.4z
				 M61.3,209.9v2.6c0,0.4-0.3,0.9-0.6,1.1l0,0c-0.3,0.2-0.6,0-0.6-0.4v-2.6c-0.6,0.1-1.1-0.4-1.1-1.2c0-1.1,0.8-2.4,1.7-3
				s1.7-0.1,1.7,1C62.4,208.3,61.9,209.3,61.3,209.9z M63.5,199.4l-5.7,3.3v-3.2c0-1.8,1.3-4,2.8-4.9l0.1,0c1.6-0.9,2.8-0.2,2.8,1.6
				V199.4z"/>
			<polygon class="st7" points="63.7,192.3 64.9,193 63.8,193.6 			"/>
			<polygon class="st7" points="68.4,197.2 69.5,197.8 68.3,198.6 			"/>
			<polygon class="st7" points="52.8,221.6 53.9,222.2 53.9,220.9 			"/>
			<path class="st10" d="M68,198l-1.9,1.1v-3.2c0-2.8-2-4-4.5-2.6l-0.1,0c-2.5,1.4-4.5,4.9-4.5,7.7v3.2l-1.9,1.1
				c-1.1,0.7-2.1,2.3-2.1,3.6v12c0,1.3,0.9,1.8,2.1,1.2l12.8-7.4c1.1-0.7,2.1-2.3,2.1-3.6v-12C70.1,197.8,69.2,197.3,68,198z
				 M62.3,210.5v2.6c0,0.4-0.3,0.9-0.6,1.1l0,0c-0.3,0.2-0.6,0-0.6-0.4v-2.6c-0.6,0.1-1.1-0.4-1.1-1.2c0-1.1,0.8-2.4,1.7-3
				c1-0.6,1.7-0.1,1.7,1C63.4,208.8,62.9,209.8,62.3,210.5z M64.5,200l-5.7,3.3v-3.2c0-1.8,1.3-4,2.8-4.9l0.1,0
				c1.6-0.9,2.8-0.2,2.8,1.6V200z"/>
		</g>
		<g>
			<polygon class="st7" points="348.6,-33 344.4,-35.4 315.8,-18.6 333.2,-8.5 			"/>
			<polygon class="st8" points="315.8,-18.6 315.6,-18.5 315.6,21.4 319.9,23.7 333.2,-8.5 			"/>
			<polygon class="st9" points="348.6,-33 319.9,-16.2 319.9,23.7 348.6,6.8 			"/>
		</g>
		<g>
			<path class="st7" d="M339.9-13.3l-1.9,1.1v-3.2c0-2.8-2-4-4.5-2.6l-0.1,0c-2.5,1.4-4.5,4.9-4.5,7.7V-7l-1.9,1.1
				c-1.1,0.7-2.1,2.3-2.1,3.6v12c0,1.3,0.9,1.8,2.1,1.2l12.8-7.4c1.1-0.7,2.1-2.3,2.1-3.6v-12C341.9-13.4,341-13.9,339.9-13.3z
				 M334.1-0.8v2.6c0,0.4-0.3,0.9-0.6,1.1l0,0c-0.3,0.2-0.6,0-0.6-0.4V0c-0.6,0.1-1.1-0.4-1.1-1.2c0-1.1,0.8-2.4,1.7-3
				c1-0.6,1.7-0.1,1.7,1C335.2-2.4,334.8-1.4,334.1-0.8z M336.4-11.3l-5.7,3.3v-3.2c0-1.8,1.3-4,2.8-4.9l0.1,0
				c1.6-0.9,2.8-0.2,2.8,1.6V-11.3z"/>
			<polygon class="st7" points="336.5,-18.4 337.7,-17.7 336.6,-17.1 			"/>
			<polygon class="st7" points="341.3,-13.5 342.3,-12.9 341.2,-12.1 			"/>
			<polygon class="st7" points="325.7,10.9 326.7,11.5 326.7,10.2 			"/>
			<path class="st10" d="M340.9-12.7l-1.9,1.1v-3.2c0-2.8-2-4-4.5-2.6l-0.1,0c-2.5,1.4-4.5,4.9-4.5,7.7v3.2l-1.9,1.1
				C327-4.7,326-3.1,326-1.8v12c0,1.3,0.9,1.8,2.1,1.2L340.9,4c1.1-0.7,2.1-2.3,2.1-3.6v-12C342.9-12.9,342-13.4,340.9-12.7z
				 M335.1-0.2v2.6c0,0.4-0.3,0.9-0.6,1.1l0,0c-0.3,0.2-0.6,0-0.6-0.4V0.5c-0.6,0.1-1.1-0.4-1.1-1.2c0-1.1,0.8-2.4,1.7-3
				c1-0.6,1.7-0.1,1.7,1C336.2-1.8,335.8-0.9,335.1-0.2z M337.3-10.7l-5.7,3.3v-3.2c0-1.8,1.3-4,2.8-4.9l0.1,0
				c1.6-0.9,2.8-0.2,2.8,1.6V-10.7z"/>
		</g>
		<g>
			<polygon class="st7" points="309.6,-10.3 305.4,-12.6 276.8,4.2 294.3,14.3 			"/>
			<polygon class="st8" points="276.8,4.2 276.7,4.3 276.7,44.2 280.9,46.5 294.3,14.3 			"/>
			<polygon class="st9" points="309.6,-10.3 280.9,6.6 280.9,46.5 309.6,29.6 			"/>
		</g>
		<g>
			<path class="st7" d="M300.9,9.5l-1.9,1.1V7.4c0-2.8-2-4-4.5-2.6l-0.1,0c-2.5,1.4-4.5,4.9-4.5,7.7v3.2l-1.9,1.1
				c-1.1,0.7-2.1,2.3-2.1,3.6v12c0,1.3,0.9,1.8,2.1,1.2l12.8-7.4c1.1-0.7,2.1-2.3,2.1-3.6v-12C303,9.4,302,8.8,300.9,9.5z M295.2,22
				v2.6c0,0.4-0.3,0.9-0.6,1.1l0,0c-0.3,0.2-0.6,0-0.6-0.4v-2.6c-0.6,0.1-1.1-0.4-1.1-1.2c0-1.1,0.8-2.4,1.7-3c1-0.6,1.7-0.1,1.7,1
				C296.3,20.4,295.8,21.3,295.2,22z M297.4,11.5l-5.7,3.3v-3.2c0-1.8,1.3-4,2.8-4.9l0.1,0c1.6-0.9,2.8-0.2,2.8,1.6V11.5z"/>
			<polygon class="st7" points="297.6,4.4 298.7,5.1 297.7,5.7 			"/>
			<polygon class="st7" points="302.3,9.3 303.3,9.9 302.2,10.7 			"/>
			<polygon class="st7" points="286.7,33.7 287.8,34.3 287.8,33 			"/>
			<path class="st10" d="M301.9,10l-1.9,1.1V7.9c0-2.8-2-4-4.5-2.6l-0.1,0c-2.5,1.4-4.5,4.9-4.5,7.7v3.2l-1.9,1.1
				c-1.1,0.7-2.1,2.3-2.1,3.6v12c0,1.3,0.9,1.8,2.1,1.2l12.8-7.4c1.1-0.7,2.1-2.3,2.1-3.6v-12C303.9,9.9,303,9.4,301.9,10z
				 M296.1,22.6v2.6c0,0.4-0.3,0.9-0.6,1.1l0,0c-0.3,0.2-0.6,0-0.6-0.4v-2.6c-0.6,0.1-1.1-0.4-1.1-1.2c0-1.1,0.8-2.4,1.7-3
				c1-0.6,1.7-0.1,1.7,1C297.2,20.9,296.8,21.9,296.1,22.6z M298.4,12.1l-5.7,3.3v-3.2c0-1.8,1.3-4,2.8-4.9l0.1,0
				c1.6-0.9,2.8-0.2,2.8,1.6V12.1z"/>
		</g>
		<g>
			<polygon class="st7" points="270.7,12.5 266.4,10.2 237.8,27 255.3,37.1 			"/>
			<polygon class="st8" points="237.8,27 237.7,27 237.7,66.9 241.9,69.3 255.3,37.1 			"/>
			<polygon class="st9" points="270.7,12.5 241.9,29.4 241.9,69.3 270.7,52.4 			"/>
		</g>
		<g>
			<path class="st7" d="M261.9,32.3l-1.9,1.1v-3.2c0-2.8-2-4-4.5-2.6l-0.1,0c-2.5,1.4-4.5,4.9-4.5,7.7v3.2l-1.9,1.1
				c-1.1,0.7-2.1,2.3-2.1,3.6v12c0,1.3,0.9,1.8,2.1,1.2l12.8-7.4c1.1-0.7,2.1-2.3,2.1-3.6v-12C264,32.1,263.1,31.6,261.9,32.3z
				 M256.2,44.8v2.6c0,0.4-0.3,0.9-0.6,1.1l0,0c-0.3,0.2-0.6,0-0.6-0.4v-2.6c-0.6,0.1-1.1-0.4-1.1-1.2c0-1.1,0.8-2.4,1.7-3
				c1-0.6,1.7-0.1,1.7,1C257.3,43.1,256.8,44.1,256.2,44.8z M258.4,34.3l-5.7,3.3v-3.2c0-1.8,1.3-4,2.8-4.9l0.1,0
				c1.6-0.9,2.8-0.2,2.8,1.6V34.3z"/>
			<polygon class="st7" points="258.6,27.2 259.8,27.8 258.7,28.5 			"/>
			<polygon class="st7" points="263.3,32.1 264.3,32.7 263.2,33.5 			"/>
			<polygon class="st7" points="247.7,56.5 248.8,57.1 248.8,55.7 			"/>
			<path class="st10" d="M262.9,32.8l-1.9,1.1v-3.2c0-2.8-2-4-4.5-2.6l-0.1,0c-2.5,1.4-4.5,4.9-4.5,7.7v3.2l-1.9,1.1
				c-1.1,0.7-2.1,2.3-2.1,3.6v12c0,1.3,0.9,1.8,2.1,1.2l12.8-7.4c1.1-0.7,2.1-2.3,2.1-3.6V34C265,32.7,264,32.2,262.9,32.8z
				 M257.2,45.3V48c0,0.4-0.3,0.9-0.6,1.1l0,0c-0.3,0.2-0.6,0-0.6-0.4v-2.6c-0.6,0.1-1.1-0.4-1.1-1.2c0-1.1,0.8-2.4,1.7-3
				c1-0.6,1.7-0.1,1.7,1C258.2,43.7,257.8,44.7,257.2,45.3z M259.4,34.8l-5.7,3.3V35c0-1.8,1.3-4,2.8-4.9l0.1,0
				c1.6-0.9,2.8-0.2,2.8,1.6V34.8z"/>
		</g>
		<g>
			<polygon class="st7" points="231.7,35.3 227.4,32.9 198.8,49.7 216.3,59.8 			"/>
			<polygon class="st8" points="198.8,49.7 198.7,49.8 198.7,89.7 202.9,92 216.3,59.8 			"/>
			<polygon class="st9" points="231.7,35.3 202.9,52.1 202.9,92 231.7,75.2 			"/>
		</g>
		<g>
			<path class="st7" d="M222.9,55l-1.9,1.1v-3.2c0-2.8-2-4-4.5-2.6l-0.1,0c-2.5,1.4-4.5,4.9-4.5,7.7v3.2l-1.9,1.1
				c-1.1,0.7-2.1,2.3-2.1,3.6v12c0,1.3,0.9,1.8,2.1,1.2l12.8-7.4c1.1-0.7,2.1-2.3,2.1-3.6v-12C225,54.9,224.1,54.4,222.9,55z
				 M217.2,67.5v2.6c0,0.4-0.3,0.9-0.6,1.1l0,0c-0.3,0.2-0.6,0-0.6-0.4v-2.6c-0.6,0.1-1.1-0.4-1.1-1.2c0-1.1,0.8-2.4,1.7-3
				c1-0.6,1.7-0.1,1.7,1C218.3,65.9,217.8,66.9,217.2,67.5z M219.4,57l-5.7,3.3v-3.2c0-1.8,1.3-4,2.8-4.9l0.1,0
				c1.6-0.9,2.8-0.2,2.8,1.6V57z"/>
			<polygon class="st7" points="219.6,50 220.8,50.6 219.7,51.2 			"/>
			<polygon class="st7" points="224.3,54.8 225.4,55.4 224.2,56.2 			"/>
			<polygon class="st7" points="208.7,79.2 209.8,79.9 209.8,78.5 			"/>
			<path class="st10" d="M223.9,55.6l-1.9,1.1v-3.2c0-2.8-2-4-4.5-2.6l-0.1,0c-2.5,1.4-4.5,4.9-4.5,7.7v3.2l-1.9,1.1
				c-1.1,0.7-2.1,2.3-2.1,3.6v12c0,1.3,0.9,1.8,2.1,1.2l12.8-7.4c1.1-0.7,2.1-2.3,2.1-3.6v-12C226,55.5,225.1,54.9,223.9,55.6z
				 M218.2,68.1v2.6c0,0.4-0.3,0.9-0.6,1.1l0,0c-0.3,0.2-0.6,0-0.6-0.4v-2.6c-0.6,0.1-1.1-0.4-1.1-1.2c0-1.1,0.8-2.4,1.7-3
				s1.7-0.1,1.7,1C219.3,66.5,218.8,67.4,218.2,68.1z M220.4,57.6l-5.7,3.3v-3.2c0-1.8,1.3-4,2.8-4.9l0.1,0c1.6-0.9,2.8-0.2,2.8,1.6
				V57.6z"/>
		</g>
		<g>
			<polygon class="st7" points="192.7,58 188.5,55.7 159.9,72.5 177.3,82.6 			"/>
			<polygon class="st8" points="159.9,72.5 159.7,72.6 159.7,112.5 164,114.8 177.3,82.6 			"/>
			<polygon class="st9" points="192.7,58 164,74.9 164,114.8 192.7,97.9 			"/>
		</g>
		<g>
			<path class="st7" d="M184,77.8l-1.9,1.1v-3.2c0-2.8-2-4-4.5-2.6l-0.1,0c-2.5,1.4-4.5,4.9-4.5,7.7v3.2l-1.9,1.1
				c-1.1,0.7-2.1,2.3-2.1,3.6v12c0,1.3,0.9,1.8,2.1,1.2l12.8-7.4c1.1-0.7,2.1-2.3,2.1-3.6V79C186,77.7,185.1,77.1,184,77.8z
				 M178.2,90.3V93c0,0.4-0.3,0.9-0.6,1.1l0,0c-0.3,0.2-0.6,0-0.6-0.4v-2.6c-0.6,0.1-1.1-0.4-1.1-1.2c0-1.1,0.8-2.4,1.7-3
				s1.7-0.1,1.7,1C179.3,88.7,178.9,89.7,178.2,90.3z M180.5,79.8l-5.7,3.3v-3.2c0-1.8,1.3-4,2.8-4.9l0.1,0c1.6-0.9,2.8-0.2,2.8,1.6
				V79.8z"/>
			<polygon class="st7" points="180.6,72.7 181.8,73.4 180.7,74 			"/>
			<polygon class="st7" points="185.3,77.6 186.4,78.2 185.3,79 			"/>
			<polygon class="st7" points="169.8,102 170.8,102.6 170.8,101.3 			"/>
			<path class="st10" d="M184.9,78.4l-1.9,1.1v-3.2c0-2.8-2-4-4.5-2.6l-0.1,0c-2.5,1.4-4.5,4.9-4.5,7.7v3.2l-1.9,1.1
				c-1.1,0.7-2.1,2.3-2.1,3.6v12c0,1.3,0.9,1.8,2.1,1.2l12.8-7.4c1.1-0.7,2.1-2.3,2.1-3.6v-12C187,78.2,186.1,77.7,184.9,78.4z
				 M179.2,90.9v2.6c0,0.4-0.3,0.9-0.6,1.1l0,0c-0.3,0.2-0.6,0-0.6-0.4v-2.6c-0.6,0.1-1.1-0.4-1.1-1.2c0-1.1,0.8-2.4,1.7-3
				c1-0.6,1.7-0.1,1.7,1C180.3,89.2,179.8,90.2,179.2,90.9z M181.4,80.4l-5.7,3.3v-3.2c0-1.8,1.3-4,2.8-4.9l0.1,0
				c1.6-0.9,2.8-0.2,2.8,1.6V80.4z"/>
		</g>
		<polygon class="st4" points="153.7,80.8 149.5,78.5 120.9,95.3 138.3,105.4 		"/>
		<polygon class="st5" points="120.9,95.3 120.8,95.4 120.8,135.2 125,137.6 138.3,105.4 		"/>
		<polygon class="st6" points="153.7,80.8 125,97.7 125,137.6 153.7,120.7 		"/>
		<polygon class="st4" points="114.7,103.6 110.5,101.3 81.9,118.1 99.4,128.1 		"/>
		<polygon class="st5" points="81.9,118.1 81.8,118.1 81.8,158 86,160.3 99.4,128.1 		"/>
		<polygon class="st6" points="114.7,103.6 86,120.4 86,160.3 114.7,143.5 		"/>
		<polygon class="st4" points="75.8,126.4 71.5,124 42.9,140.8 60.4,150.9 		"/>
		<polygon class="st5" points="42.9,140.8 42.8,140.9 42.8,180.8 47,183.1 60.4,150.9 		"/>
		<polygon class="st6" points="75.8,126.4 47,143.2 47,183.1 75.8,166.2 		"/>
		<polygon class="st4" points="36.8,149.1 32.6,146.8 3.9,163.6 21.4,173.7 		"/>
		<polygon class="st5" points="3.9,163.6 3.8,163.7 3.8,203.6 8.1,205.9 21.4,173.7 		"/>
		<polygon class="st6" points="36.8,149.1 8.1,166 8.1,205.9 36.8,189 		"/>
		<polygon class="st4" points="270.7,-38.8 266.4,-41.1 237.8,-24.3 255.3,-14.2 		"/>
		<polygon class="st5" points="237.8,-24.3 237.7,-24.2 237.7,15.6 241.9,18 255.3,-14.2 		"/>
		<polygon class="st6" points="270.7,-38.8 241.9,-21.9 241.9,18 270.7,1.1 		"/>
		<polygon class="st4" points="231.7,-16 227.4,-18.3 198.8,-1.5 216.3,8.5 		"/>
		<polygon class="st5" points="198.8,-1.5 198.7,-1.5 198.7,38.4 202.9,40.7 216.3,8.5 		"/>
		<polygon class="st6" points="231.7,-16 202.9,0.8 202.9,40.7 231.7,23.9 		"/>
		<polygon class="st4" points="192.7,6.8 188.5,4.4 159.9,21.2 177.3,31.3 		"/>
		<polygon class="st5" points="159.9,21.2 159.7,21.3 159.7,61.2 164,63.5 177.3,31.3 		"/>
		<polygon class="st6" points="192.7,6.8 164,23.6 164,63.5 192.7,46.6 		"/>
		<polygon class="st4" points="153.7,29.5 149.5,27.2 120.9,44 138.3,54.1 		"/>
		<polygon class="st5" points="120.9,44 120.8,44.1 120.8,84 125,86.3 138.3,54.1 		"/>
		<polygon class="st6" points="153.7,29.5 125,46.4 125,86.3 153.7,69.4 		"/>
		<polygon class="st4" points="114.7,52.3 110.5,50 81.9,66.8 99.4,76.8 		"/>
		<polygon class="st5" points="81.9,66.8 81.8,66.8 81.8,106.7 86,109.1 99.4,76.8 		"/>
		<polygon class="st6" points="114.7,52.3 86,69.2 86,109.1 114.7,92.2 		"/>
		<polygon class="st1" points="75.8,75.1 71.5,72.7 42.9,89.5 60.4,99.6 		"/>
		<polygon class="st2" points="42.9,89.5 42.8,89.6 42.8,129.5 47,131.8 60.4,99.6 		"/>
		<polygon class="st3" points="75.8,75.1 47,91.9 47,131.8 75.8,115 		"/>
		<polygon class="st1" points="36.8,97.8 32.6,95.5 3.9,112.3 21.4,122.4 		"/>
		<polygon class="st2" points="3.9,112.3 3.8,112.4 3.8,152.3 8.1,154.6 21.4,122.4 		"/>
		<polygon class="st3" points="36.8,97.8 8.1,114.7 8.1,154.6 36.8,137.7 		"/>
		<polygon class="st1" points="192.7,-44.5 188.5,-46.9 159.9,-30.1 177.3,-20 		"/>
		<polygon class="st2" points="159.9,-30.1 159.7,-30 159.7,9.9 164,12.2 177.3,-20 		"/>
		<polygon class="st3" points="192.7,-44.5 164,-27.7 164,12.2 192.7,-4.6 		"/>
		<polygon class="st1" points="153.7,-21.8 149.5,-24.1 120.9,-7.3 138.3,2.8 		"/>
		<polygon class="st2" points="120.9,-7.3 120.8,-7.2 120.8,32.7 125,35 138.3,2.8 		"/>
		<polygon class="st3" points="153.7,-21.8 125,-4.9 125,35 153.7,18.1 		"/>
		<polygon class="st1" points="114.7,1 110.5,-1.3 81.9,15.5 99.4,25.6 		"/>
		<polygon class="st2" points="81.9,15.5 81.8,15.6 81.8,55.4 86,57.8 99.4,25.6 		"/>
		<polygon class="st3" points="114.7,1 86,17.9 86,57.8 114.7,40.9 		"/>
		<polygon class="st1" points="75.8,23.8 71.5,21.5 42.9,38.3 60.4,48.3 		"/>
		<polygon class="st2" points="42.9,38.3 42.8,38.3 42.8,78.2 47,80.5 60.4,48.3 		"/>
		<polygon class="st3" points="75.8,23.8 47,40.6 47,80.5 75.8,63.7 		"/>
		<polygon class="st1" points="36.8,46.6 32.6,44.2 3.9,61 21.4,71.1 		"/>
		<polygon class="st2" points="3.9,61 3.8,61.1 3.8,101 8.1,103.3 21.4,71.1 		"/>
		<polygon class="st3" points="36.8,46.6 8.1,63.4 8.1,103.3 36.8,86.4 		"/>
		<polygon class="st1" points="114.7,-50.3 110.5,-52.6 81.9,-35.8 99.4,-25.7 		"/>
		<polygon class="st2" points="81.9,-35.8 81.8,-35.7 81.8,4.2 86,6.5 99.4,-25.7 		"/>
		<polygon class="st3" points="114.7,-50.3 86,-33.4 86,6.5 114.7,-10.4 		"/>
		<polygon class="st1" points="75.8,-27.5 71.5,-29.8 42.9,-13 60.4,-3 		"/>
		<polygon class="st2" points="42.9,-13 42.8,-13 42.8,26.9 47,29.3 60.4,-3 		"/>
		<polygon class="st3" points="75.8,-27.5 47,-10.6 47,29.3 75.8,12.4 		"/>
		<polygon class="st1" points="36.8,-4.7 32.6,-7.1 3.9,9.7 21.4,19.8 		"/>
		<polygon class="st2" points="3.9,9.7 3.8,9.8 3.8,49.7 8.1,52 21.4,19.8 		"/>
		<polygon class="st3" points="36.8,-4.7 8.1,12.1 8.1,52 36.8,35.2 		"/>
	</g>
</g>
</svg>
