<svg xmlns="http://www.w3.org/2000/svg" data-name="Layer 1" viewBox="0 0 30 30"><path fill="#d12027" d="M22 10.75a2.12 2.12 0 0 1-.38 1.18 4 4 0 0 1-1 1L17 15.43l-.33.24c-.17.12-.31.22-.43.29l-.4.26a3 3 0 0 1-.45.21 1.15 1.15 0 0 1-.39.07 1.15 1.15 0 0 1-.39-.07 3 3 0 0 1-.45-.21l-.4-.26c-.12-.07-.26-.17-.43-.29l-.33-.24L11 14c-.9-.61-1.43-1-1.61-1.11a4.06 4.06 0 0 1-.91-.9A1.8 1.8 0 0 1 8 10.92a1.6 1.6 0 0 1 .32-1 1.14 1.14 0 0 1 .93-.41h11.5a1.19 1.19 0 0 1 .88.37 1.18 1.18 0 0 1 .37.87zm0 2.3v6.2a1.26 1.26 0 0 1-1.25 1.25H9.25A1.26 1.26 0 0 1 8 19.25v-6.2a4.35 4.35 0 0 0 .79.68c1.88 1.27 3.21 2.18 3.88 2.69l.72.51a4.56 4.56 0 0 0 .74.38 2.24 2.24 0 0 0 .86.19 2.24 2.24 0 0 0 .86-.19 4.56 4.56 0 0 0 .74-.38l.72-.51q1.32-1 3.89-2.69a4.33 4.33 0 0 0 .8-.68z"/></svg>