<svg xmlns="http://www.w3.org/2000/svg" viewBox="0 0 30 30"><path fill="#d12027" d="M20.5 18.19a2.78 2.78 0 0 1-.08.55 3.88 3.88 0 0 1-.16.53 2.1 2.1 0 0 1-1 .83 3 3 0 0 1-1.45.4 2.73 2.73 0 0 1-.41 0l-.4-.12-.37-.12-.43-.16-.4-.1a6.86 6.86 0 0 1-1.36-.65 11.4 11.4 0 0 1-2.07-1.68 11.4 11.4 0 0 1-1.68-2.07 6.86 6.86 0 0 1-.69-1.4s0-.2-.1-.39l-.16-.43c0-.08-.07-.21-.12-.37s-.07-.32-.09-.45a2.73 2.73 0 0 1 0-.41 2.94 2.94 0 0 1 .4-1.45 2.1 2.1 0 0 1 .83-1 2.84 2.84 0 0 1 .53-.16 2.78 2.78 0 0 1 .55-.08h.17c.09 0 .23.23.41.6.06.1.14.24.23.42s.19.35.28.5l.24.41.14.2c.07.11.13.2.17.28a.59.59 0 0 1 .05.22.65.65 0 0 1-.22.39 3.35 3.35 0 0 1-.49.43c-.17.13-.33.27-.48.41a.6.6 0 0 0-.22.36.67.67 0 0 0 0 .18l.07.16.11.19a.61.61 0 0 1 .09.14 8.21 8.21 0 0 0 1.36 1.84 8.21 8.21 0 0 0 1.84 1.36l.14.09.19.11.16.07h.18a.6.6 0 0 0 .36-.22c.14-.15.28-.31.41-.48a3.35 3.35 0 0 1 .43-.49.65.65 0 0 1 .39-.22.59.59 0 0 1 .22.05l.28.17.2.14.41.24.5.28.42.23c.37.18.57.32.6.41a.65.65 0 0 1 .02.26z"/></svg>