<svg xmlns="http://www.w3.org/2000/svg" viewBox="0 0 30 30"><path fill="#d12027" d="M12 9.8a6.06 6.06 0 0 1 6 0 6.05 6.05 0 0 1 2.2 2.2 6.06 6.06 0 0 1 0 6 6.05 6.05 0 0 1-2.2 2.2 6.06 6.06 0 0 1-6 0A6.05 6.05 0 0 1 9.8 18a6.06 6.06 0 0 1 0-6A6.05 6.05 0 0 1 12 9.8zm5.15 3.27l-.07.07a.23.23 0 0 1-.11.08.36.36 0 0 1 0-.09v-.05a.5.5 0 0 1 .17-.12 2.19 2.19 0 0 1 .41-.09.41.41 0 0 1 .4.08l.07-.1c.07-.1.1-.09.12-.09h.11q.11 0 .12-.06v-.17a.13.13 0 0 1-.14 0 .29.29 0 0 1-.05-.17l-.05.07c-.05.07 0-.06 0-.07h-.16a.44.44 0 0 1-.12-.06.2.2 0 0 1-.06-.13.62.62 0 0 1 0-.11.22.22 0 0 0-.08-.09.17.17 0 0 1-.07-.08v-.05h-.05c-.05 0 0 .06-.06.08h-.23c.08 0 .08-.06 0-.09a.19.19 0 0 0-.12 0 .08.08 0 0 0 .06-.1.23.23 0 0 0-.07-.11l-.07-.06a.4.4 0 0 0-.13-.07h-.1a.72.72 0 0 0-.27-.08.53.53 0 0 0-.26 0 .16.16 0 0 0 0 .08.36.36 0 0 0 0 .11.33.33 0 0 1 0 .1.14.14 0 0 1-.05.1.14.14 0 0 0-.05.09s0 .08.11.12.1.1.08.17a.46.46 0 0 1-.12.13l-.13.09a.14.14 0 0 0 0 .14.24.24 0 0 0 .08.13.13.13 0 0 1-.16 0 .53.53 0 0 1-.11-.21.39.39 0 0 0-.12-.23h-.23c-.03 0-.13-.14-.32-.21a1.09 1.09 0 0 0-.45 0v-.11c0-.11-.09-.11-.15-.1a1.06 1.06 0 0 0 0-.14.58.58 0 0 1 0-.1.31.31 0 0 1 .09-.18l.06-.07.07-.1a.44.44 0 0 0 .39-.09.36.36 0 0 0 .09-.13l.09-.13a.14.14 0 0 1 .11 0 .24.24 0 0 1 .11 0 .24.24 0 0 0 .11 0q.12 0 .12-.09a.17.17 0 0 0-.05-.15c.06 0 .07 0 0-.14l-.06-.07a.27.27 0 0 0-.21 0v.06l-.07.09a.79.79 0 0 1-.13.13h-.13a.84.84 0 0 1 0-.1.17.17 0 0 0-.07-.11s-.09 0-.13.12 0-.08-.09-.12l-.18-.06c.1-.06.08-.13-.07-.21a.46.46 0 0 0-.16 0 .28.28 0 0 0-.15 0 .31.31 0 0 0 0 .09.05.05 0 0 0 0 .06h.24c.07.05.09.09.06.11h-.16a.11.11 0 0 0 0 .11v.11a.26.26 0 0 1-.07-.13.7.7 0 0 0-.05-.13s0 .06-.2 0h-.2a.47.47 0 0 1-.16 0 .15.15 0 0 1-.11-.06.22.22 0 0 1 0-.16l-.08-.08-.08-.06a3.6 3.6 0 0 0-.74.32h.1l.1-.05h.08c.17-.07.28-.09.33-.05a1.05 1.05 0 0 1 .16.2.39.39 0 0 0-.23 0q-.17 0-.18.09a.18.18 0 0 1 0 .14H13l-.11-.08a.28.28 0 0 0-.12 0h-.17a4.82 4.82 0 0 0-1.83 1.73.12.12 0 0 0 .09.06v.07a.17.17 0 0 0 0 .09h.09a.12.12 0 0 1 0 .15 1.75 1.75 0 0 1 .35.21l.16.16c0 .06 0 .1-.08.14s0 0-.07-.07-.06-.05-.07 0 0 .07 0 .14 0 .11.09.1-.07 0-.08.13a2.13 2.13 0 0 0 0 .27.72.72 0 0 1 0 .19.44.44 0 0 0 0 .26c.05.12.1.17.17.16s0 .13.16.33.05.07.06.07l.09.06.12.08.15.02a.81.81 0 0 1 .08.18.31.31 0 0 0 .11.18s0 .08.07.16a.24.24 0 0 1 .08.18.19.19 0 0 0 .11.11.38.38 0 0 1 .13.1v.08a.64.64 0 0 0 0 .09.06.06 0 0 0 .07 0 .9.9 0 0 0-.19-.48 2.95 2.95 0 0 1-.13-.23.35.35 0 0 1 0-.12.53.53 0 0 0 0-.11H12.5a.18.18 0 0 0 0 .14.71.71 0 0 0 .1.14 1.53 1.53 0 0 0 .13.15l.09.1a.85.85 0 0 1 .11.16v.1a.27.27 0 0 1 .16.08.48.48 0 0 1 .13.16.43.43 0 0 1 .06.2v.19a.2.2 0 0 0 .07.1.35.35 0 0 0 .1.08l.12.06.1.05.15.09a.63.63 0 0 0 .17.08.24.24 0 0 0 .12 0h.22a.27.27 0 0 1 .23.12.58.58 0 0 0 .16.16.54.54 0 0 0 .43.09v.06l.07.12.07.11a.43.43 0 0 0 0 .07.61.61 0 0 0 .14.11l.14.12a.13.13 0 0 0 .13.02s0 .09.05.16.1.09.14.07.11-.09.11-.23a.25.25 0 0 1-.38-.14.11.11 0 0 1 0-.07.14.14 0 0 1 0-.06v-.06c0-.01 0 0 0 0h.07v-.1a.33.33 0 0 1 0-.1.54.54 0 0 0-.09-.16l-.09-.11a.15.15 0 0 1-.13.06.15.15 0 0 1-.12-.07.17.17 0 0 0 0 .05h-.11v-.13a.74.74 0 0 1 0-.18.44.44 0 0 1 .05-.09l.06-.12v-.09a.09.09 0 0 0 0-.08.26.26 0 0 0-.14 0 .23.23 0 0 0-.2.16v.08a.39.39 0 0 1 0 .09l-.07.06a.52.52 0 0 1-.19 0 .41.41 0 0 1-.19 0 .51.51 0 0 1-.17-.22.75.75 0 0 1-.08-.29v-.21-.2a.76.76 0 0 0-.05-.19l.07-.07.08-.08h.07a.42.42 0 0 0 .22 0h.21c.03 0 .14.05.17 0a.17.17 0 0 0 0-.07.2.2 0 0 1 0-.11c0 .15.1.17.23.07s.05 0 .12 0h.14l.07-.05a.5.5 0 0 1 .09.18c.06.21.11.33.15.35s.07 0 .09 0 0 0 0-.07v-.11-.36a.19.19 0 0 1-.14-.1.14.14 0 0 1 0-.14.79.79 0 0 1 .16-.27h.1l.12-.05.1-.07q.16-.15.12-.27s.06 0 .08-.07h-.05c.05 0 .05-.07 0-.12a.19.19 0 0 0 .05-.09.18.18 0 0 1 .06-.08.11.11 0 0 0 .17 0 .09.09 0 0 0 0-.13.34.34 0 0 1 .16-.08c.09 0 .13 0 .15-.07s.06 0 .06 0a.22.22 0 0 0 0-.09.22.22 0 0 1 0-.1.31.31 0 0 1 .12-.07h.1l.13-.08a.29.29 0 0 0 .25-.09c.05-.06 0-.11-.05-.16s0-.05 0-.07h-.12.09a.09.09 0 0 0 .08 0c.08 0 .06-.09-.05-.12a.41.41 0 0 0-.43-.12zm-1.27 6.85a4.9 4.9 0 0 0 2.74-1.47.19.19 0 0 0-.1 0h-.1l-.18-.06a.16.16 0 0 0 0-.1.16.16 0 0 0-.07-.07l-.09-.06L18 18h-.21a.1.1 0 0 0-.06 0h-.11a1 1 0 0 0-.27-.17.18.18 0 0 1-.09 0l-.08-.06H17a.16.16 0 0 0-.09.06.16.16 0 0 0-.05.11.77.77 0 0 1 0 .1v-.13-.15c0-.03 0 0-.08 0h-.09l-.09.07-.07.05h-.07l-.06.06a.19.19 0 0 0-.05.1.56.56 0 0 1 0 .08.13.13 0 0 0-.09-.05h-.08a1.1 1.1 0 0 1 0 .27 1.68 1.68 0 0 0 0 .3.37.37 0 0 1-.1.37.62.62 0 0 0-.22.32c0 .11 0 .18.09.2a.4.4 0 0 1-.06.16.27.27 0 0 0-.06.17.74.74 0 0 0 .04.06z"/></svg>