<svg xmlns="http://www.w3.org/2000/svg" viewBox="0 0 74 36"><path class="logo-ts" fill="#d12027" d="M43.91 30.18h-.51v-13l-4.15 9.16h-3.62l-4.15-9.16v13h-6.6a17.7 17.7 0 0 0 25.12 0zM28.62 5.43h3.49l5.33 11.65 5.37-11.65h7.39a17.71 17.71 0 0 0-25.52 0z"/><path fill="#a9c1d1" d="M21.05 11.36h-7.11v18.82H7.15V11.36H0V5.43h21.05zm49.03 2.16a16.92 16.92 0 0 0-2.16-1.11 20.07 20.07 0 0 0-2.11-.79 7.68 7.68 0 0 0-2.28-.36 3.29 3.29 0 0 0-1.45.27 1 1 0 0 0-.54 1 1.09 1.09 0 0 0 .32.8 2.91 2.91 0 0 0 .9.57 10.42 10.42 0 0 0 1.45.51c.57.16 1.21.36 1.94.59a25.9 25.9 0 0 1 3.08 1.15 9.53 9.53 0 0 1 2.35 1.48 5.7 5.7 0 0 1 1.5 2.08 7.47 7.47 0 0 1 .52 3 7.79 7.79 0 0 1-.82 3.75 6.66 6.66 0 0 1-2.16 2.42 9 9 0 0 1-3 1.3 14.57 14.57 0 0 1-3.4.41 19.33 19.33 0 0 1-2.79-.21 23.94 23.94 0 0 1-2.84-.6 23.26 23.26 0 0 1-2.71-.9 17.7 17.7 0 0 1-2.43-1.19l2.93-6A19.42 19.42 0 0 0 58.9 23a17.79 17.79 0 0 0 2.52.94 10 10 0 0 0 2.88.42 2.9 2.9 0 0 0 1.55-.3.88.88 0 0 0 .43-.78 1.13 1.13 0 0 0-.43-.89 3.94 3.94 0 0 0-1.2-.64c-.52-.19-1.1-.37-1.76-.56s-1.37-.41-2.11-.66A17.8 17.8 0 0 1 58 19.32a7.53 7.53 0 0 1-2-1.46A5.26 5.26 0 0 1 54.87 16a7.39 7.39 0 0 1-.37-2.41 8.27 8.27 0 0 1 .75-3.59 7.46 7.46 0 0 1 2-2.62 9 9 0 0 1 3-1.58 11.2 11.2 0 0 1 3.5-.54 12.88 12.88 0 0 1 2.65.26 19.76 19.76 0 0 1 2.49.66q1.2.4 2.25.87c.7.31 1.32.61 1.88.89z"/></svg>