<svg xmlns="http://www.w3.org/2000/svg" viewBox="0 0 30 30"><path fill="#d12027" d="M20.5 19a2 2 0 0 1-.57 1.48 2.12 2.12 0 0 1-1.52.54h-6.82a2.12 2.12 0 0 1-1.52-.54A2 2 0 0 1 9.5 19v-.81a7.09 7.09 0 0 1 .11-.85 6.25 6.25 0 0 1 .2-.85 4.3 4.3 0 0 1 .34-.76 2.89 2.89 0 0 1 .48-.64 2.15 2.15 0 0 1 .67-.41 2.25 2.25 0 0 1 .87-.16 1 1 0 0 1 .33.17l.58.37a3.58 3.58 0 0 0 .85.38 3.27 3.27 0 0 0 2.08 0 3.58 3.58 0 0 0 .85-.38l.58-.37a1 1 0 0 1 .33-.17 2.28 2.28 0 0 1 .87.16 2.15 2.15 0 0 1 .67.41 2.89 2.89 0 0 1 .48.64 4.3 4.3 0 0 1 .34.76 6.25 6.25 0 0 1 .2.85 7.09 7.09 0 0 1 .11.85q.06.37.06.81zm-3.38-9.1a3 3 0 0 1 0 4.24 3 3 0 0 1-4.24 0 3 3 0 0 1 0-4.24 3 3 0 0 1 4.24 0z"/></svg>