<svg xmlns="http://www.w3.org/2000/svg" viewBox="0 0 355 101"><path fill="#d12027" fill-rule="evenodd" d="M345.94 49.62l8.99 15.65-19.73 34.2h-39.42l-19.71-34 19.71-34h39.42l7.92 13.51-8.65-.15-3.59-6.36H300.1l-15.38 26.5 15.38 26.5h30.78l15.4-26.48-4.66-7.98-1.89.04-13.51 23.42h-8.72l-.06-16.27-7.48 16.28-9.84-.09.01-30.92h7.48v19.17l8.52-19.17h8.7v18.26l10.49-18.15 10.62.04z"/><path fill="#5d686e" fill-rule="evenodd" d="M103.29 10.88a10.89 10.89 0 1 1 10.89 10.89 10.88 10.88 0 0 1-10.89-10.89M89.19 99.47a2 2 0 0 1-1.94-2l.06-.53L99 44.47H83L55.3 98.2a2.39 2.39 0 0 1-2.06 1.27H39.53a2 2 0 0 1-1.93-2l.31-39.09-19.43 39.69a2.31 2.31 0 0 1-2.11 1.4h-13a2 2 0 0 1-2-2L0 33.26a1.8 1.8 0 0 1 1.92-1.79h12.42a1.79 1.79 0 0 1 1.91 1.78V73.7l18.62-41A2.2 2.2 0 0 1 37 31.47h13.86c1.06 0 2.34.58 2.34 1.65V71.4l17.52-38.79a1.87 1.87 0 0 1 1.85-1.14h44.48a1.8 1.8 0 0 1 1.95 1.78v.36L104.68 98a1.94 1.94 0 0 1-1.89 1.52zM145.22 71.88l-5.81 26a2 2 0 0 1-1.9 1.56h-13.6a2 2 0 0 1-1.94-2L122 97l19.73-88.88.42-1.85a2.3 2.3 0 0 1 1.64-1.75l14.27-3.07h.4a1.92 1.92 0 0 1 1.93 1.93v.47L152.29 40c4.72-5.6 11.38-11.09 19.65-11 20.8.09 13.37 25 13.37 25l-9.8 43.93a2 2 0 0 1-1.9 1.56H160a2 2 0 0 1-2-2l.07-.51 9.57-43.75s2.49-8.65-4.41-8.65c-7.73 0-14.22 10.08-18.08 27.28M230.15 97l-.06.52a2 2 0 0 0 1.94 2h13.59a2 2 0 0 0 1.9-1.56l14.33-64.16.06-.5a1.81 1.81 0 0 0-1.91-1.83h-13.6a1.83 1.83 0 0 0-1.9 1.38l-1.23 5.49c.55-2.48-2.32-9.36-13.91-9.36s-24.47 6.6-30.81 28-4.88 44 12.32 43.91c9.62 0 12.67-3.43 13.37-4a1.89 1.89 0 0 0 .47-1c.09-.38 2.47-11.07 2.47-11.17a1.37 1.37 0 0 0-1.37-1.37l-.8.24a13.84 13.84 0 0 1-6.78 2c-6.44.27-6.32-10.3-2.57-24.38 3.4-12.79 9-18.4 15.73-18.4a8.63 8.63 0 0 1 8.55 10.48z"/></svg>